<?xml version="1.0" encoding="UTF-8" standalone="no"?>
<svg width="184px" height="165px" viewBox="0 0 184 165" version="1.1" xmlns="http://www.w3.org/2000/svg" xmlns:xlink="http://www.w3.org/1999/xlink" xmlns:sketch="http://www.bohemiancoding.com/sketch/ns">
    <!-- Generator: Sketch 3.4.4 (17249) - http://www.bohemiancoding.com/sketch -->
    <title>Page 1</title>
    <desc>Created with Sketch.</desc>
    <defs>
        <path id="path-1" d="M0,0 L184,0 L184,165 L0,165 L0,0 Z"></path>
    </defs>
    <g id="Page-1" stroke="none" stroke-width="1" fill="none" fill-rule="evenodd" sketch:type="MSPage">
        <g id="Bike-detail-page-Copy-2" sketch:type="MSArtboardGroup" transform="translate(-340.000000, -1096.000000)">
            <g id="Group" sketch:type="MSLayerGroup" transform="translate(340.000000, 1082.000000)">
                <g id="Page-1" transform="translate(0.000000, 14.000000)">
                    <mask id="mask-2" sketch:name="Clip 2" fill="white">
                        <use xlink:href="#path-1"></use>
                    </mask>
                    <g id="Clip-2"></g>
                    <path d="M176.040946,115.930405 L176.040946,110.080132 C176.040946,109.930125 176.003442,109.855121 175.928436,109.855121 C175.853429,109.855121 175.815925,109.780118 175.815925,109.630111 L175.609657,109.855121 C175.140864,111.805212 174.915844,113.717802 174.915844,115.592889 L174.915844,121.330656 L174.915844,121.555667 L175.815925,122.455709 C175.815925,122.305702 175.853429,122.155695 175.928436,122.005688 C176.003442,121.855681 176.040946,121.705674 176.040946,121.555667 L176.040946,115.930405 Z M157.364254,138.206443 L157.139234,137.756422 C156.98922,137.606415 156.914213,137.681419 156.914213,137.981433 C157.064227,137.981433 157.21424,138.056436 157.364254,138.206443 C157.364254,138.806471 157.533019,139.256492 157.814295,139.556506 C158.564363,141.056576 159.239424,142.556646 159.85823,144.056716 C160.439533,145.556786 160.96458,147.131859 161.433373,148.781936 C161.714648,149.531971 161.864662,150.207003 161.864662,150.807031 C161.864662,151.407059 162.014675,152.08209 162.333454,152.832125 C162.464716,152.982132 162.539723,153.282146 162.539723,153.732167 C162.83975,153.432153 163.008515,153.132139 163.008515,152.832125 C163.158529,151.632069 163.158529,150.544518 163.008515,149.569473 C162.83975,148.594427 162.61473,147.58188 162.333454,146.531831 C161.864662,144.881754 161.320862,143.344183 160.645801,141.919116 C159.97074,140.49405 158.86439,139.256492 157.364254,138.206443 L157.364254,138.206443 Z M153.78268,17.6008206 L154.457741,16.9257891 C154.739016,16.7757821 154.739016,16.5507716 154.457741,16.2507576 C152.057523,14.7506877 149.863575,14.3756702 147.913398,15.1257052 L147.482109,15.5757261 C147.482109,16.0257471 147.613371,16.2507576 147.913398,16.2507576 C149.113507,16.5507716 150.013588,16.6257751 150.632394,16.4757681 C151.213697,16.4757681 151.776248,16.5882733 152.301295,16.8132838 C152.845095,17.0382943 153.313887,17.3008066 153.78268,17.6008206 L153.78268,17.6008206 Z M152.413806,146.306821 C152.413806,146.606835 152.488812,146.756842 152.638826,146.756842 C152.78884,146.756842 152.882598,146.681838 152.882598,146.531831 L152.413806,146.306821 C152.413806,145.256772 152.057523,144.619242 151.307455,144.394232 C150.557387,144.169221 149.938581,143.831705 149.488541,143.381684 C149.188513,143.08167 148.850983,142.819158 148.475949,142.594148 C148.119667,142.369137 147.613371,142.406639 147.013316,142.706653 C146.263248,142.706653 146.788296,143.231677 148.588459,144.281726 C149.188513,144.731747 149.80732,145.181768 150.407374,145.631789 C150.988677,146.08181 151.663738,146.306821 152.413806,146.306821 L152.413806,146.306821 Z M156.032883,155.532251 C156.164145,155.682258 156.239152,155.907268 156.239152,156.207282 C156.707945,156.207282 156.782951,156.057275 156.464172,155.757261 C156.314159,155.757261 156.164145,155.682258 156.032883,155.532251 C156.032883,155.382244 156.070387,155.232237 156.126642,155.08223 C156.201649,154.932223 156.10789,154.707212 155.789111,154.407198 C154.739016,153.35715 153.78268,152.157094 152.882598,150.807031 C151.213697,148.85694 149.338527,147.58188 147.257089,146.981852 C146.93831,146.831845 146.750793,146.794344 146.694538,146.869347 C146.619531,146.944351 146.488269,146.981852 146.338255,146.981852 C146.338255,147.431873 146.488269,147.656884 146.788296,147.656884 C147.988405,148.556926 149.188513,149.531971 150.407374,150.58202 C151.588731,151.632069 152.78884,152.757122 153.988948,153.957177 C154.288975,154.257191 154.589003,154.557205 154.88903,154.857219 C155.207809,155.157233 155.564091,155.382244 156.032883,155.532251 L156.032883,155.532251 Z M143.431742,123.13074 C145.081891,122.830726 146.750793,122.643218 148.475949,122.568214 C150.201105,122.493211 151.888758,122.455709 153.557659,122.455709 L153.988948,122.455709 C154.138962,122.455709 154.251472,122.418207 154.345231,122.343204 C154.420237,122.2682 154.532748,122.230698 154.664009,122.230698 C154.532748,122.230698 154.420237,122.193197 154.345231,122.118193 C154.251472,122.04319 154.138962,122.005688 153.988948,122.005688 C153.088867,121.855681 152.226289,121.743176 151.419966,121.668172 C150.594891,121.593169 149.732313,121.480663 148.832231,121.330656 C146.582027,121.330656 144.29432,121.293155 141.96911,121.218151 C139.643899,121.143148 137.356192,121.330656 135.087236,121.780677 L134.412175,122.230698 L134.880967,122.455709 C136.362352,122.305702 137.787481,122.343204 139.137603,122.568214 C140.487725,122.793225 141.931606,122.980733 143.431742,123.13074 L143.431742,123.13074 Z M102.23426,12.6505898 C101.484192,12.5005828 100.846635,12.5380845 100.321587,12.763095 C99.8152912,12.9881055 99.1589818,13.1756142 98.4089139,13.3256212 C98.1088867,13.4756282 98.0338799,13.5881335 98.2026452,13.663137 C98.3339071,13.7381405 98.4089139,13.8506457 98.4089139,14.0006527 C98.8777063,14.4506737 99.3464988,14.6756842 99.8715463,14.6756842 C100.396594,14.6756842 100.884138,14.6006807 101.352931,14.4506737 C101.78422,14.1506597 102.23426,14.0006527 102.684301,14.0006527 C103.134342,14.0006527 103.603134,13.9256492 104.034423,13.7756422 C104.503216,13.7756422 104.709485,13.7006387 104.709485,13.5506317 C104.709485,13.1006108 104.503216,12.8756003 104.034423,12.8756003 C103.753148,12.7255933 103.134342,12.6505898 102.23426,12.6505898 L102.23426,12.6505898 Z M102.459281,128.080971 C103.809403,128.380985 105.253284,128.380985 106.75342,128.080971 C108.234804,127.780957 109.809947,127.555947 111.478848,127.40594 C112.228916,127.40594 112.847722,127.293434 113.372769,127.068424 C113.916569,126.843413 114.554126,126.805912 115.304194,126.955919 L115.735483,126.955919 C115.885497,126.955919 115.960504,126.880915 115.960504,126.730908 C115.960504,126.430894 115.735483,126.280887 115.304194,126.280887 L113.729052,126.280887 C112.06015,126.280887 110.522511,126.318389 109.116134,126.393392 C107.672253,126.468396 106.134614,126.580901 104.503216,126.730908 C102.684301,126.880915 100.884138,126.99342 99.083975,127.068424 C97.3025636,127.143427 95.4836489,126.880915 93.6834858,126.280887 C93.5522239,126.430894 93.3834586,126.505898 93.2334451,126.505898 C93.2334451,126.655905 93.2709485,126.730908 93.3647069,126.730908 C93.4397137,126.730908 93.4772171,126.805912 93.4772171,126.955919 C93.608479,126.955919 93.7584926,126.99342 93.9085062,127.068424 C94.0585198,127.143427 94.2272851,127.180929 94.3772987,127.180929 C95.5586557,127.930964 96.7962678,128.26848 98.090135,128.193476 C99.3464988,128.118473 100.809131,128.080971 102.459281,128.080971 L102.459281,128.080971 Z M100.659118,122.005688 L100.659118,121.780677 C101.709213,121.780677 102.721805,121.818179 103.715645,121.893183 C104.671981,121.968186 105.75958,121.930684 106.959688,121.780677 C107.259716,121.780677 107.540991,121.818179 107.74726,121.893183 C107.97228,121.968186 108.159797,121.855681 108.328562,121.555667 C108.009783,121.40566 107.74726,121.255653 107.540991,121.105646 C107.297219,120.955639 107.034695,120.805632 106.75342,120.655625 L104.934505,120.655625 C104.503216,120.655625 104.034423,120.693127 103.603134,120.76813 C103.134342,120.843134 102.77806,120.805632 102.459281,120.655625 C100.809131,119.90559 99.271492,119.718081 97.8463629,120.093099 C96.4212338,120.468116 94.9586013,120.730628 93.4772171,120.880635 C92.2583567,120.880635 91.2832684,121.180649 90.5332005,121.780677 L90.0831597,122.230698 C90.2331733,122.230698 90.3644352,122.2682 90.439442,122.343204 C90.4956971,122.418207 90.6082073,122.455709 90.7582209,122.455709 C91.5082888,122.455709 92.2208533,122.343204 92.8959145,122.118193 C93.5897273,121.893183 94.3022919,121.780677 95.0523598,121.780677 C95.9524413,121.930684 96.8712746,122.005688 97.8463629,122.005688 L100.659118,122.005688 Z M120.704683,161.157513 C121.436,161.157513 121.811034,160.857499 121.811034,160.257471 C121.811034,159.207422 121.848537,158.194875 121.923544,157.21983 C121.998551,156.244784 121.88604,155.232237 121.604765,154.182188 C121.604765,152.682118 121.210979,151.332055 120.460911,150.131999 C119.410816,148.481922 118.135701,147.35687 116.635565,146.756842 C115.135429,146.156814 113.560286,145.556786 111.910137,144.956758 C110.410001,144.506737 108.909865,144.319228 107.428481,144.394232 C105.928345,144.469235 104.428209,144.506737 102.928073,144.506737 C101.277924,144.506737 99.702781,144.469235 98.2026452,144.394232 C96.7025093,144.319228 95.1273666,144.35673 93.4772171,144.506737 C92.1083431,144.506737 90.8332276,144.769249 89.6518706,145.294274 C88.4330102,145.819298 87.6079355,146.906849 87.1766464,148.556926 C86.2578132,152.307101 86.6328472,155.682258 88.2829966,158.682398 C88.7517891,159.432433 89.3330918,159.882454 90.0831597,160.032461 C91.7333092,160.482482 93.3084519,160.932503 94.8085877,161.382524 C96.3087236,161.832545 97.8838663,161.982552 99.5340158,161.832545 L106.509648,161.832545 C108.609838,162.132559 110.860042,162.132559 113.260259,161.832545 C115.660476,161.532531 118.135701,161.30752 120.704683,161.157513 L120.704683,161.157513 Z M64.2058157,128.080971 L58.8053266,128.080971 C58.655313,128.080971 58.5428028,128.118473 58.467796,128.193476 C58.4115409,128.26848 58.2990307,128.305982 58.1302654,128.305982 L58.5803062,128.756003 C58.8803334,128.90601 59.1616088,129.056017 59.3678775,129.206024 C59.5928979,129.356031 59.8741734,129.431034 60.1554489,129.431034 L66.2497509,129.431034 C68.1811758,129.431034 70.1501042,128.981013 72.0815291,128.080971 L72.3253012,128.080971 L72.7565903,127.855961 C72.7565903,127.555947 72.5315699,127.480943 72.0815291,127.63095 C70.7501585,127.930964 69.4000362,128.118473 68.0311622,128.193476 C66.6810399,128.26848 65.4246761,128.230978 64.2058157,128.080971 L64.2058157,128.080971 Z M57.473956,126.280887 C58.2052722,126.430894 58.84283,126.280887 59.3678775,125.830866 C59.9116768,125.380845 60.5304828,125.305842 61.2805508,125.605856 C61.8806051,125.755863 62.4056527,125.680859 62.8744451,125.380845 C63.3057342,125.080831 63.9245403,124.930824 64.6746082,124.930824 C64.8058701,124.930824 64.8808769,124.705814 64.8808769,124.255793 C64.8808769,123.955779 64.6746082,123.805772 64.2058157,123.805772 C63.6057614,124.105786 63.0619621,124.255793 62.5181629,124.255793 C61.9931153,124.255793 61.4493161,124.330796 60.83051,124.480803 C60.2304557,124.480803 59.6679047,124.593309 59.1616088,124.818319 C58.6178096,125.04333 58.0552586,125.230838 57.473956,125.380845 C57.6239696,125.380845 57.473956,125.605856 57.0051635,126.055877 C57.1551771,126.055877 57.2301839,126.093378 57.2301839,126.168382 C57.2301839,126.243385 57.3051907,126.280887 57.473956,126.280887 L57.473956,126.280887 Z M63.7745267,7.70035899 C63.4557478,7.70035899 63.2307274,7.66285724 63.0994655,7.58785375 C62.9494519,7.51285025 62.7056799,7.550352 62.4056527,7.70035899 C57.905245,9.20042892 54.2299121,11.5255373 51.3984057,14.6756842 C51.0796268,14.9756982 50.8546064,15.2757122 50.7045928,15.5757261 C50.5733309,15.8757401 50.3295588,16.1757541 50.0295317,16.4757681 L50.0295317,17.3758101 C50.4983241,17.675824 50.7045928,17.6008206 50.7045928,17.1507996 C54.3236706,13.4006247 58.4490443,10.4004849 63.0994655,8.15037997 C63.5307546,8.15037997 63.7745267,8.00037298 63.7745267,7.70035899 C63.7745267,7.550352 63.9245403,7.4753485 64.2058157,7.4753485 C64.2058157,7.32534151 64.1683123,7.21283626 64.0933056,7.13783277 C64.0182988,7.06282927 63.9807954,7.10033102 63.9807954,7.25033801 C63.8495335,7.25033801 63.7745267,7.400345 63.7745267,7.70035899 L63.7745267,7.70035899 Z M29.3464082,113.6803 C28.7463538,113.6803 28.2025546,113.90531 27.7712655,114.355331 L27.7712655,114.805352 C28.2025546,115.105366 28.671347,115.105366 29.1026361,114.805352 L29.7776973,114.130321 L29.3464082,113.6803 Z M31.8216324,116.380426 L27.9775342,116.380426 L27.5274934,116.605436 L27.9775342,117.055457 C29.3464082,117.805492 30.8277924,117.805492 32.4966935,117.055457 C32.777969,117.055457 32.9279826,116.90545 32.9279826,116.605436 L32.9279826,115.930405 C32.9279826,115.630391 32.777969,115.630391 32.4966935,115.930405 C32.3279283,116.080412 32.2154181,116.155415 32.1404113,116.155415 C32.0654045,116.155415 31.9528943,116.230419 31.8216324,116.380426 L31.8216324,116.380426 Z M26.1961228,27.5012821 C26.1961228,27.3512751 26.1023643,27.2762716 25.9523508,27.2762716 L25.5210617,27.2762716 C24.9022556,27.8762996 24.3772081,28.4763276 23.945919,29.0763555 C23.4771266,29.6763835 23.1208443,30.4264185 22.8020654,31.3264604 C22.5020382,32.2265024 22.2582661,33.1640461 22.0144941,34.1390916 C21.7894737,35.114137 21.3019295,35.9766772 20.5518616,36.7267122 C20.2518344,37.0267262 20.1768276,37.4017437 20.3268412,37.8517647 C20.6268684,38.1517786 20.8706405,38.2267821 21.0019023,38.0767751 C21.1519159,37.9267681 21.3769363,37.7767612 21.6957152,37.6267542 C22.1270043,37.3267402 22.3707763,36.9142209 22.3707763,36.3891965 C22.3707763,35.864172 22.5020382,35.4516528 22.8020654,35.1516388 C23.5521333,33.9515828 24.0209258,32.6765234 24.1521877,31.3264604 C24.3022013,29.9763975 24.9772624,28.7763416 26.1961228,27.7262926 L26.1961228,27.5012821 Z M176.040946,62.1528976 C176.040946,64.4030025 176.078449,66.6531074 176.172208,68.9032123 C176.247214,71.1533172 176.190959,73.4034221 176.040946,75.653527 C175.890932,79.1036878 176.172208,82.5163469 176.828517,85.8915043 C177.503578,89.2666616 178.366156,92.6043172 179.435003,95.9044711 C180.016306,98.304583 180.691367,100.629691 181.441435,102.879796 C182.191503,105.129901 182.791557,107.380006 183.26035,109.630111 C183.541625,111.130181 183.766646,112.667753 183.916659,114.242826 C184.085424,115.817899 183.991666,117.430475 183.691639,119.080552 C182.941571,122.380705 181.966482,125.380845 180.766374,128.080971 C177.034786,135.731328 172.534378,143.006667 167.265151,149.906989 C165.915029,151.557066 164.621161,153.282146 163.327294,155.08223 C162.052179,156.882314 160.608298,158.457387 158.939397,159.80745 C153.988948,164.30766 148.363439,165.882733 142.062868,164.532671 C140.43147,164.232657 138.725066,163.932643 136.999909,163.632629 C135.274753,163.332615 133.512093,163.107604 131.730682,162.957597 C130.511822,162.80759 129.27421,162.695085 127.999094,162.620081 C126.723979,162.545078 125.505118,162.507576 124.286258,162.507576 C124.004982,162.507576 123.87372,162.432573 123.967479,162.282566 C124.042486,162.132559 124.079989,161.907548 124.079989,161.607534 C124.361265,159.507436 124.436271,157.407338 124.286258,155.30724 C124.136244,153.207143 123.53619,151.107045 122.504846,149.006947 C121.436,147.056856 119.635837,145.481782 117.085606,144.281726 C115.58547,143.681698 114.122837,143.156674 112.697708,142.706653 C111.272579,142.256632 109.73494,142.181629 108.08479,142.481643 C107.334722,142.031622 106.509648,141.956618 105.609566,142.256632 C104.709485,142.556646 103.88441,142.556646 103.134342,142.256632 C102.384274,141.956618 101.559199,141.844113 100.659118,141.919116 C99.7777878,141.99412 98.8777063,141.956618 97.9588731,141.806611 L92.5771356,141.806611 C91.9770813,141.806611 91.5832956,141.731608 91.433282,141.581601 C91.2832684,141.431594 91.3207718,141.319088 91.5457922,141.244085 C91.7895643,141.169081 91.9020745,140.981573 91.9020745,140.681559 C92.802156,139.481503 93.9085062,138.731468 95.2586285,138.431454 C96.6275025,138.13144 97.9588731,137.831426 99.3089954,137.531412 C101.109158,137.231398 102.928073,137.006387 104.709485,136.85638 C106.509648,136.706373 108.403569,136.481363 110.334994,136.181349 C115.304194,135.731328 119.129541,133.406219 121.811034,129.206024 C122.279826,128.455989 122.861129,128.380985 123.611197,128.981013 C124.661292,129.581041 125.711387,130.106066 126.761482,130.556087 C127.830329,131.006108 128.861672,131.456128 129.911767,131.906149 C132.011958,132.806191 134.093396,133.331216 136.099828,133.481223 C138.143763,133.63123 140.187698,133.781237 142.287888,133.931244 C146.038228,133.931244 149.863575,133.256212 153.78268,131.906149 C158.714376,130.256073 162.539723,127.255933 165.258719,122.90573 C166.440076,120.955639 167.565178,118.968046 168.615273,116.942952 C169.665368,114.917857 170.340429,112.705254 170.640457,110.305142 C170.959235,109.105086 171.203008,107.942532 171.428028,106.81748 C171.6718,105.692427 171.765558,104.529873 171.765558,103.329817 C171.765558,102.129761 171.803062,100.967207 171.878069,99.8421546 C171.953075,98.7171022 171.840565,97.554548 171.55929,96.3544921 C171.240511,94.2543941 171.090497,92.1542962 171.090497,90.0541983 C171.090497,87.9541004 170.959235,85.8540025 170.640457,83.7539046 C170.340429,82.5538487 170.190416,81.3537927 170.190416,80.1537368 C170.190416,78.9536808 170.415436,77.7536249 170.884229,76.5535689 C171.015491,76.2535549 171.090497,75.5785235 171.090497,74.5284745 C170.959235,72.8783976 171.015491,71.1908189 171.315518,69.4657385 C171.634297,67.7406581 171.765558,66.0530794 171.765558,64.4030025 C171.765558,63.6529675 171.915572,62.977936 172.215599,62.3779081 C172.534378,61.7778801 172.590633,61.1028486 172.459371,60.3528137 C172.309358,60.2028067 172.215599,60.0903014 172.215599,60.0152979 C172.215599,59.9402944 172.140592,59.8277892 171.990579,59.6777822 C171.840565,59.6777822 171.634297,59.8277892 171.315518,60.1278032 C170.415436,61.0278451 169.984147,61.8528836 169.984147,62.6029186 C169.815382,63.6529675 169.665368,64.6655147 169.515355,65.6405602 C169.384093,66.6156056 169.234079,67.6281528 169.065314,68.6782018 C168.765287,70.7782997 168.652777,72.8783976 168.727783,74.9784955 C168.80279,77.0785934 168.69028,79.1786913 168.409004,81.2787892 C168.240239,82.4788452 168.127729,83.7164029 168.052722,84.9914623 C167.977715,86.2665217 167.940212,87.5040794 167.940212,88.7041354 C167.940212,90.3542123 168.090226,92.0042892 168.409004,93.6543662 C168.69028,95.3044431 168.9153,96.95452 169.065314,98.604597 C169.234079,100.254674 169.309086,101.792246 169.309086,103.217312 C169.309086,104.642378 169.140321,106.17995 168.840294,107.830027 C168.409004,110.380146 167.640185,112.780258 166.59009,115.030363 C165.539995,117.280468 164.339886,119.455569 163.008515,121.555667 C161.508379,124.105786 159.614458,126.055877 157.364254,127.40594 C155.132802,128.756003 152.638826,129.806052 149.938581,130.556087 C146.338255,131.456128 142.794184,131.643637 139.250113,131.118613 C135.743546,130.593588 132.236978,129.731048 128.786665,128.530992 L127.905336,128.080971 C127.005254,127.480943 126.29269,126.99342 125.74889,126.618403 C125.223843,126.243385 124.830057,125.868368 124.511278,125.493351 C124.211251,125.118333 124.098741,124.63081 124.173748,124.030782 C124.248754,123.430754 124.436271,122.530712 124.75505,121.330656 C125.186339,119.830587 125.448863,118.368018 125.542622,116.942952 C125.617628,115.517885 125.786394,114.055317 126.086421,112.555247 C126.236434,112.255233 126.330193,111.992721 126.330193,111.767711 C126.330193,111.5427 126.4052,111.280188 126.536462,110.980174 C127.005254,109.630111 127.28653,108.242546 127.436543,106.81748 C127.586557,105.392413 127.830329,103.929845 128.111604,102.429775 C128.411631,100.17967 128.524142,97.8920637 128.449135,95.5669553 C128.374128,93.2418469 128.486638,90.9542403 128.786665,88.7041354 C129.086693,86.6040375 129.367968,84.5039396 129.574237,82.4038417 C129.799257,80.3037438 130.061781,78.2036459 130.361808,76.103548 C130.661835,74.00345 130.980614,72.0158574 131.26189,70.14077 C131.561917,68.2656825 131.880696,66.3530934 132.161971,64.4030025 C132.48075,63.3529535 132.687019,62.3779081 132.837032,61.4778661 C132.987046,60.5778241 133.062053,59.6027787 133.062053,58.5527297 C133.062053,57.9527018 132.837032,57.6526878 132.386992,57.6526878 C132.086964,57.6526878 131.936951,57.7276913 131.936951,57.8776983 C131.936951,58.0277053 131.880696,58.1777122 131.730682,58.3277192 C131.111876,59.8277892 130.661835,60.8778381 130.361808,61.4778661 C130.361808,62.0778941 130.155539,62.3779081 129.686747,62.3779081 C129.405472,62.3779081 129.27421,62.2654028 129.367968,62.0403923 C129.442975,61.8153818 129.311713,61.6278731 129.011686,61.4778661 C128.861672,61.3278591 128.786665,61.1778521 128.786665,61.0278451 C128.655404,60.7278311 128.6179,60.4653189 128.692907,60.2403084 C128.767914,60.0152979 128.655404,59.8277892 128.336625,59.6777822 L128.111604,59.6777822 C127.361536,60.1278032 127.155268,60.7278311 127.436543,61.4778661 C127.586557,63.127943 127.62406,64.8155217 127.549053,66.5406021 C127.474047,68.2656825 127.586557,69.9532612 127.905336,71.6033382 C128.186611,72.8033941 128.299121,74.0409518 128.224115,75.3160112 C128.149108,76.5910707 127.980342,77.9036319 127.661564,79.2536948 C127.361536,80.4537508 127.192771,81.5788032 127.117764,82.6288522 C127.042757,83.6789011 126.911496,84.8039536 126.761482,86.0040095 C126.330193,88.2541144 126.123924,90.5417211 126.217683,92.8668295 C126.29269,95.1919379 126.236434,97.554548 126.086421,99.9546599 C125.786394,101.904751 125.542622,103.854842 125.29885,105.804933 C125.073829,107.755024 124.661292,109.705114 124.079989,111.655205 C123.76121,112.555247 123.573693,113.455289 123.498686,114.355331 C123.42368,115.255373 123.311169,116.230419 123.179908,117.280468 C122.861129,119.080552 122.504846,120.843134 122.036054,122.568214 C121.604765,124.293295 120.929704,125.980873 120.029622,127.63095 C117.91068,131.231118 114.760395,133.256212 110.578766,133.706233 C108.909865,134.006247 107.259716,134.193756 105.609566,134.26876 C103.959417,134.343763 102.309267,134.531272 100.659118,134.831286 C99.459009,135.1313 98.277652,135.281307 97.0587916,135.281307 C95.8774346,135.281307 94.6585741,135.056296 93.4772171,134.606275 C93.0084247,134.456268 92.3333635,134.381265 91.433282,134.381265 C89.1830782,134.081251 86.9328744,133.106205 84.6826705,131.456128 C82.4512184,129.806052 81.1573512,127.930964 80.8760757,125.830866 C80.5572969,124.180789 80.238518,122.530712 79.8447323,120.880635 C79.48845,119.230559 79.6572153,117.580482 80.4072833,115.930405 C80.5572969,115.480384 80.6323037,114.655345 80.6323037,113.455289 C80.6323037,110.755163 80.669807,108.092539 80.7448138,105.467417 C80.8198206,102.842295 80.7073104,100.17967 80.4072833,97.4795445 C80.2760214,96.1294816 80.2010146,94.7419169 80.2010146,93.3168504 C80.2010146,91.891784 79.9572425,90.4292158 79.5259534,88.9291459 C79.2071746,88.6291319 79.0946644,88.2541144 79.1696712,87.8040934 C79.244678,87.3540725 79.3009331,86.9040515 79.3009331,86.4540305 L79.3009331,64.628013 C79.3009331,63.727971 79.1696712,62.8654308 78.9446508,62.0403923 C78.7383821,61.2153539 78.5321134,60.4278171 78.3820998,59.6777822 L77.7257904,59.0027507 C77.7257904,59.1527577 77.6695353,59.2652629 77.5945285,59.3402664 C77.5195217,59.4152699 77.4820183,59.5277752 77.4820183,59.6777822 C77.2007428,60.8778381 77.0507292,62.1153958 77.0507292,63.3904553 C77.0507292,64.6655147 76.8819639,65.9030724 76.5819368,67.1031284 C76.3006613,68.7532053 76.2256545,70.4032822 76.3756681,72.0533591 C76.50693,73.7034361 76.4319232,75.353513 76.131896,77.0035899 C75.8318688,78.5036598 75.6818552,79.966228 75.6818552,81.3912945 C75.6818552,82.8163609 75.6256001,84.2789291 75.4755866,85.778999 C75.4755866,89.5291739 75.9068756,93.2043452 76.8069572,96.804513 L76.8069572,98.154576 C76.8069572,100.704695 76.8444605,103.17981 76.938219,105.579922 C77.0132258,107.980034 76.8819639,110.455149 76.5819368,113.005268 C76.4319232,115.105366 76.3756681,117.092959 76.3756681,118.968046 C76.3756681,120.843134 76.3006613,122.755723 76.131896,124.705814 C76.131896,125.455849 76.0193858,126.055877 75.7943654,126.505898 C75.5880967,126.955919 75.4755866,127.480943 75.4755866,128.080971 C75.4755866,128.831006 75.0067941,129.356031 74.1067126,129.656045 C72.4753148,131.006108 70.8251653,131.681139 69.1750159,131.681139 C67.9561554,131.831146 66.8310535,132.056156 65.7809584,132.35617 C64.7308633,132.656184 63.6057614,132.731188 62.4056527,132.581181 L57.6802247,132.581181 C55.730048,132.431174 53.9673884,131.981153 52.3922457,131.231118 C50.817103,130.481083 49.2794637,129.506038 47.7793278,128.305982 C46.8792463,127.555947 46.0541716,126.693406 45.3041036,125.718361 C44.5540357,124.743316 43.8039678,123.730768 43.0538998,122.680719 C41.8537911,121.180649 41.2724885,119.68058 41.2724885,118.18051 C41.2724885,116.380426 41.1224749,114.617843 40.803696,112.892763 C40.5036688,111.167683 40.4474137,109.4051 40.5786756,107.605017 C40.7286892,105.504919 40.6911858,103.329817 40.4849171,101.079712 C40.2598967,98.8296074 40.053628,96.5795025 39.9036145,94.3293976 C39.622339,91.7792788 39.3410635,89.1541564 39.1160431,86.4540305 C38.9097744,83.7539046 38.7035058,81.0537787 38.5534922,78.3536529 C38.5534922,77.6036179 38.4784854,76.7785794 38.3284718,75.8785375 C38.1784582,74.9784955 38.1222031,74.0784535 38.1222031,73.1784116 C38.1222031,70.7782997 38.4034786,68.6782018 39.0035329,66.8781179 C39.3035601,66.4280969 39.3035601,66.0530794 39.0035329,65.7530654 C38.872271,65.7530654 38.4784854,65.9030724 37.8971827,66.2030864 C36.6783223,66.6531074 36.1532748,66.2780899 36.32204,65.0780339 C36.32204,63.27795 35.8532476,61.9278871 34.9719177,61.0278451 C34.8219042,60.8778381 34.5031253,60.8028346 34.0718362,60.8028346 C33.9030709,60.8028346 33.8280641,61.0278451 33.8280641,61.4778661 C34.4281185,63.727971 34.7468974,66.0155776 34.7468974,68.340686 C34.7468974,70.6657944 34.896911,73.0284046 35.1781864,75.4285165 C35.4782136,77.6786214 35.5532204,79.966228 35.4032068,82.2913364 C35.2531932,84.6164448 35.3282,86.9040515 35.6469789,89.1541564 C35.9282544,91.2542543 36.078268,93.2418469 36.078268,95.1169344 C36.078268,96.9920218 36.32204,98.9046109 36.7533291,100.854702 C37.0533563,102.054758 37.1283631,103.329817 36.9783495,104.67988 C36.8283359,106.029943 36.7533291,107.380006 36.7533291,108.730069 C36.9033427,109.330097 36.9783495,109.892623 36.9783495,110.417648 C36.9783495,110.942672 37.0533563,111.580202 37.2221216,112.330237 C37.503397,113.530293 37.503397,114.692847 37.2221216,115.817899 C36.9033427,116.942952 36.5470604,118.030503 36.078268,119.080552 C35.6469789,120.1306 34.7468974,120.655625 33.3967751,120.655625 C31.4278467,120.805632 29.6276837,120.730628 27.9775342,120.430614 C26.3461364,120.1306 24.695987,119.380566 23.0458375,118.18051 C21.0769091,116.830447 19.4267597,115.18037 18.0766374,113.230279 C15.9764471,110.080132 14.2137875,106.81748 12.7886584,103.442322 C11.3635293,100.067165 10.0509104,96.654506 8.8508017,93.2043452 C8.10073376,90.6542263 7.35066582,88.1791109 6.61934958,85.778999 C5.85052994,83.3788871 5.1192137,80.9037717 4.36914576,78.3536529 C3.61907782,74.903492 3.45031253,71.0783137 3.90035329,66.8781179 C4.05036688,64.77802 4.65042123,62.6029186 5.70051635,60.3528137 C6.15055712,59.6027787 6.3005707,59.0027507 6.15055712,58.5527297 C5.70051635,58.2527157 5.40048917,58.1777122 5.26922729,58.3277192 C5.1192137,58.3277192 5.0254552,58.4027227 5.0254552,58.5527297 L5.0254552,59.0027507 C3.37530573,62.0028906 2.550231,65.0030304 2.550231,68.0031703 L2.550231,70.9283067 L2.32521062,71.1533172 C2.04393514,71.1533172 1.87516985,71.0783137 1.87516985,70.9283067 C1.42512909,70.6282927 1.05009512,70.0282647 0.750067941,69.1282228 C0.468792463,67.3281388 0.225020382,65.4905532 0.0750067941,63.6154658 C-0.0750067941,61.7403783 -1.21983794e-15,59.8277892 0.300027176,57.8776983 C0.618806051,56.2276213 1.08759851,54.7650531 1.76265966,53.4899937 C2.43772081,52.2149343 3.15028535,50.9023731 3.90035329,49.5523101 C4.36914576,48.8022752 4.76293142,48.0897419 5.15671709,47.4147105 C5.51299937,46.739679 5.85052994,46.0271458 6.15055712,45.2771108 C7.80070659,42.126964 9.52586285,39.0518206 11.3447776,36.0516807 C13.126189,33.0515409 15.1513724,30.2764115 17.4015762,27.7262926 C21.0019023,23.2260828 25.6523236,19.8509255 31.3528399,17.6008206 C34.8219042,16.2507576 38.2909684,14.9006947 41.8350394,13.5506317 C45.341607,12.2005688 48.9231814,10.7755024 52.5047559,9.27543242 C53.554851,8.82541144 54.6049461,8.37539046 55.6550412,7.92536948 C56.723888,7.4753485 57.7552315,7.02532752 58.8053266,6.57530654 C59.5553945,6.27529255 60.3054625,6.05028206 61.0555304,5.90027507 C61.8055983,5.75026808 62.5556663,5.67526458 63.3057342,5.67526458 C65.4246761,5.82527157 67.5436181,5.86277332 69.7188151,5.78776983 C71.8940121,5.71276633 74.0504575,5.75026808 76.131896,5.90027507 C79.7322221,5.90027507 83.2575414,5.00023311 86.707854,3.20014919 C88.8267959,2.15010024 90.9457378,1.40006527 93.1209349,0.950044291 C95.2961319,0.500023311 97.5838391,0.200009324 99.9840565,0.0500023311 C102.534288,-0.100004662 105.009512,0.0875040794 107.428481,0.612528556 C109.809947,1.13755303 112.303922,1.70007926 114.835402,2.30010723 C116.485551,2.60012122 118.210707,2.93763695 120.029622,3.31265444 C121.811034,3.68767192 123.53619,4.10019115 125.186339,4.55021213 C127.28653,5.00023311 129.442975,5.26274535 131.59942,5.33774885 C133.774617,5.41275234 135.987318,5.3002471 138.237522,5.00023311 C139.43763,4.85022612 140.562732,4.77522262 141.612827,4.77522262 C142.681674,4.77522262 143.788024,4.55021213 145.006885,4.10019115 C145.438174,3.95018416 145.963221,3.87518066 146.582027,3.87518066 C148.663466,4.17519465 150.80116,4.51271038 152.995108,4.88772787 C155.170305,5.26274535 157.289247,5.82527157 159.389437,6.57530654 C162.108434,7.4753485 164.227376,8.93791669 165.802518,10.9630111 C167.377661,12.9881055 168.69028,15.2757122 169.740375,17.825831 C170.959235,20.6759639 171.915572,23.488595 172.66564,26.2637244 C173.415708,29.0388538 174.090769,31.9264884 174.709575,34.9266283 C174.990851,37.0267262 175.328381,39.0518206 175.703415,41.0019115 C176.078449,42.9520024 176.190959,44.9770968 176.040946,47.0771947 L176.040946,62.1528976 Z" id="Fill-1" fill="#CDCDCD" sketch:type="MSShapeGroup" mask="url(#mask-2)"></path>
                </g>
            </g>
        </g>
    </g>
</svg>