<?xml version="1.0" encoding="utf-8"?>
<!-- Generator: Adobe Illustrator 19.0.0, SVG Export Plug-In . SVG Version: 6.00 Build 0)  -->
<svg version="1.1" id="Layer_1" xmlns="http://www.w3.org/2000/svg" xmlns:xlink="http://www.w3.org/1999/xlink" x="0px" y="0px"
	 viewBox="-11 14 13.2 3.6" style="enable-background:new -11 14 13.2 3.6;" xml:space="preserve">
<style type="text/css">
	.st0{clip-path:url(#SVGID_2_);}
	.st1{clip-path:url(#SVGID_4_);}
	.st2{clip-path:url(#SVGID_6_);}
	.st3{clip-path:url(#SVGID_8_);}
	.st4{clip-path:url(#SVGID_10_);}
	.st5{clip-path:url(#SVGID_12_);}
	.st6{clip-path:url(#SVGID_14_);}
	.st7{clip-path:url(#SVGID_16_);}
	.st8{clip-path:url(#SVGID_18_);}
	.st9{clip-path:url(#SVGID_20_);}
	.st10{clip-path:url(#SVGID_22_);}
	.st11{clip-path:url(#SVGID_24_);}
	.st12{clip-path:url(#SVGID_26_);}
	.st13{clip-path:url(#SVGID_28_);}
	.st14{clip-path:url(#SVGID_30_);}
	.st15{clip-path:url(#SVGID_32_);}
	.st16{clip-path:url(#SVGID_34_);}
	.st17{clip-path:url(#SVGID_36_);}
	.st18{clip-path:url(#SVGID_38_);}
	.st19{clip-path:url(#SVGID_40_);}
	.st20{clip-path:url(#SVGID_42_);}
	.st21{clip-path:url(#SVGID_44_);}
	.st22{clip-path:url(#SVGID_46_);}
	.st23{clip-path:url(#SVGID_48_);}
	.st24{clip-path:url(#SVGID_50_);}
	.st25{clip-path:url(#SVGID_52_);}
	.st26{clip-path:url(#SVGID_54_);}
	.st27{clip-path:url(#SVGID_56_);}
	.st28{clip-path:url(#SVGID_58_);}
	.st29{clip-path:url(#SVGID_60_);}
	.st30{fill:none;}
</style>
<g>
	<g>
		<defs>
			<path id="SVGID_1_" d="M-639.2-1680c2.7-9.7,9.6-15.9,18.5-19.2c11.5-4.2,23.2-3.8,34.1,2.5c4.3,2.5,7.2,6.3,8.9,10.9
				c0.8,2.1,1.7,2.3,3.7,1.5c8.5-3.3,16.8-7.1,25.6-9.5c17.1-4.6,33.3-1.8,48,8.2c0.7,0.5,1.7,0.9,1.8,1.5c0.3,1.3,0.5,3-0.2,3.9
				c-0.5,0.7-2.4,0.7-3.6,0.8c-0.4,0-0.9-0.5-1.4-0.9c-15.7-12-32.8-13.4-51-6.9c-6.2,2.2-12.3,4.9-18.5,7.2
				c-1.9,0.7-2.4,1.6-2.4,3.6c0,4.2,0.1,8.5-0.9,12.5c-2.8,11.9-11.4,17.8-23.1,19.9c-3.7,0.7-7.5,0.7-11.3,0.9
				c-2.3,0.1-3.7-1.3-3.6-3.9c0.2-4.6,0.4-9.3,0.7-13.9c0.2-2.4-0.6-2.7-2.9-2.3c-3.5,0.7-7.1,1.3-10.6,1.2c-6-0.2-9.9-3.6-11.5-9.3
				c-0.1-0.4-0.4-0.8-0.6-1.2v-7.5 M-608.3-1658.2c0.1,2.4,0.1,4.8,0.5,7.1c0.1,0.7,1.3,1.8,2,1.8c14.9-0.5,25.1-7.4,25.1-24.2
				c0-2.9-0.5-3.2-3.3-2.1c-5.8,2.3-11.6,4.7-17.4,7C-608.5-1665.7-608.5-1665.7-608.3-1658.2 M-607.9-1684.6c-0.2,0-0.4,0-0.6,0
				c0,3.6,0.1,7.3,0,10.9c-0.1,2.4,0.8,2.8,3,1.9c7.1-2.9,14.1-5.7,21.3-8.4c2.5-0.9,2.6-2.1,1.7-4.3c-3.5-8.2-14.9-14.3-24-12.6
				c-0.5,0.1-1.3,1-1.3,1.5C-608-1691.9-607.9-1688.3-607.9-1684.6 M-613.4-1679.8c-0.3-5.9-0.6-10.2-0.7-14.6c-0.1-2-1-2.2-2.7-1.8
				c-10.7,2.7-17,11.7-15.8,22.5c0.4,3.8,2.2,6.1,6,6.4c3.6,0.2,7.3-0.4,10.9-0.8c1.8-0.2,2.4-1.3,2.3-3
				C-613.5-1674.6-613.4-1677.9-613.4-1679.8"/>
		</defs>
		<clipPath id="SVGID_2_">
			<use xlink:href="#SVGID_1_"  style="overflow:visible;"/>
		</clipPath>
		<g class="st0">
			<g>
				<defs>
					<rect id="SVGID_3_" x="-717.2" y="-1751" width="1440" height="3539"/>
				</defs>
				<clipPath id="SVGID_4_">
					<use xlink:href="#SVGID_3_"  style="overflow:visible;"/>
				</clipPath>
				<rect x="-644.2" y="-1707" class="st1" width="151" height="69"/>
			</g>
		</g>
		<g class="st0">
			<g>
				<defs>
					<path id="SVGID_5_" d="M-474.9-1636c-1.6-0.3-3.2-0.7-4.9-1c-9.2-2-14.9-7.5-16.2-15.7c-1.5-9.7,2.2-17.9,10.3-22.7
						c4-2.3,3.9-2.3,0.4-5.1c-5.7-4.6-8.3-10.5-7-17.8c1.3-7.4,5.7-12.2,12.6-14.8c0.7-0.3,1.4-0.6,2.1-0.9h6.3
						c3.3,1.4,6.8,2.4,9.9,4.2c6.2,3.5,7.6,11,3.5,16.8c-1.4,2-3.3,3.2-5.8,3.1c-4.3-0.2-7.8-2.3-10.6-5.3c-0.7-0.7-0.6-3,0.1-3.9
						c1-1.5,2.7-1.2,4.1,0.1c1.7,1.5,3.4,3.1,5.2,4.4c1.7,1.2,3.3,0.6,4.6-1.1c2.5-3.4,2.3-7.6-1.2-9.8c-5.9-3.9-14.2-5.2-20.6,0.4
						c-6.8,6-6.8,15.5,0,21.4c3.4,3,7.2,5.1,12,3.6c0.7-0.2,1.6-0.4,2.3-0.3c0.8,0.1,1.8,0.5,2.1,1.1c0.3,0.6,0,2.1-0.4,2.3
						c-1.9,0.8-4,2-6,1.9c-12.2-0.4-21.6,12.4-17.4,24c1.5,4.3,4.7,7,8.7,8.8c7,3.1,14,3,21,0.1c3.9-1.6,6.9-4.2,7.5-8.8
						c0.3-1.8,1.6-2.8,3.4-2.5c2,0.4,2.7,1.8,2.3,3.8c-0.8,3.8-2.9,7.1-6.2,8.9c-3.5,2-7.4,3.1-11.1,4.6c-0.7,0.3-1.5,0.4-2.3,0.6
						h-8.7V-1636z"/>
				</defs>
				<clipPath id="SVGID_6_">
					<use xlink:href="#SVGID_5_"  style="overflow:visible;"/>
				</clipPath>
				<g class="st2">
					<g>
						<defs>
							<rect id="SVGID_7_" x="-717.2" y="-1751" width="1440" height="3539"/>
						</defs>
						<clipPath id="SVGID_8_">
							<use xlink:href="#SVGID_7_"  style="overflow:visible;"/>
						</clipPath>
						<rect x="-501.2" y="-1719" class="st3" width="60" height="88"/>
					</g>
				</g>
				<g class="st2">
					<g>
						<defs>
							<path id="SVGID_9_" d="M-321.5-1652.4c-1.6,1.1-2.9,2.1-4.3,3c-5.4,3.2-10.2,2.8-14.8-1.4c-1.3-1.2-1.8-0.8-2.7,0.3
								c-0.9,1.1-2,2.3-3.3,3c-3.6,2.1-7.5,0.6-9.2-3.2c-0.3-0.7-0.7-1.4-1.2-2.5c-1,1.1-1.7,1.8-2.3,2.5c-2.1,2.3-4.5,3.9-7.7,3.1
								c-3.3-0.7-5.1-3.1-5.8-6.2c-1.5-5.9,0.2-11,4.5-15.1c4.4-4.2,8.9-4.5,14.1-1.3c0.4-0.4,0.7-1,1.1-1.3
								c0.7-0.5,1.4-0.9,2.2-1.4c0.3,0.8,0.8,1.7,0.7,2.5c-0.2,3.1-0.8,6.1-0.9,9.1c-0.1,2.4,0,4.9,0.2,7.3c0.1,1.7,1.3,2.3,2.5,1.1
								c2.3-2.2,4.8-4.4,5-8c0.4-6.1,4.5-11.1,10-12.3c5.1-1.2,8.3,1.8,7.2,6.8c-0.4,1.7-1.1,3.4-2.2,4.7c-0.5,0.6-2.1,0.3-3.2,0.4
								c-0.1-1-0.4-2.2-0.1-3.1c0.4-1.2,1.4-2.2,2-3.4c0.2-0.3,0-1.1-0.2-1.3c-0.4-0.3-1.1-0.5-1.6-0.4c-5,1.6-8.2,11.3-5.1,15.5
								c1.4,2,4.1,2.7,7,1.8c3.7-1.2,6.6-3.4,8.7-6.6c0.1-0.2,0.4-0.4,0.4-0.7c0.2-5.1,0.4-10.1,0.5-15.2c0-0.4-0.5-0.9-1-1.1
								c-8.1-4-16.1-8.4-24.4-11.7c-4.1-1.6-9.1-1.6-13.6-1.5c-5,0.1-8.3,3-9.8,7.9c-0.8,2.6-3.1,3.6-4.5,2c-0.8-0.9-1-2.8-0.6-4
								c2-6.7,7.9-10.7,15.6-10.9c9-0.2,17.2,2.6,24.8,7.2c3.7,2.2,7.4,4.5,11.1,6.8c0.6,0.4,1.4,0.6,2.5,1.1
								c0.3-2.4,0.4-4.5,0.7-6.5c0.6-4.3,2-8.2,5.7-10.9c2.2-1.6,4.7-2.6,7.5-1.2c2.8,1.3,4.2,3.8,3.9,6.6
								c-0.4,3.7-1.1,7.5-2.7,10.8c-1.2,2.4-3.8,4.8-6.3,5.6c-3.4,1.1-3.9,2.9-3.8,5.8c0,2.1-0.3,4.2-0.4,6.3c0,0.6,0.4,1.2,0.7,1.8
								c0.6-0.3,1.3-0.5,1.7-0.9c1.3-1.4,2.3-2.9,3.6-4.2c1.2-1.2,2.5-2.5,4-3.4c2.8-1.7,5.3-0.4,5.3,2.8c0,3-0.5,5.9-0.7,8.9
								c-0.1,0.9,0.2,1.7,0.4,2.6c0.8-0.4,1.7-0.8,2.4-1.3c4.6-3.5,7.4-7.8,7.2-13.8c-0.1-1.6,0.5-3.3,0.9-4.9
								c0.4-2.1,1.8-3.1,3.9-2.6c1.9,0.5,2.6,1.9,2.3,3.9c-0.7,3.3-1.5,6.7-2,10c-0.4,3.2-0.3,6.5-0.5,9.7c-0.1,1.9,1.1,2.5,2.5,1.7
								c1.7-0.9,3.4-2,4.6-3.4c3.3-4.2,5.6-8.9,5.9-14.4c0.1-1,0.2-2.1,0.4-3.1c0.3-1.7,1.4-2.7,2.9-2.2c0.9,0.3,2,1.8,2.1,2.8
								c0.2,1.7-0.5,3.5-0.5,5.2c0,1.3,0.3,2.6,0.4,3.9c0.9-1,1.9-1.8,2.7-2.9c0.9-1.2,1.5-2.6,2.4-3.8c1.5-1.9,3.2-3.9,6-2.9
								c2.7,0.9,2.9,3.4,2.7,5.7c-0.2,3.5-0.8,7-1.2,10.4c-0.1,0.8,0.2,1.6,0.3,2.4c0.7-0.3,1.7-0.5,2.2-1c2.5-2.3,4.7-4.5,5.8-8
								c1.3-4.1,4.4-6.9,8.6-8.4c2.6-0.9,5.2-1.1,7.7,0.6c1.3,0.9,1.9,0.6,2.6-0.8c0.3-0.7,1.5-1.1,2.3-1.7c0.4,0.9,1.4,1.9,1.3,2.7
								c-0.4,3.3-1.3,6.5-1.8,9.8c-0.3,1.9-0.4,3.9-0.2,5.8c0.1,1.3,0.9,2.5,1.5,3.7c1.3-0.8,3-1.3,3.7-2.4c3.6-6.2,6.8-12.7,8-19.9
								c1.3-8-2.4-12.6-10.6-12.8c-4.4-0.1-8.8,0.8-13.2,1.5c-9.4,1.4-18.8,3.2-28.2,4.4c-5.6,0.7-11.3,0.4-16.6-1.9
								c-2.9-1.3-5.6-3.3-8-5.4c-0.9-0.8-1.2-2.9-0.9-4.2c0.3-1,2.1-2.3,3.2-2.2c1.3,0.1,3.1,1.2,3.7,2.4c1.7,3.2,4.6,4.4,7.6,5.2
								c7.3,2,14.8,2.2,22.3,1.3c8.6-1,17-2.8,25.6-4.1c2.7-0.4,5.5-0.5,8.3-0.2c6.7,0.6,11.2,5.2,11.3,11.8
								c0.1,3.3-0.2,6.7-1.3,9.8c-1.9,5.4-4.3,10.5-6.8,15.7c-0.8,1.7-2.3,3.2-3.8,4.3c-3.5,2.4-7.5,1.1-9.2-2.8
								c-0.3-0.7-0.9-1.4-1.4-2c-0.6,0.6-1.3,1.1-1.9,1.7c-0.7,0.7-1.3,1.5-2,2.1c-3.9,3.5-8.9,2.6-11.4-1.9
								c-1.5-2.7-1.5-2.7-3.8-0.4c-1.2,1.2-2.4,2.3-3.8,3.3c-3,2.2-5.7,1.1-5.8-2.6c-0.1-2.7,0.3-5.4,0.6-8.1c0.2-1.7,0.5-3.3,0.6-5
								c0-0.7-0.3-1.4-0.5-2.1c-0.7,0.3-1.5,0.5-2,0.9c-4.1,4.1-6.4,9.2-7.9,14.7c-0.2,0.7-0.1,1.5-0.5,2c-0.9,1-1.9,2.6-3,2.7
								s-2.9-1.1-3.4-2.1c-0.9-1.9-1.5-1.9-3.1-0.9c-5.9,3.9-10.2,2.2-12-4.7c-0.2-0.6-0.6-1.1-1-1.7c-0.6,0.3-1.2,0.6-1.7,1
								c-2.1,2-4,4.2-6.3,6c-0.9,0.7-2.9,1.1-3.8,0.7c-0.9-0.5-1.7-2.3-1.6-3.4c0.3-3.4,1.2-6.7,1.8-10.1c0.1-0.7,0.4-1.4,0.4-2.1
								c0-0.6-0.3-1.1-0.4-1.7c-0.6,0.2-1.4,0.3-1.8,0.7c-1.1,1.1-2.2,2.3-3.1,3.6c-2.4,3.4-4.6,6.9-7,10.2
								c-0.6,0.9-1.8,1.4-2.7,2.1c-0.6-0.9-1.2-1.9-1.8-2.8C-320.9-1651.4-321.1-1651.7-321.5-1652.4 M-356.8-1665.8
								c-0.3-0.7-0.6-2.2-1.3-2.5c-0.9-0.3-2.6,0-3.3,0.7c-3.6,3.6-5.7,8-6.1,13c-0.1,0.9,0.6,2.5,1.3,2.7c0.8,0.3,2.3-0.3,3-1
								C-359.7-1656.3-357.9-1660.6-356.8-1665.8 M-231.8-1666c-0.4-0.7-0.7-2.1-1.4-2.3c-0.9-0.3-2.5,0-3.1,0.7
								c-3.7,3.7-6,8.2-6.2,13.5c0,0.8,0.6,2.1,1.2,2.3c0.8,0.2,2.2-0.1,2.8-0.7C-234.6-1656.1-232.8-1660.7-231.8-1666
								 M-314.7-1680.2c0.1,0,0.2,0,0.3,0.1c0,0.3-0.1,0.7,0,1c0.2,1,0.4,1.9,0.6,2.9c1-0.5,2.1-0.7,2.9-1.4c3.3-3,4-7.1,4.1-11.2
								c0-1.3-0.9-2.7-1.3-4c-1.3,0.9-2.7,1.7-3.9,2.6c-0.4,0.3-0.7,1-0.8,1.6C-313.6-1685.8-314.2-1683-314.7-1680.2"/>
						</defs>
						<clipPath id="SVGID_10_">
							<use xlink:href="#SVGID_9_"  style="overflow:visible;"/>
						</clipPath>
						<g class="st4">
							<g>
								<defs>
									<rect id="SVGID_11_" x="-717.2" y="-1751" width="1440" height="3539"/>
								</defs>
								<clipPath id="SVGID_12_">
									<use xlink:href="#SVGID_11_"  style="overflow:visible;"/>
								</clipPath>
								<rect x="-379.2" y="-1703" class="st5" width="175" height="62"/>
							</g>
						</g>
						<g class="st4">
							<g>
								<defs>
									<path id="SVGID_13_" d="M-411.5-1663.8c0.3,5.2,0.5,10.3,0.8,15.5c0.1,2.9-1.1,4.5-3.3,4.5c-2.2,0-3.5-1.7-3.2-4.6
										c1.9-16.8,1.8-33.7,0.5-50.5c-0.2-1.9-0.2-3.8,2.2-4.2c2.2-0.4,2.9,1.3,3.5,3c3.4,9.4,6.8,18.8,10.2,28.1
										c0.3,0.9,1.2,1.6,1.8,2.4c0.6-0.8,1.3-1.6,1.7-2.5c3.8-10.2,7.6-20.4,11.4-30.6c0.2-0.6,0.3-1.4,0.7-1.7
										c0.8-0.7,1.9-1.2,2.9-1.8c0.5,0.9,1.4,1.9,1.4,2.8c-0.1,10.9-0.6,21.7-0.6,32.6c0,7.2,0.8,14.4,1.1,21.6
										c0.1,2.4,1,4.3,2.8,5.8c0.9,0.7,1.8,1.7,2.1,2.7c0.3,1.1,0.4,3-0.3,3.6c-0.9,0.7-2.9,1.1-3.9,0.6c-1.5-0.8-3-2.2-3.5-3.7
										c-1.1-3.3-2-6.9-2.2-10.4c-0.5-9-0.5-18-0.8-27c0-0.9,0.1-1.8-0.1-2.7c-0.1-0.6-0.6-1.1-1-1.7c-0.5,0.5-1.2,0.8-1.4,1.4
										c-1.2,3.5-2.3,7.1-3.4,10.7c-1,3.2-2,6.5-3,9.7c-0.6,1.8-1.7,3-3.7,2.7c-1.9-0.3-2.5-1.7-3-3.5c-1.2-4.5-2.8-9-4.4-13.4
										c-0.8-2.4-1.8-4.6-2.9-6.9c-0.3-0.6-1-1-1.5-1.6c-0.3,0.7-0.8,1.3-0.8,2c-0.1,5.1,0,10.2,0,15.3c0,0.5,0,1.1,0,1.6
										C-411.4-1663.8-411.4-1663.8-411.5-1663.8"/>
								</defs>
								<clipPath id="SVGID_14_">
									<use xlink:href="#SVGID_13_"  style="overflow:visible;"/>
								</clipPath>
								<g class="st6">
									<g>
										<defs>
											<rect id="SVGID_15_" x="-717.2" y="-1751" width="1440" height="3539"/>
										</defs>
										<clipPath id="SVGID_16_">
											<use xlink:href="#SVGID_15_"  style="overflow:visible;"/>
										</clipPath>
										<rect x="-422.2" y="-1711" class="st7" width="52" height="80"/>
									</g>
								</g>
								<g class="st6">
									<g>
										<defs>
											<path id="SVGID_17_" d="M-442.8-1671.4c-4.1,3.7-7.7,7.1-11.5,10.3c-3.3,2.8-6.7,5.5-10.3,8c-1.5,1.1-3.4,1.7-5.2,2
												c-2.3,0.5-4.3-1.3-4.5-3.6c-0.2-2.2,1.4-3.8,3.6-4.4c3-0.8,6.2-1.5,8.7-3.1c5.4-3.6,10.4-7.8,15.6-11.7
												c1.4-1.1,1.5-2.1,0.4-3.4c-1.3-1.6-2.8-3.2-3.8-5c-0.6-1.2-0.9-2.9-0.5-4.2c0.2-0.8,2.2-1.7,3-1.4
												c1.1,0.3,2.3,1.6,2.9,2.7c0.8,1.5,1.1,3.3,1.7,4.9c0.6,1.7,1.5,1.9,2.8,0.6c2.1-2.1,4.2-4.3,6.5-6.2
												c0.8-0.6,2.5-1.1,3.1-0.7c1.5,1.1,0.5,2.4-0.5,3.4c-2.4,2.3-4.8,4.7-7.2,7c-1,1-1.3,1.8-0.3,3c2.8,3.6,5.4,7.3,8.3,10.8
												c2.8,3.4,4.8,3.4,8.1,0.5c0.4-0.4,1.3-0.7,1.6-0.5c0.5,0.3,1.1,1.4,0.9,1.7c-0.9,1.6-1.8,3.5-3.2,4.4
												c-3.2,1.8-6.9,1.9-9.5-0.9c-3.3-3.5-6.1-7.6-9.1-11.4C-441.7-1669.5-442.1-1670.3-442.8-1671.4"/>
										</defs>
										<clipPath id="SVGID_18_">
											<use xlink:href="#SVGID_17_"  style="overflow:visible;"/>
										</clipPath>
										<g class="st8">
											<g>
												<defs>
													<rect id="SVGID_19_" x="-717.2" y="-1751" width="1440" height="3539"/>
												</defs>
												<clipPath id="SVGID_20_">
													<use xlink:href="#SVGID_19_"  style="overflow:visible;"/>
												</clipPath>
												<rect x="-479.2" y="-1693" class="st9" width="65" height="47"/>
											</g>
										</g>
										<g class="st8">
											<g>
												<defs>
													<path id="SVGID_21_" d="M-551.6-1651c-0.9,1.2-1.6,2.7-2.7,3.7c-5.8,5.1-13.3,4.1-17.4-2.4c-1-1.6-1.6-3.7-1.6-5.6
														c0.1-4.8,1.3-9.3,3.8-13.4c2.3-3.7,5.5-5.1,8.7-4c3.1,1,5,4.3,5,8.5c0,4.1-1.7,6.3-5.8,7.3c-1.5,0.4-3.1,0.5-4.7,0.7
														c-2,0.3-2.5,1.3-1.6,3.1c1.7,3.4,5.3,4.6,8.8,3c7-3.2,10.7-10.5,9.2-18.2c-0.1-0.4-0.2-0.9-0.3-1.3
														c-0.1-1.7,0.5-2.9,2.2-3.2c1.8-0.3,3.2,0.5,3.2,2.3c0.1,3.6-0.1,7.2-0.3,10.8c-0.1,2.9-0.3,5.9-0.5,8.8
														c0.3,0.2,0.6,0.3,0.8,0.5c1.2-0.8,2.6-1.3,3.6-2.3c3.7-3.8,6.1-8.4,6.9-13.8c0.2-1.1,0.1-2.3,0.6-3.2
														c0.6-1,1.7-1.6,2.6-2.4c0.6,1.1,1.7,2.1,1.7,3.2c0,2.9-0.7,5.8-0.8,8.7c-0.1,3.1,0,6.2,0.3,9.2
														c0.3,2.4,1.6,2.9,3.2,1.2c2.4-2.6,4.8-5.4,6.6-8.4c2.1-3.6,3.5-7.7,5.4-11.5c0.5-0.9,1.5-2.1,2.3-2.1s1.9,1.2,2.3,2.1
														c2.5,5.4,4.2,10.9,4.6,16.9c0,0.6,0.4,1.3,0.7,1.9c0.6-0.3,1.4-0.5,1.7-1c1.4-2.2,2.5-4.6,4-6.7
														c0.5-0.8,1.8-1.9,2.4-1.7c1.6,0.4,1.4,1.8,0.8,3.1c-4.1,9.5-9,12.2-16.5,12.9c-2.8,0.3-5.8-1.3-8.5-2.4
														c-1.2-0.5-1.8-0.8-3,0.2c-4.7,3.9-8.4,2.8-10.5-3.2c-0.7-2.1-1.4-2-2.9-0.6c-1.9,1.8-4.1,3.5-6.5,4.5
														c-3.3,1.4-4.8,0.4-6.2-3c-0.2-0.5-0.5-0.9-0.8-1.4C-550.8-1650.5-551.2-1650.7-551.6-1651 M-512.7-1662.8
														c-0.3-0.1-0.6-0.2-0.9-0.3c-1.4,2.4-2.8,4.8-4.2,7.3c-2.7,4.9-2,6.2,3.7,6.5c0.7,0,1.5,0.2,2.1,0
														c0.5-0.1,1.2-0.7,1.3-1.1C-510.1-1654.7-510.9-1658.9-512.7-1662.8 M-559-1664.2c-1-1.4-1.6-3.3-2.9-4
														c-2-1-3.1,1.1-3.9,2.7c-0.7,1.4-1.2,3-1.6,4.5c-0.1,0.5,0.2,1.6,0.6,1.8C-564.6-1657.9-559.5-1661.3-559-1664.2"/>
												</defs>
												<clipPath id="SVGID_22_">
													<use xlink:href="#SVGID_21_"  style="overflow:visible;"/>
												</clipPath>
												<g class="st10">
													<g>
														<defs>
															<rect id="SVGID_23_" x="-717.2" y="-1751" width="1440" height="3539"/>
														</defs>
														<clipPath id="SVGID_24_">
															<use xlink:href="#SVGID_23_"  style="overflow:visible;"/>
														</clipPath>
														<rect x="-578.2" y="-1678" class="st11" width="88" height="39"/>
													</g>
												</g>
												<g class="st10">
													<g>
														<defs>
															<path id="SVGID_25_" d="M-639.2-1680c2.7-9.7,9.6-15.9,18.5-19.2c11.5-4.2,23.2-3.8,34.1,2.5
																c4.3,2.5,7.2,6.3,8.9,10.9c0.8,2.1,1.7,2.3,3.7,1.5c8.5-3.3,16.8-7.1,25.6-9.5c17.1-4.6,33.3-1.8,48,8.2
																c0.7,0.5,1.7,0.9,1.8,1.5c0.3,1.3,0.5,3-0.2,3.9c-0.5,0.7-2.4,0.7-3.6,0.8c-0.4,0-0.9-0.5-1.4-0.9
																c-15.7-12-32.8-13.4-51-6.9c-6.2,2.2-12.3,4.9-18.5,7.2c-1.9,0.7-2.4,1.6-2.4,3.6c0,4.2,0.1,8.5-0.9,12.5
																c-2.8,11.9-11.4,17.8-23.1,19.9c-3.7,0.7-7.5,0.7-11.3,0.9c-2.3,0.1-3.7-1.3-3.6-3.9c0.2-4.6,0.4-9.3,0.7-13.9
																c0.2-2.4-0.6-2.7-2.9-2.3c-3.5,0.7-7.1,1.3-10.6,1.2c-6-0.2-9.9-3.6-11.5-9.3c-0.1-0.4-0.4-0.8-0.6-1.2v-7.5
																 M-608.3-1658.2c0.1,2.4,0.1,4.8,0.5,7.1c0.1,0.7,1.3,1.8,2,1.8c14.9-0.5,25.1-7.4,25.1-24.2c0-2.9-0.5-3.2-3.3-2.1
																c-5.8,2.3-11.6,4.7-17.4,7C-608.5-1665.7-608.5-1665.7-608.3-1658.2 M-607.9-1684.6c-0.2,0-0.4,0-0.6,0
																c0,3.6,0.1,7.3,0,10.9c-0.1,2.4,0.8,2.8,3,1.9c7.1-2.9,14.1-5.7,21.3-8.4c2.5-0.9,2.6-2.1,1.7-4.3
																c-3.5-8.2-14.9-14.3-24-12.6c-0.5,0.1-1.3,1-1.3,1.5C-608-1691.9-607.9-1688.3-607.9-1684.6 M-613.4-1679.8
																c-0.3-5.9-0.6-10.2-0.7-14.6c-0.1-2-1-2.2-2.7-1.8c-10.7,2.7-17,11.7-15.8,22.5c0.4,3.8,2.2,6.1,6,6.4
																c3.6,0.2,7.3-0.4,10.9-0.8c1.8-0.2,2.4-1.3,2.3-3C-613.5-1674.6-613.4-1677.9-613.4-1679.8"/>
														</defs>
														<clipPath id="SVGID_26_">
															<use xlink:href="#SVGID_25_"  style="overflow:visible;"/>
														</clipPath>
														<g class="st12">
															<g>
																<defs>
																	<rect id="SVGID_27_" x="-717.2" y="-1751" width="1440" height="3539"/>
																</defs>
																<clipPath id="SVGID_28_">
																	<use xlink:href="#SVGID_27_"  style="overflow:visible;"/>
																</clipPath>
																<rect x="-644.2" y="-1707" class="st13" width="151" height="69"/>
															</g>
														</g>
														<g class="st12">
															<g>
																<defs>
																	<path id="SVGID_29_" d="M-474.9-1636c-1.6-0.3-3.2-0.7-4.9-1c-9.2-2-14.9-7.5-16.2-15.7
																		c-1.5-9.7,2.2-17.9,10.3-22.7c4-2.3,3.9-2.3,0.4-5.1c-5.7-4.6-8.3-10.5-7-17.8c1.3-7.4,5.7-12.2,12.6-14.8
																		c0.7-0.3,1.4-0.6,2.1-0.9h6.3c3.3,1.4,6.8,2.4,9.9,4.2c6.2,3.5,7.6,11,3.5,16.8c-1.4,2-3.3,3.2-5.8,3.1
																		c-4.3-0.2-7.8-2.3-10.6-5.3c-0.7-0.7-0.6-3,0.1-3.9c1-1.5,2.7-1.2,4.1,0.1c1.7,1.5,3.4,3.1,5.2,4.4
																		c1.7,1.2,3.3,0.6,4.6-1.1c2.5-3.4,2.3-7.6-1.2-9.8c-5.9-3.9-14.2-5.2-20.6,0.4c-6.8,6-6.8,15.5,0,21.4
																		c3.4,3,7.2,5.1,12,3.6c0.7-0.2,1.6-0.4,2.3-0.3c0.8,0.1,1.8,0.5,2.1,1.1c0.3,0.6,0,2.1-0.4,2.3c-1.9,0.8-4,2-6,1.9
																		c-12.2-0.4-21.6,12.4-17.4,24c1.5,4.3,4.7,7,8.7,8.8c7,3.1,14,3,21,0.1c3.9-1.6,6.9-4.2,7.5-8.8
																		c0.3-1.8,1.6-2.8,3.4-2.5c2,0.4,2.7,1.8,2.3,3.8c-0.8,3.8-2.9,7.1-6.2,8.9c-3.5,2-7.4,3.1-11.1,4.6
																		c-0.7,0.3-1.5,0.4-2.3,0.6h-8.7V-1636z"/>
																</defs>
																<clipPath id="SVGID_30_">
																	<use xlink:href="#SVGID_29_"  style="overflow:visible;"/>
																</clipPath>
																<g class="st14">
																	<g>
																		<defs>
																			<rect id="SVGID_31_" x="-717.2" y="-1751" width="1440" height="3539"/>
																		</defs>
																		<clipPath id="SVGID_32_">
																			<use xlink:href="#SVGID_31_"  style="overflow:visible;"/>
																		</clipPath>
																		<rect x="-501.2" y="-1719" class="st15" width="60" height="88"/>
																	</g>
																</g>
																<g class="st14">
																	<g>
																		<defs>
																			<path id="SVGID_33_" d="M-321.5-1652.4c-1.6,1.1-2.9,2.1-4.3,3c-5.4,3.2-10.2,2.8-14.8-1.4
																				c-1.3-1.2-1.8-0.8-2.7,0.3c-0.9,1.1-2,2.3-3.3,3c-3.6,2.1-7.5,0.6-9.2-3.2c-0.3-0.7-0.7-1.4-1.2-2.5
																				c-1,1.1-1.7,1.8-2.3,2.5c-2.1,2.3-4.5,3.9-7.7,3.1c-3.3-0.7-5.1-3.1-5.8-6.2c-1.5-5.9,0.2-11,4.5-15.1
																				c4.4-4.2,8.9-4.5,14.1-1.3c0.4-0.4,0.7-1,1.1-1.3c0.7-0.5,1.4-0.9,2.2-1.4c0.3,0.8,0.8,1.7,0.7,2.5
																				c-0.2,3.1-0.8,6.1-0.9,9.1c-0.1,2.4,0,4.9,0.2,7.3c0.1,1.7,1.3,2.3,2.5,1.1c2.3-2.2,4.8-4.4,5-8
																				c0.4-6.1,4.5-11.1,10-12.3c5.1-1.2,8.3,1.8,7.2,6.8c-0.4,1.7-1.1,3.4-2.2,4.7c-0.5,0.6-2.1,0.3-3.2,0.4
																				c-0.1-1-0.4-2.2-0.1-3.1c0.4-1.2,1.4-2.2,2-3.4c0.2-0.3,0-1.1-0.2-1.3c-0.4-0.3-1.1-0.5-1.6-0.4
																				c-5,1.6-8.2,11.3-5.1,15.5c1.4,2,4.1,2.7,7,1.8c3.7-1.2,6.6-3.4,8.7-6.6c0.1-0.2,0.4-0.4,0.4-0.7
																				c0.2-5.1,0.4-10.1,0.5-15.2c0-0.4-0.5-0.9-1-1.1c-8.1-4-16.1-8.4-24.4-11.7c-4.1-1.6-9.1-1.6-13.6-1.5
																				c-5,0.1-8.3,3-9.8,7.9c-0.8,2.6-3.1,3.6-4.5,2c-0.8-0.9-1-2.8-0.6-4c2-6.7,7.9-10.7,15.6-10.9
																				c9-0.2,17.2,2.6,24.8,7.2c3.7,2.2,7.4,4.5,11.1,6.8c0.6,0.4,1.4,0.6,2.5,1.1c0.3-2.4,0.4-4.5,0.7-6.5
																				c0.6-4.3,2-8.2,5.7-10.9c2.2-1.6,4.7-2.6,7.5-1.2c2.8,1.3,4.2,3.8,3.9,6.6c-0.4,3.7-1.1,7.5-2.7,10.8
																				c-1.2,2.4-3.8,4.8-6.3,5.6c-3.4,1.1-3.9,2.9-3.8,5.8c0,2.1-0.3,4.2-0.4,6.3c0,0.6,0.4,1.2,0.7,1.8
																				c0.6-0.3,1.3-0.5,1.7-0.9c1.3-1.4,2.3-2.9,3.6-4.2c1.2-1.2,2.5-2.5,4-3.4c2.8-1.7,5.3-0.4,5.3,2.8
																				c0,3-0.5,5.9-0.7,8.9c-0.1,0.9,0.2,1.7,0.4,2.6c0.8-0.4,1.7-0.8,2.4-1.3c4.6-3.5,7.4-7.8,7.2-13.8
																				c-0.1-1.6,0.5-3.3,0.9-4.9c0.4-2.1,1.8-3.1,3.9-2.6c1.9,0.5,2.6,1.9,2.3,3.9c-0.7,3.3-1.5,6.7-2,10
																				c-0.4,3.2-0.3,6.5-0.5,9.7c-0.1,1.9,1.1,2.5,2.5,1.7c1.7-0.9,3.4-2,4.6-3.4c3.3-4.2,5.6-8.9,5.9-14.4
																				c0.1-1,0.2-2.1,0.4-3.1c0.3-1.7,1.4-2.7,2.9-2.2c0.9,0.3,2,1.8,2.1,2.8c0.2,1.7-0.5,3.5-0.5,5.2
																				c0,1.3,0.3,2.6,0.4,3.9c0.9-1,1.9-1.8,2.7-2.9c0.9-1.2,1.5-2.6,2.4-3.8c1.5-1.9,3.2-3.9,6-2.9
																				c2.7,0.9,2.9,3.4,2.7,5.7c-0.2,3.5-0.8,7-1.2,10.4c-0.1,0.8,0.2,1.6,0.3,2.4c0.7-0.3,1.7-0.5,2.2-1
																				c2.5-2.3,4.7-4.5,5.8-8c1.3-4.1,4.4-6.9,8.6-8.4c2.6-0.9,5.2-1.1,7.7,0.6c1.3,0.9,1.9,0.6,2.6-0.8
																				c0.3-0.7,1.5-1.1,2.3-1.7c0.4,0.9,1.4,1.9,1.3,2.7c-0.4,3.3-1.3,6.5-1.8,9.8c-0.3,1.9-0.4,3.9-0.2,5.8
																				c0.1,1.3,0.9,2.5,1.5,3.7c1.3-0.8,3-1.3,3.7-2.4c3.6-6.2,6.8-12.7,8-19.9c1.3-8-2.4-12.6-10.6-12.8
																				c-4.4-0.1-8.8,0.8-13.2,1.5c-9.4,1.4-18.8,3.2-28.2,4.4c-5.6,0.7-11.3,0.4-16.6-1.9c-2.9-1.3-5.6-3.3-8-5.4
																				c-0.9-0.8-1.2-2.9-0.9-4.2c0.3-1,2.1-2.3,3.2-2.2c1.3,0.1,3.1,1.2,3.7,2.4c1.7,3.2,4.6,4.4,7.6,5.2
																				c7.3,2,14.8,2.2,22.3,1.3c8.6-1,17-2.8,25.6-4.1c2.7-0.4,5.5-0.5,8.3-0.2c6.7,0.6,11.2,5.2,11.3,11.8
																				c0.1,3.3-0.2,6.7-1.3,9.8c-1.9,5.4-4.3,10.5-6.8,15.7c-0.8,1.7-2.3,3.2-3.8,4.3c-3.5,2.4-7.5,1.1-9.2-2.8
																				c-0.3-0.7-0.9-1.4-1.4-2c-0.6,0.6-1.3,1.1-1.9,1.7c-0.7,0.7-1.3,1.5-2,2.1c-3.9,3.5-8.9,2.6-11.4-1.9
																				c-1.5-2.7-1.5-2.7-3.8-0.4c-1.2,1.2-2.4,2.3-3.8,3.3c-3,2.2-5.7,1.1-5.8-2.6c-0.1-2.7,0.3-5.4,0.6-8.1
																				c0.2-1.7,0.5-3.3,0.6-5c0-0.7-0.3-1.4-0.5-2.1c-0.7,0.3-1.5,0.5-2,0.9c-4.1,4.1-6.4,9.2-7.9,14.7
																				c-0.2,0.7-0.1,1.5-0.5,2c-0.9,1-1.9,2.6-3,2.7s-2.9-1.1-3.4-2.1c-0.9-1.9-1.5-1.9-3.1-0.9
																				c-5.9,3.9-10.2,2.2-12-4.7c-0.2-0.6-0.6-1.1-1-1.7c-0.6,0.3-1.2,0.6-1.7,1c-2.1,2-4,4.2-6.3,6
																				c-0.9,0.7-2.9,1.1-3.8,0.7c-0.9-0.5-1.7-2.3-1.6-3.4c0.3-3.4,1.2-6.7,1.8-10.1c0.1-0.7,0.4-1.4,0.4-2.1
																				c0-0.6-0.3-1.1-0.4-1.7c-0.6,0.2-1.4,0.3-1.8,0.7c-1.1,1.1-2.2,2.3-3.1,3.6c-2.4,3.4-4.6,6.9-7,10.2
																				c-0.6,0.9-1.8,1.4-2.7,2.1c-0.6-0.9-1.2-1.9-1.8-2.8C-320.9-1651.4-321.1-1651.7-321.5-1652.4 M-356.8-1665.8
																				c-0.3-0.7-0.6-2.2-1.3-2.5c-0.9-0.3-2.6,0-3.3,0.7c-3.6,3.6-5.7,8-6.1,13c-0.1,0.9,0.6,2.5,1.3,2.7
																				c0.8,0.3,2.3-0.3,3-1C-359.7-1656.3-357.9-1660.6-356.8-1665.8 M-231.8-1666c-0.4-0.7-0.7-2.1-1.4-2.3
																				c-0.9-0.3-2.5,0-3.1,0.7c-3.7,3.7-6,8.2-6.2,13.5c0,0.8,0.6,2.1,1.2,2.3c0.8,0.2,2.2-0.1,2.8-0.7
																				C-234.6-1656.1-232.8-1660.7-231.8-1666 M-314.7-1680.2c0.1,0,0.2,0,0.3,0.1c0,0.3-0.1,0.7,0,1
																				c0.2,1,0.4,1.9,0.6,2.9c1-0.5,2.1-0.7,2.9-1.4c3.3-3,4-7.1,4.1-11.2c0-1.3-0.9-2.7-1.3-4
																				c-1.3,0.9-2.7,1.7-3.9,2.6c-0.4,0.3-0.7,1-0.8,1.6C-313.6-1685.8-314.2-1683-314.7-1680.2"/>
																		</defs>
																		<clipPath id="SVGID_34_">
																			<use xlink:href="#SVGID_33_"  style="overflow:visible;"/>
																		</clipPath>
																		<g class="st16">
																			<g>
																				<defs>
																					<rect id="SVGID_35_" x="-717.2" y="-1751" width="1440" height="3539"/>
																				</defs>
																				<clipPath id="SVGID_36_">
																					<use xlink:href="#SVGID_35_"  style="overflow:visible;"/>
																				</clipPath>
																				<rect x="-379.2" y="-1703" class="st17" width="175" height="62"/>
																			</g>
																		</g>
																		<g class="st16">
																			<g>
																				<defs>
																					<path id="SVGID_37_" d="M-411.5-1663.8c0.3,5.2,0.5,10.3,0.8,15.5c0.1,2.9-1.1,4.5-3.3,4.5
																						c-2.2,0-3.5-1.7-3.2-4.6c1.9-16.8,1.8-33.7,0.5-50.5c-0.2-1.9-0.2-3.8,2.2-4.2c2.2-0.4,2.9,1.3,3.5,3
																						c3.4,9.4,6.8,18.8,10.2,28.1c0.3,0.9,1.2,1.6,1.8,2.4c0.6-0.8,1.3-1.6,1.7-2.5c3.8-10.2,7.6-20.4,11.4-30.6
																						c0.2-0.6,0.3-1.4,0.7-1.7c0.8-0.7,1.9-1.2,2.9-1.8c0.5,0.9,1.4,1.9,1.4,2.8c-0.1,10.9-0.6,21.7-0.6,32.6
																						c0,7.2,0.8,14.4,1.1,21.6c0.1,2.4,1,4.3,2.8,5.8c0.9,0.7,1.8,1.7,2.1,2.7c0.3,1.1,0.4,3-0.3,3.6
																						c-0.9,0.7-2.9,1.1-3.9,0.6c-1.5-0.8-3-2.2-3.5-3.7c-1.1-3.3-2-6.9-2.2-10.4c-0.5-9-0.5-18-0.8-27
																						c0-0.9,0.1-1.8-0.1-2.7c-0.1-0.6-0.6-1.1-1-1.7c-0.5,0.5-1.2,0.8-1.4,1.4c-1.2,3.5-2.3,7.1-3.4,10.7
																						c-1,3.2-2,6.5-3,9.7c-0.6,1.8-1.7,3-3.7,2.7c-1.9-0.3-2.5-1.7-3-3.5c-1.2-4.5-2.8-9-4.4-13.4
																						c-0.8-2.4-1.8-4.6-2.9-6.9c-0.3-0.6-1-1-1.5-1.6c-0.3,0.7-0.8,1.3-0.8,2c-0.1,5.1,0,10.2,0,15.3
																						c0,0.5,0,1.1,0,1.6C-411.4-1663.8-411.4-1663.8-411.5-1663.8"/>
																				</defs>
																				<clipPath id="SVGID_38_">
																					<use xlink:href="#SVGID_37_"  style="overflow:visible;"/>
																				</clipPath>
																				<g class="st18">
																					<g>
																						<defs>
																							<rect id="SVGID_39_" x="-717.2" y="-1751" width="1440" height="3539"/>
																						</defs>
																						<clipPath id="SVGID_40_">
																							<use xlink:href="#SVGID_39_"  style="overflow:visible;"/>
																						</clipPath>
																						<rect x="-422.2" y="-1711" class="st19" width="52" height="80"/>
																					</g>
																				</g>
																				<g class="st18">
																					<g>
																						<defs>
																							<path id="SVGID_41_" d="M-442.8-1671.4c-4.1,3.7-7.7,7.1-11.5,10.3c-3.3,2.8-6.7,5.5-10.3,8
																								c-1.5,1.1-3.4,1.7-5.2,2c-2.3,0.5-4.3-1.3-4.5-3.6c-0.2-2.2,1.4-3.8,3.6-4.4c3-0.8,6.2-1.5,8.7-3.1
																								c5.4-3.6,10.4-7.8,15.6-11.7c1.4-1.1,1.5-2.1,0.4-3.4c-1.3-1.6-2.8-3.2-3.8-5c-0.6-1.2-0.9-2.9-0.5-4.2
																								c0.2-0.8,2.2-1.7,3-1.4c1.1,0.3,2.3,1.6,2.9,2.7c0.8,1.5,1.1,3.3,1.7,4.9c0.6,1.7,1.5,1.9,2.8,0.6
																								c2.1-2.1,4.2-4.3,6.5-6.2c0.8-0.6,2.5-1.1,3.1-0.7c1.5,1.1,0.5,2.4-0.5,3.4c-2.4,2.3-4.8,4.7-7.2,7
																								c-1,1-1.3,1.8-0.3,3c2.8,3.6,5.4,7.3,8.3,10.8c2.8,3.4,4.8,3.4,8.1,0.5c0.4-0.4,1.3-0.7,1.6-0.5
																								c0.5,0.3,1.1,1.4,0.9,1.7c-0.9,1.6-1.8,3.5-3.2,4.4c-3.2,1.8-6.9,1.9-9.5-0.9c-3.3-3.5-6.1-7.6-9.1-11.4
																								C-441.7-1669.5-442.1-1670.3-442.8-1671.4"/>
																						</defs>
																						<clipPath id="SVGID_42_">
																							<use xlink:href="#SVGID_41_"  style="overflow:visible;"/>
																						</clipPath>
																						<g class="st20">
																							<g>
																								<defs>
																									<rect id="SVGID_43_" x="-717.2" y="-1751" width="1440" height="3539"/>
																								</defs>
																								<clipPath id="SVGID_44_">
																									<use xlink:href="#SVGID_43_"  style="overflow:visible;"/>
																								</clipPath>
																								<rect x="-479.2" y="-1693" class="st21" width="65" height="47"/>
																							</g>
																						</g>
																						<g class="st20">
																							<g>
																								<defs>
																									<path id="SVGID_45_" d="M-551.6-1651c-0.9,1.2-1.6,2.7-2.7,3.7c-5.8,5.1-13.3,4.1-17.4-2.4
																										c-1-1.6-1.6-3.7-1.6-5.6c0.1-4.8,1.3-9.3,3.8-13.4c2.3-3.7,5.5-5.1,8.7-4c3.1,1,5,4.3,5,8.5
																										c0,4.1-1.7,6.3-5.8,7.3c-1.5,0.4-3.1,0.5-4.7,0.7c-2,0.3-2.5,1.3-1.6,3.1c1.7,3.4,5.3,4.6,8.8,3
																										c7-3.2,10.7-10.5,9.2-18.2c-0.1-0.4-0.2-0.9-0.3-1.3c-0.1-1.7,0.5-2.9,2.2-3.2c1.8-0.3,3.2,0.5,3.2,2.3
																										c0.1,3.6-0.1,7.2-0.3,10.8c-0.1,2.9-0.3,5.9-0.5,8.8c0.3,0.2,0.6,0.3,0.8,0.5c1.2-0.8,2.6-1.3,3.6-2.3
																										c3.7-3.8,6.1-8.4,6.9-13.8c0.2-1.1,0.1-2.3,0.6-3.2c0.6-1,1.7-1.6,2.6-2.4c0.6,1.1,1.7,2.1,1.7,3.2
																										c0,2.9-0.7,5.8-0.8,8.7c-0.1,3.1,0,6.2,0.3,9.2c0.3,2.4,1.6,2.9,3.2,1.2c2.4-2.6,4.8-5.4,6.6-8.4
																										c2.1-3.6,3.5-7.7,5.4-11.5c0.5-0.9,1.5-2.1,2.3-2.1s1.9,1.2,2.3,2.1c2.5,5.4,4.2,10.9,4.6,16.9
																										c0,0.6,0.4,1.3,0.7,1.9c0.6-0.3,1.4-0.5,1.7-1c1.4-2.2,2.5-4.6,4-6.7c0.5-0.8,1.8-1.9,2.4-1.7
																										c1.6,0.4,1.4,1.8,0.8,3.1c-4.1,9.5-9,12.2-16.5,12.9c-2.8,0.3-5.8-1.3-8.5-2.4c-1.2-0.5-1.8-0.8-3,0.2
																										c-4.7,3.9-8.4,2.8-10.5-3.2c-0.7-2.1-1.4-2-2.9-0.6c-1.9,1.8-4.1,3.5-6.5,4.5c-3.3,1.4-4.8,0.4-6.2-3
																										c-0.2-0.5-0.5-0.9-0.8-1.4C-550.8-1650.5-551.2-1650.7-551.6-1651 M-512.7-1662.8
																										c-0.3-0.1-0.6-0.2-0.9-0.3c-1.4,2.4-2.8,4.8-4.2,7.3c-2.7,4.9-2,6.2,3.7,6.5c0.7,0,1.5,0.2,2.1,0
																										c0.5-0.1,1.2-0.7,1.3-1.1C-510.1-1654.7-510.9-1658.9-512.7-1662.8 M-559-1664.2c-1-1.4-1.6-3.3-2.9-4
																										c-2-1-3.1,1.1-3.9,2.7c-0.7,1.4-1.2,3-1.6,4.5c-0.1,0.5,0.2,1.6,0.6,1.8
																										C-564.6-1657.9-559.5-1661.3-559-1664.2"/>
																								</defs>
																								<clipPath id="SVGID_46_">
																									<use xlink:href="#SVGID_45_"  style="overflow:visible;"/>
																								</clipPath>
																								<g class="st22">
																									<g>
																										<defs>
																											<rect id="SVGID_47_" x="-717.2" y="-1751" width="1440" height="3539"/>
																										</defs>
																										<clipPath id="SVGID_48_">
																											<use xlink:href="#SVGID_47_"  style="overflow:visible;"/>
																										</clipPath>
																										<rect x="-578.2" y="-1678" class="st23" width="88" height="39"/>
																									</g>
																								</g>
																								<g class="st22">
																									<g>
																										<defs>
																											<path id="SVGID_49_" d="M-639.2-1680c2.7-9.7,9.6-15.9,18.5-19.2c11.5-4.2,23.2-3.8,34.1,2.5
																												c4.3,2.5,7.2,6.3,8.9,10.9c0.8,2.1,1.7,2.3,3.7,1.5c8.5-3.3,16.8-7.1,25.6-9.5c17.1-4.6,33.3-1.8,48,8.2
																												c0.7,0.5,1.7,0.9,1.8,1.5c0.3,1.3,0.5,3-0.2,3.9c-0.5,0.7-2.4,0.7-3.6,0.8c-0.4,0-0.9-0.5-1.4-0.9
																												c-15.7-12-32.8-13.4-51-6.9c-6.2,2.2-12.3,4.9-18.5,7.2c-1.9,0.7-2.4,1.6-2.4,3.6
																												c0,4.2,0.1,8.5-0.9,12.5c-2.8,11.9-11.4,17.8-23.1,19.9c-3.7,0.7-7.5,0.7-11.3,0.9
																												c-2.3,0.1-3.7-1.3-3.6-3.9c0.2-4.6,0.4-9.3,0.7-13.9c0.2-2.4-0.6-2.7-2.9-2.3c-3.5,0.7-7.1,1.3-10.6,1.2
																												c-6-0.2-9.9-3.6-11.5-9.3c-0.1-0.4-0.4-0.8-0.6-1.2v-7.5 M-608.3-1658.2c0.1,2.4,0.1,4.8,0.5,7.1
																												c0.1,0.7,1.3,1.8,2,1.8c14.9-0.5,25.1-7.4,25.1-24.2c0-2.9-0.5-3.2-3.3-2.1c-5.8,2.3-11.6,4.7-17.4,7
																												C-608.5-1665.7-608.5-1665.7-608.3-1658.2 M-607.9-1684.6c-0.2,0-0.4,0-0.6,0c0,3.6,0.1,7.3,0,10.9
																												c-0.1,2.4,0.8,2.8,3,1.9c7.1-2.9,14.1-5.7,21.3-8.4c2.5-0.9,2.6-2.1,1.7-4.3c-3.5-8.2-14.9-14.3-24-12.6
																												c-0.5,0.1-1.3,1-1.3,1.5C-608-1691.9-607.9-1688.3-607.9-1684.6 M-613.4-1679.8
																												c-0.3-5.9-0.6-10.2-0.7-14.6c-0.1-2-1-2.2-2.7-1.8c-10.7,2.7-17,11.7-15.8,22.5c0.4,3.8,2.2,6.1,6,6.4
																												c3.6,0.2,7.3-0.4,10.9-0.8c1.8-0.2,2.4-1.3,2.3-3C-613.5-1674.6-613.4-1677.9-613.4-1679.8"/>
																										</defs>
																										<clipPath id="SVGID_50_">
																											<use xlink:href="#SVGID_49_"  style="overflow:visible;"/>
																										</clipPath>
																										<g class="st24">
																											<g>
																												<rect x="-644.2" y="-1707" width="151" height="69"/>
																											</g>
																										</g>
																										<g class="st24">
																											<g>
																												<defs>
																													<rect id="SVGID_51_" x="-717.2" y="-1751" width="1440" height="3539"/>
																												</defs>
																												<clipPath id="SVGID_52_">
																													<use xlink:href="#SVGID_51_"  style="overflow:visible;"/>
																												</clipPath>
																												<rect x="-501.2" y="-1719" class="st25" width="60" height="88"/>
																											</g>
																										</g>
																										<g class="st24">
																											<g>
																												<defs>
																													<rect id="SVGID_53_" x="-717.2" y="-1751" width="1440" height="3539"/>
																												</defs>
																												<clipPath id="SVGID_54_">
																													<use xlink:href="#SVGID_53_"  style="overflow:visible;"/>
																												</clipPath>
																												<rect x="-379.2" y="-1703" class="st26" width="175" height="62"/>
																											</g>
																										</g>
																										<g class="st24">
																											<g>
																												<defs>
																													<rect id="SVGID_55_" x="-717.2" y="-1751" width="1440" height="3539"/>
																												</defs>
																												<clipPath id="SVGID_56_">
																													<use xlink:href="#SVGID_55_"  style="overflow:visible;"/>
																												</clipPath>
																												<rect x="-422.2" y="-1711" class="st27" width="52" height="80"/>
																											</g>
																										</g>
																										<g class="st24">
																											<g>
																												<defs>
																													<rect id="SVGID_57_" x="-717.2" y="-1751" width="1440" height="3539"/>
																												</defs>
																												<clipPath id="SVGID_58_">
																													<use xlink:href="#SVGID_57_"  style="overflow:visible;"/>
																												</clipPath>
																												<rect x="-479.2" y="-1693" class="st28" width="65" height="47"/>
																											</g>
																										</g>
																										<g class="st24">
																											<g>
																												<defs>
																													<rect id="SVGID_59_" x="-717.2" y="-1751" width="1440" height="3539"/>
																												</defs>
																												<clipPath id="SVGID_60_">
																													<use xlink:href="#SVGID_59_"  style="overflow:visible;"/>
																												</clipPath>
																												<rect x="-578.2" y="-1678" class="st29" width="88" height="39"/>
																											</g>
																										</g>
																										<g id="GvsaEV_1_" class="st24">
																											<g id="XMLID_1_">
																												<path id="XMLID_93_" d="M-10.1,15.7c0-0.1,0.2-0.2,0.4-0.1c0,0,0.1,0,0.1,0.1l0,0
																													c0.1,0,0.1-0.1,0.2-0.1c0.2,0,0.4,0,0.5,0.1l0,0l0,0l0,0c-0.1,0-0.1,0-0.2,0c-0.1,0-0.2,0-0.3,0
																													c-0.1,0-0.1,0-0.2,0.1l0,0v0.1c0,0.1-0.1,0.2-0.3,0.2c-0.1,0-0.1,0-0.1-0.1v-0.1l0,0
																													C-10,15.9-10.1,15.9-10.1,15.7C-10.1,15.8-10.1,15.8-10.1,15.7z M-9.6,15.8c-0.1,0-0.2,0.1-0.2,0.1l0,0
																													V16l0,0C-9.7,16-9.6,16-9.6,15.8z M-9.9,15.6c0,0.1,0,0.2,0,0.2c0.1,0,0.2-0.1,0.2-0.1
																													C-9.6,15.6-9.7,15.6-9.9,15.6z M-9.9,15.6c-0.1,0-0.1,0-0.2,0.1c0,0,0,0.1,0,0.2h0.1l0,0l0,0
																													C-9.9,15.8-9.9,15.7-9.9,15.6z"/>
																												<path id="XMLID_92_" d="M-8.6,16.2L-8.6,16.2c-0.1,0-0.2-0.1-0.2-0.2s0-0.1,0.1-0.2c0,0,0,0,0.1,0l0,0
																													c-0.1-0.1-0.1-0.3,0-0.3l0,0h0.1h0.1l0.1,0.1c0,0,0,0.1-0.1,0.1c0,0-0.1,0-0.1-0.1l0,0l0,0l0,0
																													c0,0,0,0,0.1,0c0,0,0,0,0-0.1l0,0c0,0-0.1,0-0.2,0c0,0-0.1,0.1-0.1,0.1c0,0.1,0.1,0.2,0.2,0.1h0.1l0,0
																													h-0.1c-0.1,0-0.1,0.1-0.1,0.2C-8.7,16.1-8.7,16.1-8.6,16.2c0.1,0,0.1,0,0.2-0.1c0,0,0.1,0,0.1-0.1l0,0
																													l0,0c0,0.1-0.1,0.1-0.1,0.1s0,0-0.1,0C-8.5,16.2-8.5,16.2-8.6,16.2z"/>
																												<path id="XMLID_87_" d="M-7.5,16L-7.5,16C-7.6,16.1-7.6,16-7.5,16c-0.1-0.1-0.1-0.2,0-0.2h0.1l0,0l0,0
																													l0,0C-7.4,15.9-7.5,15.9-7.5,16C-7.5,16-7.4,16-7.5,16C-7.4,16-7.4,16-7.5,16c0.1,0,0.1,0,0.1-0.1
																													c0-0.1,0-0.1,0.1-0.1h0.1v0.1l0,0l0,0l0,0c0,0-0.1,0-0.1,0.1v0.1h0.1c0,0,0.1,0,0.1-0.1l0,0
																													c0-0.1,0-0.1-0.1-0.1s-0.1-0.1-0.2-0.1c-0.1,0-0.1,0-0.2,0.1l0,0l0,0c-0.1-0.2,0-0.3,0.1-0.3
																													s0.2,0,0.2,0.1c0,0,0.1,0,0.1,0.1v-0.1c0,0,0-0.1,0.1-0.1c0.1,0,0.1,0,0.1,0c0,0.1,0,0.1-0.1,0.2l0,0
																													v0.1l0,0l0,0l0,0l0,0l0,0V16l0.1-0.1v-0.1l0,0l0,0v0.1c0,0,0,0,0,0.1l0,0c0,0,0,0,0.1,0
																													c0,0,0-0.1,0.1-0.1l0,0l0,0l0,0c0,0,0,0,0,0.1l0,0l0,0c0,0,0-0.1,0.1-0.1V16v0.1l0,0c0,0,0-0.1,0.1-0.1
																													c0,0,0-0.1,0.1-0.1h0.1l0,0l0,0l0,0l0,0V16l0,0l0,0c0-0.1,0.1-0.1,0.1-0.2c0-0.1,0-0.1-0.1-0.1h-0.1
																													c-0.1,0-0.2,0.1-0.4,0c0,0-0.1,0-0.1-0.1c0,0,0,0,0-0.1c0,0,0,0,0.1,0c0,0,0.1,0,0.1,0.1
																													c0.1,0,0.2,0,0.3,0c0.1,0,0.1,0,0.2,0s0.1,0,0.1,0.1c0,0.1,0,0.2-0.1,0.3h-0.1l0,0c0,0-0.1,0-0.1,0.1
																													c0,0-0.1,0-0.1-0.1l0,0c0,0,0,0-0.1,0c0,0,0,0,0-0.1v-0.1l0,0l0,0c0,0,0,0.1-0.1,0.1l0,0l0,0h-0.1
																													c0,0,0,0-0.1-0.1l0,0c0,0,0,0-0.1,0h-0.1v-0.1l0,0l0,0c0,0,0,0-0.1,0.1c0,0,0,0,0,0.1l0,0l0,0
																													c-0.1,0-0.1,0.1-0.2,0C-7.4,16.1-7.4,16.1-7.5,16C-7.5,16.1-7.5,16.1-7.5,16z M-6.4,16L-6.4,16L-6.4,16
																													c0.1,0,0.1,0,0.1-0.1l0,0l0,0C-6.4,15.9-6.4,16-6.4,16z M-7.5,15.9L-7.5,15.9L-7.5,15.9
																													c-0.1,0-0.1,0.1-0.1,0.1l0,0l0,0C-7.5,16-7.5,15.9-7.5,15.9z M-7.1,15.8l0.1-0.1l0,0l0,0
																													C-7.1,15.7-7.1,15.8-7.1,15.8z"/>
																												<path id="XMLID_86_" d="M-7.9,15.8c0,0,0-0.1,0.1-0.1c0-0.1,0-0.1,0.1-0.2l0,0l0,0c0,0.2,0,0.3,0,0.5
																													c0,0,0,0,0,0.1c0,0,0,0,0,0.1l0,0l0,0c0,0,0,0,0-0.1s0-0.2,0-0.3l0,0l0,0C-7.8,15.7-7.8,15.7-7.9,15.8
																													C-7.8,15.8-7.8,15.9-7.9,15.8C-7.9,15.9-7.9,15.9-7.9,15.8C-7.9,15.9-7.9,15.9-7.9,15.8
																													c0,0.1-0.1,0-0.1-0.1l0,0l0,0c0,0.1,0,0.2,0,0.3l0,0l0,0l0,0C-8,15.9-8,15.9-7.9,15.8
																													C-8,15.8-8,15.7-8,15.6l0,0l0,0C-8,15.6-7.9,15.7-7.9,15.8L-7.9,15.8L-7.9,15.8z"/>
																												<path id="XMLID_85_" d="M-8.3,15.8C-8.3,15.8-8.3,15.7-8.3,15.8c0.1-0.1,0.1-0.1,0.1-0.1l0,0
																													C-8.2,15.8-8.3,15.8-8.3,15.8c0.1,0.1,0.1,0.1,0.1,0.1h0.1c0,0,0,0,0,0.1h-0.1
																													C-8.2,16-8.3,15.9-8.3,15.8C-8.3,15.9-8.3,15.9-8.3,15.8c-0.1,0.1-0.1,0.1-0.2,0.2c0,0-0.1,0-0.1,0.1
																													c0,0,0,0-0.1,0l0,0l0,0l0,0C-8.5,15.9-8.4,15.9-8.3,15.8C-8.4,15.8-8.4,15.8-8.3,15.8
																													C-8.4,15.7-8.4,15.7-8.3,15.8C-8.4,15.7-8.4,15.7-8.3,15.8C-8.3,15.7-8.3,15.7-8.3,15.8
																													C-8.3,15.7-8.3,15.8-8.3,15.8z"/>
																												<path id="XMLID_81_" d="M-9.3,16C-9.3,16-9.2,16-9.3,16c0.1-0.1,0.1-0.1,0.1-0.2l0,0l0,0l0,0v0.1V16
																													l0.1-0.1c0,0,0-0.1,0.1-0.1l0,0l0,0c0,0.1,0,0.1,0,0.2v-0.1l0,0l0,0c0,0.1-0.1,0.2-0.2,0.1
																													C-9.1,16.1-9.1,16.1-9.3,16C-9.2,16-9.2,16.1-9.3,16C-9.3,16.1-9.3,16.1-9.3,16L-9.3,16
																													c-0.1,0.1-0.2,0.1-0.2,0l-0.1-0.1v-0.1c0,0,0,0,0.1,0c0,0,0,0,0.1,0.1L-9.3,16c-0.1,0-0.1,0-0.2,0
																													c0,0,0,0.1,0.1,0.1c0.1,0,0.1-0.1,0.1-0.2l0,0l0,0C-9.3,15.9-9.3,15.9-9.3,16L-9.3,16z M-9,16L-9,16
																													C-9,16-8.9,16-9,16c0.1,0,0-0.1,0-0.1l0,0V16z M-9.5,15.9L-9.5,15.9C-9.5,15.9-9.4,15.9-9.5,15.9
																													C-9.4,15.9-9.4,15.9-9.5,15.9C-9.4,15.9-9.4,15.9-9.5,15.9C-9.4,15.9-9.5,15.9-9.5,15.9L-9.5,15.9z"/>
																											</g>
																										</g>
																									</g>
																								</g>
																							</g>
																						</g>
																					</g>
																				</g>
																			</g>
																		</g>
																	</g>
																</g>
															</g>
														</g>
													</g>
												</g>
											</g>
										</g>
									</g>
								</g>
							</g>
						</g>
					</g>
				</g>
			</g>
		</g>
	</g>
</g>
<rect x="-717.2" y="-1751" class="st30" width="1440" height="3539"/>
<path class="st30" d="M-474.9-1636c-1.6-0.3-3.2-0.7-4.9-1c-9.2-2-14.9-7.5-16.2-15.7c-1.5-9.7,2.2-17.9,10.3-22.7
	c4-2.3,3.9-2.3,0.4-5.1c-5.7-4.6-8.3-10.5-7-17.8c1.3-7.4,5.7-12.2,12.6-14.8c0.7-0.3,1.4-0.6,2.1-0.9h6.3c3.3,1.4,6.8,2.4,9.9,4.2
	c6.2,3.5,7.6,11,3.5,16.8c-1.4,2-3.3,3.2-5.8,3.1c-4.3-0.2-7.8-2.3-10.6-5.3c-0.7-0.7-0.6-3,0.1-3.9c1-1.5,2.7-1.2,4.1,0.1
	c1.7,1.5,3.4,3.1,5.2,4.4c1.7,1.2,3.3,0.6,4.6-1.1c2.5-3.4,2.3-7.6-1.2-9.8c-5.9-3.9-14.2-5.2-20.6,0.4c-6.8,6-6.8,15.5,0,21.4
	c3.4,3,7.2,5.1,12,3.6c0.7-0.2,1.6-0.4,2.3-0.3c0.8,0.1,1.8,0.5,2.1,1.1c0.3,0.6,0,2.1-0.4,2.3c-1.9,0.8-4,2-6,1.9
	c-12.2-0.4-21.6,12.4-17.4,24c1.5,4.3,4.7,7,8.7,8.8c7,3.1,14,3,21,0.1c3.9-1.6,6.9-4.2,7.5-8.8c0.3-1.8,1.6-2.8,3.4-2.5
	c2,0.4,2.7,1.8,2.3,3.8c-0.8,3.8-2.9,7.1-6.2,8.9c-3.5,2-7.4,3.1-11.1,4.6c-0.7,0.3-1.5,0.4-2.3,0.6h-8.7V-1636z"/>
<path class="st30" d="M-321.5-1652.4c-1.6,1.1-2.9,2.1-4.3,3c-5.4,3.2-10.2,2.8-14.8-1.4c-1.3-1.2-1.8-0.8-2.7,0.3
	c-0.9,1.1-2,2.3-3.3,3c-3.6,2.1-7.5,0.6-9.2-3.2c-0.3-0.7-0.7-1.4-1.2-2.5c-1,1.1-1.7,1.8-2.3,2.5c-2.1,2.3-4.5,3.9-7.7,3.1
	c-3.3-0.7-5.1-3.1-5.8-6.2c-1.5-5.9,0.2-11,4.5-15.1c4.4-4.2,8.9-4.5,14.1-1.3c0.4-0.4,0.7-1,1.1-1.3c0.7-0.5,1.4-0.9,2.2-1.4
	c0.3,0.8,0.8,1.7,0.7,2.5c-0.2,3.1-0.8,6.1-0.9,9.1c-0.1,2.4,0,4.9,0.2,7.3c0.1,1.7,1.3,2.3,2.5,1.1c2.3-2.2,4.8-4.4,5-8
	c0.4-6.1,4.5-11.1,10-12.3c5.1-1.2,8.3,1.8,7.2,6.8c-0.4,1.7-1.1,3.4-2.2,4.7c-0.5,0.6-2.1,0.3-3.2,0.4c-0.1-1-0.4-2.2-0.1-3.1
	c0.4-1.2,1.4-2.2,2-3.4c0.2-0.3,0-1.1-0.2-1.3c-0.4-0.3-1.1-0.5-1.6-0.4c-5,1.6-8.2,11.3-5.1,15.5c1.4,2,4.1,2.7,7,1.8
	c3.7-1.2,6.6-3.4,8.7-6.6c0.1-0.2,0.4-0.4,0.4-0.7c0.2-5.1,0.4-10.1,0.5-15.2c0-0.4-0.5-0.9-1-1.1c-8.1-4-16.1-8.4-24.4-11.7
	c-4.1-1.6-9.1-1.6-13.6-1.5c-5,0.1-8.3,3-9.8,7.9c-0.8,2.6-3.1,3.6-4.5,2c-0.8-0.9-1-2.8-0.6-4c2-6.7,7.9-10.7,15.6-10.9
	c9-0.2,17.2,2.6,24.8,7.2c3.7,2.2,7.4,4.5,11.1,6.8c0.6,0.4,1.4,0.6,2.5,1.1c0.3-2.4,0.4-4.5,0.7-6.5c0.6-4.3,2-8.2,5.7-10.9
	c2.2-1.6,4.7-2.6,7.5-1.2c2.8,1.3,4.2,3.8,3.9,6.6c-0.4,3.7-1.1,7.5-2.7,10.8c-1.2,2.4-3.8,4.8-6.3,5.6c-3.4,1.1-3.9,2.9-3.8,5.8
	c0,2.1-0.3,4.2-0.4,6.3c0,0.6,0.4,1.2,0.7,1.8c0.6-0.3,1.3-0.5,1.7-0.9c1.3-1.4,2.3-2.9,3.6-4.2c1.2-1.2,2.5-2.5,4-3.4
	c2.8-1.7,5.3-0.4,5.3,2.8c0,3-0.5,5.9-0.7,8.9c-0.1,0.9,0.2,1.7,0.4,2.6c0.8-0.4,1.7-0.8,2.4-1.3c4.6-3.5,7.4-7.8,7.2-13.8
	c-0.1-1.6,0.5-3.3,0.9-4.9c0.4-2.1,1.8-3.1,3.9-2.6c1.9,0.5,2.6,1.9,2.3,3.9c-0.7,3.3-1.5,6.7-2,10c-0.4,3.2-0.3,6.5-0.5,9.7
	c-0.1,1.9,1.1,2.5,2.5,1.7c1.7-0.9,3.4-2,4.6-3.4c3.3-4.2,5.6-8.9,5.9-14.4c0.1-1,0.2-2.1,0.4-3.1c0.3-1.7,1.4-2.7,2.9-2.2
	c0.9,0.3,2,1.8,2.1,2.8c0.2,1.7-0.5,3.5-0.5,5.2c0,1.3,0.3,2.6,0.4,3.9c0.9-1,1.9-1.8,2.7-2.9c0.9-1.2,1.5-2.6,2.4-3.8
	c1.5-1.9,3.2-3.9,6-2.9c2.7,0.9,2.9,3.4,2.7,5.7c-0.2,3.5-0.8,7-1.2,10.4c-0.1,0.8,0.2,1.6,0.3,2.4c0.7-0.3,1.7-0.5,2.2-1
	c2.5-2.3,4.7-4.5,5.8-8c1.3-4.1,4.4-6.9,8.6-8.4c2.6-0.9,5.2-1.1,7.7,0.6c1.3,0.9,1.9,0.6,2.6-0.8c0.3-0.7,1.5-1.1,2.3-1.7
	c0.4,0.9,1.4,1.9,1.3,2.7c-0.4,3.3-1.3,6.5-1.8,9.8c-0.3,1.9-0.4,3.9-0.2,5.8c0.1,1.3,0.9,2.5,1.5,3.7c1.3-0.8,3-1.3,3.7-2.4
	c3.6-6.2,6.8-12.7,8-19.9c1.3-8-2.4-12.6-10.6-12.8c-4.4-0.1-8.8,0.8-13.2,1.5c-9.4,1.4-18.8,3.2-28.2,4.4
	c-5.6,0.7-11.3,0.4-16.6-1.9c-2.9-1.3-5.6-3.3-8-5.4c-0.9-0.8-1.2-2.9-0.9-4.2c0.3-1,2.1-2.3,3.2-2.2c1.3,0.1,3.1,1.2,3.7,2.4
	c1.7,3.2,4.6,4.4,7.6,5.2c7.3,2,14.8,2.2,22.3,1.3c8.6-1,17-2.8,25.6-4.1c2.7-0.4,5.5-0.5,8.3-0.2c6.7,0.6,11.2,5.2,11.3,11.8
	c0.1,3.3-0.2,6.7-1.3,9.8c-1.9,5.4-4.3,10.5-6.8,15.7c-0.8,1.7-2.3,3.2-3.8,4.3c-3.5,2.4-7.5,1.1-9.2-2.8c-0.3-0.7-0.9-1.4-1.4-2
	c-0.6,0.6-1.3,1.1-1.9,1.7c-0.7,0.7-1.3,1.5-2,2.1c-3.9,3.5-8.9,2.6-11.4-1.9c-1.5-2.7-1.5-2.7-3.8-0.4c-1.2,1.2-2.4,2.3-3.8,3.3
	c-3,2.2-5.7,1.1-5.8-2.6c-0.1-2.7,0.3-5.4,0.6-8.1c0.2-1.7,0.5-3.3,0.6-5c0-0.7-0.3-1.4-0.5-2.1c-0.7,0.3-1.5,0.5-2,0.9
	c-4.1,4.1-6.4,9.2-7.9,14.7c-0.2,0.7-0.1,1.5-0.5,2c-0.9,1-1.9,2.6-3,2.7s-2.9-1.1-3.4-2.1c-0.9-1.9-1.5-1.9-3.1-0.9
	c-5.9,3.9-10.2,2.2-12-4.7c-0.2-0.6-0.6-1.1-1-1.7c-0.6,0.3-1.2,0.6-1.7,1c-2.1,2-4,4.2-6.3,6c-0.9,0.7-2.9,1.1-3.8,0.7
	c-0.9-0.5-1.7-2.3-1.6-3.4c0.3-3.4,1.2-6.7,1.8-10.1c0.1-0.7,0.4-1.4,0.4-2.1c0-0.6-0.3-1.1-0.4-1.7c-0.6,0.2-1.4,0.3-1.8,0.7
	c-1.1,1.1-2.2,2.3-3.1,3.6c-2.4,3.4-4.6,6.9-7,10.2c-0.6,0.9-1.8,1.4-2.7,2.1c-0.6-0.9-1.2-1.9-1.8-2.8
	C-320.9-1651.4-321.1-1651.7-321.5-1652.4 M-356.8-1665.8c-0.3-0.7-0.6-2.2-1.3-2.5c-0.9-0.3-2.6,0-3.3,0.7c-3.6,3.6-5.7,8-6.1,13
	c-0.1,0.9,0.6,2.5,1.3,2.7c0.8,0.3,2.3-0.3,3-1C-359.7-1656.3-357.9-1660.6-356.8-1665.8 M-231.8-1666c-0.4-0.7-0.7-2.1-1.4-2.3
	c-0.9-0.3-2.5,0-3.1,0.7c-3.7,3.7-6,8.2-6.2,13.5c0,0.8,0.6,2.1,1.2,2.3c0.8,0.2,2.2-0.1,2.8-0.7
	C-234.6-1656.1-232.8-1660.7-231.8-1666 M-314.7-1680.2c0.1,0,0.2,0,0.3,0.1c0,0.3-0.1,0.7,0,1c0.2,1,0.4,1.9,0.6,2.9
	c1-0.5,2.1-0.7,2.9-1.4c3.3-3,4-7.1,4.1-11.2c0-1.3-0.9-2.7-1.3-4c-1.3,0.9-2.7,1.7-3.9,2.6c-0.4,0.3-0.7,1-0.8,1.6
	C-313.6-1685.8-314.2-1683-314.7-1680.2"/>
<path class="st30" d="M-411.5-1663.8c0.3,5.2,0.5,10.3,0.8,15.5c0.1,2.9-1.1,4.5-3.3,4.5c-2.2,0-3.5-1.7-3.2-4.6
	c1.9-16.8,1.8-33.7,0.5-50.5c-0.2-1.9-0.2-3.8,2.2-4.2c2.2-0.4,2.9,1.3,3.5,3c3.4,9.4,6.8,18.8,10.2,28.1c0.3,0.9,1.2,1.6,1.8,2.4
	c0.6-0.8,1.3-1.6,1.7-2.5c3.8-10.2,7.6-20.4,11.4-30.6c0.2-0.6,0.3-1.4,0.7-1.7c0.8-0.7,1.9-1.2,2.9-1.8c0.5,0.9,1.4,1.9,1.4,2.8
	c-0.1,10.9-0.6,21.7-0.6,32.6c0,7.2,0.8,14.4,1.1,21.6c0.1,2.4,1,4.3,2.8,5.8c0.9,0.7,1.8,1.7,2.1,2.7c0.3,1.1,0.4,3-0.3,3.6
	c-0.9,0.7-2.9,1.1-3.9,0.6c-1.5-0.8-3-2.2-3.5-3.7c-1.1-3.3-2-6.9-2.2-10.4c-0.5-9-0.5-18-0.8-27c0-0.9,0.1-1.8-0.1-2.7
	c-0.1-0.6-0.6-1.1-1-1.7c-0.5,0.5-1.2,0.8-1.4,1.4c-1.2,3.5-2.3,7.1-3.4,10.7c-1,3.2-2,6.5-3,9.7c-0.6,1.8-1.7,3-3.7,2.7
	c-1.9-0.3-2.5-1.7-3-3.5c-1.2-4.5-2.8-9-4.4-13.4c-0.8-2.4-1.8-4.6-2.9-6.9c-0.3-0.6-1-1-1.5-1.6c-0.3,0.7-0.8,1.3-0.8,2
	c-0.1,5.1,0,10.2,0,15.3c0,0.5,0,1.1,0,1.6C-411.4-1663.8-411.4-1663.8-411.5-1663.8"/>
<path class="st30" d="M-442.8-1671.4c-4.1,3.7-7.7,7.1-11.5,10.3c-3.3,2.8-6.7,5.5-10.3,8c-1.5,1.1-3.4,1.7-5.2,2
	c-2.3,0.5-4.3-1.3-4.5-3.6c-0.2-2.2,1.4-3.8,3.6-4.4c3-0.8,6.2-1.5,8.7-3.1c5.4-3.6,10.4-7.8,15.6-11.7c1.4-1.1,1.5-2.1,0.4-3.4
	c-1.3-1.6-2.8-3.2-3.8-5c-0.6-1.2-0.9-2.9-0.5-4.2c0.2-0.8,2.2-1.7,3-1.4c1.1,0.3,2.3,1.6,2.9,2.7c0.8,1.5,1.1,3.3,1.7,4.9
	c0.6,1.7,1.5,1.9,2.8,0.6c2.1-2.1,4.2-4.3,6.5-6.2c0.8-0.6,2.5-1.1,3.1-0.7c1.5,1.1,0.5,2.4-0.5,3.4c-2.4,2.3-4.8,4.7-7.2,7
	c-1,1-1.3,1.8-0.3,3c2.8,3.6,5.4,7.3,8.3,10.8c2.8,3.4,4.8,3.4,8.1,0.5c0.4-0.4,1.3-0.7,1.6-0.5c0.5,0.3,1.1,1.4,0.9,1.7
	c-0.9,1.6-1.8,3.5-3.2,4.4c-3.2,1.8-6.9,1.9-9.5-0.9c-3.3-3.5-6.1-7.6-9.1-11.4C-441.7-1669.5-442.1-1670.3-442.8-1671.4"/>
<path class="st30" d="M-551.6-1651c-0.9,1.2-1.6,2.7-2.7,3.7c-5.8,5.1-13.3,4.1-17.4-2.4c-1-1.6-1.6-3.7-1.6-5.6
	c0.1-4.8,1.3-9.3,3.8-13.4c2.3-3.7,5.5-5.1,8.7-4c3.1,1,5,4.3,5,8.5c0,4.1-1.7,6.3-5.8,7.3c-1.5,0.4-3.1,0.5-4.7,0.7
	c-2,0.3-2.5,1.3-1.6,3.1c1.7,3.4,5.3,4.6,8.8,3c7-3.2,10.7-10.5,9.2-18.2c-0.1-0.4-0.2-0.9-0.3-1.3c-0.1-1.7,0.5-2.9,2.2-3.2
	c1.8-0.3,3.2,0.5,3.2,2.3c0.1,3.6-0.1,7.2-0.3,10.8c-0.1,2.9-0.3,5.9-0.5,8.8c0.3,0.2,0.6,0.3,0.8,0.5c1.2-0.8,2.6-1.3,3.6-2.3
	c3.7-3.8,6.1-8.4,6.9-13.8c0.2-1.1,0.1-2.3,0.6-3.2c0.6-1,1.7-1.6,2.6-2.4c0.6,1.1,1.7,2.1,1.7,3.2c0,2.9-0.7,5.8-0.8,8.7
	c-0.1,3.1,0,6.2,0.3,9.2c0.3,2.4,1.6,2.9,3.2,1.2c2.4-2.6,4.8-5.4,6.6-8.4c2.1-3.6,3.5-7.7,5.4-11.5c0.5-0.9,1.5-2.1,2.3-2.1
	s1.9,1.2,2.3,2.1c2.5,5.4,4.2,10.9,4.6,16.9c0,0.6,0.4,1.3,0.7,1.9c0.6-0.3,1.4-0.5,1.7-1c1.4-2.2,2.5-4.6,4-6.7
	c0.5-0.8,1.8-1.9,2.4-1.7c1.6,0.4,1.4,1.8,0.8,3.1c-4.1,9.5-9,12.2-16.5,12.9c-2.8,0.3-5.8-1.3-8.5-2.4c-1.2-0.5-1.8-0.8-3,0.2
	c-4.7,3.9-8.4,2.8-10.5-3.2c-0.7-2.1-1.4-2-2.9-0.6c-1.9,1.8-4.1,3.5-6.5,4.5c-3.3,1.4-4.8,0.4-6.2-3c-0.2-0.5-0.5-0.9-0.8-1.4
	C-550.8-1650.5-551.2-1650.7-551.6-1651 M-512.7-1662.8c-0.3-0.1-0.6-0.2-0.9-0.3c-1.4,2.4-2.8,4.8-4.2,7.3c-2.7,4.9-2,6.2,3.7,6.5
	c0.7,0,1.5,0.2,2.1,0c0.5-0.1,1.2-0.7,1.3-1.1C-510.1-1654.7-510.9-1658.9-512.7-1662.8 M-559-1664.2c-1-1.4-1.6-3.3-2.9-4
	c-2-1-3.1,1.1-3.9,2.7c-0.7,1.4-1.2,3-1.6,4.5c-0.1,0.5,0.2,1.6,0.6,1.8C-564.6-1657.9-559.5-1661.3-559-1664.2"/>
<g>
	<path d="M-6.8,15.6C-6.7,15.6-6.7,15.6-6.8,15.6c0.1,0,0.1,0,0.1,0c0,0,0-0.1,0-0.1c0,0,0,0-0.1,0c-0.4-0.3-0.9-0.4-1.3-0.2
		c-0.2,0.1-0.5,0.2-0.7,0.3c-0.1,0-0.1,0-0.1,0c0-0.1-0.1-0.2-0.2-0.3c-0.3-0.2-0.6-0.2-0.9-0.1c-0.2,0.1-0.4,0.3-0.5,0.5
		c0,0.1,0,0.1,0,0.2c0,0,0,0,0,0c0,0.2,0.2,0.3,0.3,0.3c0.1,0,0.2,0,0.3,0c0.1,0,0.1,0,0.1,0.1c0,0.1,0,0.3,0,0.4
		c0,0.1,0,0.1,0.1,0.1c0.1,0,0.2,0,0.3,0c0.3-0.1,0.6-0.2,0.6-0.6c0-0.1,0-0.2,0-0.4c0-0.1,0-0.1,0.1-0.1c0.2-0.1,0.3-0.1,0.5-0.2
		C-7.7,15.2-7.2,15.3-6.8,15.6z M-9.9,15.9c-0.1,0-0.2,0-0.3,0c-0.1,0-0.2-0.1-0.2-0.2c0-0.3,0.1-0.6,0.4-0.6c0,0,0.1,0,0.1,0.1
		c0,0.1,0,0.2,0,0.4C-9.8,15.7-9.8,15.8-9.9,15.9C-9.8,15.9-9.8,15.9-9.9,15.9z M-9.7,15.5C-9.7,15.5-9.7,15.5-9.7,15.5
		c0-0.1,0-0.2,0-0.3c0,0,0,0,0,0c0.2-0.1,0.6,0.1,0.7,0.4c0,0.1,0,0.1-0.1,0.1c-0.2,0.1-0.4,0.2-0.6,0.2c-0.1,0-0.1,0-0.1-0.1
		C-9.7,15.7-9.7,15.6-9.7,15.5z M-9.6,16.5C-9.6,16.5-9.6,16.4-9.6,16.5c-0.1-0.1-0.1-0.2-0.1-0.3c0-0.2,0-0.2,0.2-0.3
		c0.2-0.1,0.3-0.1,0.5-0.2c0.1,0,0.1,0,0.1,0.1C-8.9,16.2-9.2,16.4-9.6,16.5z"/>
	<path d="M-5.8,14.7C-5.8,14.7-5.8,14.7-5.8,14.7c-0.2,0.1-0.4,0.2-0.4,0.4c0,0.2,0,0.4,0.2,0.5c0.1,0.1,0.1,0.1,0,0.2
		c-0.2,0.1-0.3,0.4-0.3,0.6c0,0.2,0.2,0.4,0.5,0.4c0.1,0,0.1,0,0.2,0c0.1,0,0.2,0,0.3,0c0,0,0,0,0.1,0c0.1,0,0.2-0.1,0.3-0.1
		c0.1-0.1,0.2-0.1,0.2-0.3c0-0.1,0-0.1-0.1-0.1c-0.1,0-0.1,0-0.1,0.1c0,0.1-0.1,0.2-0.2,0.3c-0.2,0.1-0.4,0.1-0.6,0
		c-0.1-0.1-0.2-0.1-0.3-0.3c-0.1-0.3,0.2-0.7,0.5-0.7c0.1,0,0.1,0,0.2,0c0,0,0-0.1,0-0.1c0,0,0,0-0.1,0c0,0,0,0-0.1,0
		c-0.1,0-0.3,0-0.4-0.1c-0.2-0.2-0.2-0.4,0-0.6c0.2-0.2,0.4-0.1,0.6,0c0.1,0.1,0.1,0.2,0,0.3c0,0-0.1,0.1-0.1,0
		c-0.1,0-0.1-0.1-0.2-0.1c0,0-0.1,0-0.1,0c0,0,0,0.1,0,0.1c0.1,0.1,0.2,0.1,0.3,0.2c0.1,0,0.1,0,0.2-0.1c0.1-0.2,0.1-0.4-0.1-0.5
		c-0.1,0-0.2-0.1-0.3-0.1H-5.8z"/>
	<path d="M1.3,15.4c-0.1,0-0.2,0-0.2,0c-0.3,0.1-0.6,0.1-1,0.1c-0.1,0-0.3,0-0.4-0.1c-0.1,0-0.1-0.1-0.1-0.1c0,0-0.1-0.1-0.1-0.1
		c0,0-0.1,0-0.1,0.1c0,0,0,0.1,0,0.1c0.1,0.1,0.3,0.2,0.4,0.2c0.3,0,0.6,0,0.9-0.1C1,15.5,1.1,15.5,1.3,15.4
		c0.2,0.1,0.3,0.2,0.3,0.5c0,0.2-0.1,0.4-0.2,0.6c0,0-0.1,0.1-0.1,0.1c0,0,0-0.1,0-0.1c0-0.1,0-0.1,0-0.2c0-0.1,0-0.2,0-0.3
		c0,0,0-0.1,0-0.1c0,0-0.1,0-0.1,0c0,0.1,0,0-0.1,0c-0.1,0-0.1,0-0.2,0c-0.1,0-0.2,0.1-0.3,0.3c0,0.1-0.1,0.2-0.2,0.2c0,0,0,0-0.1,0
		c0,0,0,0,0-0.1c0-0.1,0-0.2,0-0.3c0-0.1,0-0.2-0.1-0.2c-0.1,0-0.1,0-0.2,0.1c0,0-0.1,0.1-0.1,0.1c0,0,0,0,0,0c0,0,0,0,0,0
		c0-0.1,0-0.1,0-0.2c0-0.1,0-0.2-0.1-0.2c-0.1,0-0.1,0.1-0.1,0.1c0,0.2-0.1,0.3-0.2,0.4c0,0-0.1,0.1-0.1,0.1c-0.1,0-0.1,0-0.1-0.1
		c0-0.2,0-0.4,0.1-0.6c0-0.1,0-0.1-0.1-0.1c-0.1,0-0.1,0-0.1,0.1c0,0.1,0,0.2,0,0.3c0,0,0,0.1,0,0.1c-0.1,0.1-0.1,0.1-0.2,0.2
		c0,0,0,0,0,0c0,0,0,0,0-0.1c0-0.1,0-0.2,0-0.2c0,0,0-0.1-0.1-0.1c0,0-0.1,0-0.1,0c-0.1,0.1-0.1,0.1-0.2,0.2c0,0,0,0,0,0
		c0,0,0,0,0-0.1c0-0.1,0-0.2,0-0.3c0,0,0-0.1,0-0.1c0.2-0.1,0.3-0.3,0.3-0.5c0-0.2-0.2-0.2-0.3-0.1c-0.1,0-0.1,0.1-0.1,0.2
		c0,0.1,0,0.2-0.1,0.3c0,0.1,0,0.1-0.1,0c-0.1-0.1-0.2-0.1-0.3-0.2c-0.2-0.1-0.5-0.2-0.7-0.2c-0.2,0-0.4,0.1-0.4,0.3c0,0,0,0,0,0
		c0,0.1,0,0.1,0.1,0.1c0.1,0,0.1,0,0.1-0.1c0.1-0.2,0.2-0.3,0.4-0.2c0.1,0,0.2,0,0.3,0.1c0.2,0.1,0.5,0.2,0.7,0.3c0,0,0,0,0,0
		c0,0.1,0,0.3,0,0.4c0,0,0,0,0,0c-0.1,0.1-0.1,0.2-0.2,0.2c-0.1,0-0.2,0-0.2-0.1C-2,16.3-1.9,16-1.8,16c0,0,0,0,0,0c0,0,0,0,0,0
		c0,0,0,0.1-0.1,0.1c0,0,0,0.1,0,0.1c0,0,0.1,0,0.1,0c0,0,0-0.1,0.1-0.1c0-0.1-0.1-0.2-0.2-0.2c-0.1,0-0.3,0.2-0.3,0.3
		c0,0.1,0,0.1-0.1,0.2c0,0-0.1,0-0.1,0.1c0,0,0-0.1,0-0.1c0-0.1,0-0.2,0-0.4c0,0,0-0.1,0-0.1c0,0-0.1,0-0.1,0.1
		c-0.1-0.1-0.3-0.1-0.4,0c-0.1,0.1-0.2,0.3-0.1,0.4c0,0.1,0.1,0.2,0.2,0.2c0.1,0,0.2,0,0.2-0.1c0,0,0,0,0.1-0.1c0,0,0,0.1,0,0.1
		c0,0.1,0.2,0.2,0.3,0.1c0,0,0.1-0.1,0.1-0.1c0,0,0.1,0,0.1,0c0.2,0.1,0.3,0.1,0.5,0c0,0,0,0,0.1,0c0,0,0,0,0,0c0,0,0,0.1,0.1,0.1
		c0,0,0.1,0,0.1-0.1c0.1-0.1,0.1-0.2,0.2-0.2c0-0.1,0.1-0.1,0.1-0.2c0,0,0,0,0.1,0c0,0,0,0,0,0.1c0,0,0,0.1,0,0.1c0,0.1,0,0.2,0,0.2
		c0,0,0,0.1,0,0.1c0,0,0.1,0,0.1,0c0.1-0.1,0.1-0.1,0.2-0.2c0,0,0,0,0,0c0,0,0,0,0,0c0.1,0.2,0.2,0.3,0.3,0.1c0,0,0.1,0,0.1,0
		c0,0,0.1,0.1,0.1,0.1c0,0,0.1,0,0.1-0.1c0,0,0,0,0-0.1c0-0.2,0.1-0.3,0.2-0.4c0,0,0,0,0.1,0c0,0,0,0,0,0.1c0,0,0,0.1,0,0.1
		c0,0.1,0,0.2,0,0.2c0,0.1,0.1,0.1,0.2,0.1c0,0,0.1-0.1,0.1-0.1c0,0,0.1,0,0.1,0c0.1,0.1,0.2,0.2,0.3,0.1c0,0,0,0,0.1-0.1
		c0,0,0,0,0,0c0,0,0,0,0,0.1c0.1,0.1,0.2,0.2,0.3,0.1c0,0,0,0,0.1-0.1c0.1-0.2,0.2-0.4,0.3-0.7C1.8,15.5,1.6,15.3,1.3,15.4z
		 M-1.2,15.4C-1.2,15.4-1.2,15.4-1.2,15.4c0.1-0.1,0.1-0.1,0.1-0.1c0,0,0,0.1,0,0.1c0,0.1,0,0.2-0.1,0.3c0,0-0.1,0-0.1,0.1
		c0,0,0-0.1,0-0.1c0,0,0,0,0,0c0,0,0,0,0,0C-1.3,15.6-1.2,15.5-1.2,15.4z M-2.5,16.1c0,0.1-0.1,0.3-0.2,0.4c0,0-0.1,0-0.1,0
		c0,0,0-0.1,0-0.1c0-0.2,0.1-0.3,0.2-0.4C-2.6,16-2.5,16-2.5,16.1C-2.5,16-2.5,16.1-2.5,16.1z M0.9,16.5C0.9,16.5,0.9,16.5,0.9,16.5
		c-0.1,0-0.1,0-0.1-0.1c0-0.2,0.1-0.3,0.2-0.4c0,0,0.1,0,0.1,0c0,0,0,0,0,0.1C1.1,16.2,1,16.4,0.9,16.5z"/>
	<path d="M-3,16.7c-0.1-0.1-0.1-0.1-0.1-0.2c0-0.4,0-0.8,0-1.2c0-0.1,0-0.2,0-0.3c0,0,0-0.1,0-0.1c0,0-0.1,0-0.1,0.1c0,0,0,0,0,0
		c-0.1,0.3-0.2,0.6-0.3,0.9c0,0,0,0,0,0.1c0,0,0,0,0-0.1c-0.1-0.2-0.1-0.4-0.2-0.5c0-0.1-0.1-0.2-0.1-0.3c0,0,0-0.1-0.1-0.1
		c-0.1,0-0.1,0.1-0.1,0.1c0,0,0,0,0,0c0,0.5,0,1,0,1.4c0,0.1,0,0.1,0.1,0.1c0.1,0,0.1,0,0.1-0.1c0-0.1,0-0.3,0-0.4
		c0-0.2,0-0.4,0-0.5c0,0,0,0,0-0.1c0,0,0,0,0,0c0.1,0.2,0.1,0.4,0.2,0.6c0,0.1,0,0.1,0.1,0.1c0.1,0,0.1,0,0.1-0.1
		c0.1-0.2,0.1-0.3,0.2-0.5c0,0,0-0.1,0.1-0.1c0,0,0,0.1,0,0.1c0,0.3,0,0.6,0,0.9c0,0.1,0.1,0.2,0.1,0.2c0,0.1,0.1,0.1,0.2,0
		C-2.9,16.8-2.9,16.7-3,16.7C-3,16.7-3,16.7-3,16.7z"/>
	<path d="M-4.3,16.2C-4.3,16.2-4.3,16.2-4.3,16.2c-0.1,0.1-0.2,0.1-0.3,0c-0.1-0.1-0.1-0.2-0.2-0.3c0,0,0-0.1,0-0.1
		c0.1-0.1,0.1-0.1,0.2-0.2c0,0,0-0.1,0-0.1c0,0-0.1,0-0.1,0c0,0,0,0,0,0c-0.1,0.1-0.1,0.1-0.2,0.2c0-0.1-0.1-0.1-0.1-0.2
		c0,0,0-0.1-0.1-0.1c0,0-0.1,0-0.1,0c0,0,0,0.1,0,0.1c0,0,0.1,0.1,0.1,0.1c0,0,0,0.1,0,0.1c-0.2,0.1-0.3,0.3-0.5,0.4
		c0,0-0.1,0-0.2,0c0,0-0.1,0-0.1,0.1c0,0,0,0.1,0,0.1c0,0,0.1,0,0.1,0c0.1,0,0.2-0.1,0.2-0.1c0.2-0.1,0.3-0.3,0.4-0.4
		c0,0,0,0,0.1-0.1c0,0,0,0.1,0.1,0.1c0.1,0.1,0.2,0.2,0.3,0.3c0.1,0.1,0.2,0.1,0.3,0C-4.3,16.3-4.3,16.3-4.3,16.2
		C-4.3,16.2-4.3,16.2-4.3,16.2z"/>
	<path d="M-6.4,16.2C-6.5,16.2-6.5,16.2-6.4,16.2c-0.1,0.1-0.1,0.2-0.2,0.2c0,0,0,0,0,0c0,0,0,0,0-0.1c0-0.2-0.1-0.3-0.1-0.5
		c0,0,0-0.1-0.1-0.1c0,0-0.1,0-0.1,0.1C-7,16-7.1,16.1-7.1,16.2c-0.1,0.1-0.1,0.2-0.2,0.2c0,0-0.1,0-0.1,0c0-0.1,0-0.2,0-0.3
		c0-0.1,0-0.2,0-0.2c0,0,0-0.1,0-0.1c0,0-0.1,0-0.1,0.1c0,0,0,0.1,0,0.1c0,0.1-0.1,0.3-0.2,0.4c0,0,0,0-0.1,0c0,0,0,0,0-0.1
		c0-0.1,0-0.1,0-0.2c0-0.1,0-0.2,0-0.3c0-0.1,0-0.1-0.1-0.1C-8,15.8-8,15.9-8,15.9c0,0,0,0,0,0c0.1,0.3-0.1,0.4-0.3,0.5
		c-0.1,0-0.2,0-0.2-0.1c0,0,0-0.1,0-0.1c0.1,0,0.1,0,0.2,0c0.1,0,0.2-0.1,0.2-0.2c0-0.1-0.1-0.2-0.1-0.2c-0.1,0-0.2,0-0.2,0.1
		c-0.1,0.1-0.1,0.3-0.1,0.4c0,0,0,0.1,0,0.1c0.1,0.2,0.3,0.2,0.5,0.1c0,0,0.1-0.1,0.1-0.1c0,0,0,0,0,0c0,0.1,0.1,0.1,0.2,0.1
		c0.1,0,0.1-0.1,0.2-0.1c0.1-0.1,0.1-0.1,0.1,0c0.1,0.2,0.2,0.2,0.3,0.1c0,0,0.1,0,0.1,0c0.1,0.1,0.2,0.1,0.3,0.1
		C-6.6,16.6-6.5,16.4-6.4,16.2C-6.4,16.2-6.4,16.2-6.4,16.2z M-8.5,16.1c0,0,0-0.1,0-0.1c0,0,0.1-0.1,0.1-0.1c0,0,0.1,0.1,0.1,0.1
		c0,0,0,0.1-0.1,0.1C-8.4,16.2-8.4,16.2-8.5,16.1C-8.5,16.2-8.5,16.2-8.5,16.1z M-6.9,16.4C-6.9,16.5-6.9,16.5-6.9,16.4
		c-0.1,0-0.2,0-0.2,0c0,0,0,0,0,0c0.1-0.1,0.1-0.2,0.2-0.3c0,0,0,0,0,0C-6.9,16.2-6.8,16.3-6.9,16.4z"/>
</g>
</svg>
