<?xml version="1.0" encoding="utf-8"?>
<!-- Generator: Adobe Illustrator 19.2.1, SVG Export Plug-In . SVG Version: 6.00 Build 0)  -->
<svg version="1.1" id="Layer_1" xmlns:sketch="http://www.bohemiancoding.com/sketch/ns"
	 xmlns="http://www.w3.org/2000/svg" xmlns:xlink="http://www.w3.org/1999/xlink" x="0px" y="0px" viewBox="0 0 1063 299"
	 style="enable-background:new 0 0 1063 299;" xml:space="preserve">
<style type="text/css">
	.st0{fill:#FFFFFF;}
	.st1{font-family:'NeuzeitS-Book';}
	.st2{font-size:16px;}
	.st3{fill:#CECECE;}
	.st4{fill:#CDCDCD;}
	.st5{font-size:20px;}
</style>
<title>Group 2</title>
<desc>Created with Sketch.</desc>
<text transform="matrix(1 0 0 1 507 12.9995)" class="st0 st1 st2">MAKE</text>
<text transform="matrix(1 0 0 1 505 106.9995)" class="st0 st1 st2">STYLE</text>
<text transform="matrix(1 0 0 1 484 215.9995)" class="st0 st1 st2">LOCATION</text>
<rect id="Rectangle-285" y="33" sketch:type="MSShapeGroup" class="st3" width="107" height="42">
</rect>
<rect id="Rectangle-285-Copy-7" x="282" y="128" sketch:type="MSShapeGroup" class="st3" width="107" height="42">
</rect>
<rect id="Rectangle-285-Copy-11" x="282" y="235" sketch:type="MSShapeGroup" class="st3" width="65" height="42">
</rect>
<rect id="Rectangle-285-Copy-8" x="399" y="128" sketch:type="MSShapeGroup" class="st3" width="145" height="42">
</rect>
<rect id="Rectangle-285-Copy-12" x="359" y="235" sketch:type="MSShapeGroup" class="st3" width="90" height="42">
</rect>
<rect id="Rectangle-285-Copy-9" x="552" y="128" sketch:type="MSShapeGroup" class="st3" width="107" height="42">
</rect>
<rect id="Rectangle-285-Copy-13" x="462" y="235" sketch:type="MSShapeGroup" class="st3" width="134" height="42">
</rect>
<rect id="Rectangle-285-Copy-10" x="667" y="128" sketch:type="MSShapeGroup" class="st3" width="107" height="42">
</rect>
<rect id="Rectangle-285-Copy-14" x="603" y="235" sketch:type="MSShapeGroup" class="st3" width="90" height="42">
</rect>
<rect id="Rectangle-285-Copy-15" x="700" y="235" sketch:type="MSShapeGroup" class="st3" width="90" height="42">
</rect>
<rect id="Rectangle-285-Copy" x="117" y="33" sketch:type="MSShapeGroup" class="st3" width="177" height="42">
</rect>
<rect id="Rectangle-285-Copy-3" x="459" y="33" sketch:type="MSShapeGroup" class="st3" width="134" height="42">
</rect>
<rect id="Rectangle-285-Copy-5" x="720" y="33" sketch:type="MSShapeGroup" class="st3" width="177" height="42">
</rect>
<rect id="Rectangle-285-Copy-6" x="903" y="33" sketch:type="MSShapeGroup" class="st3" width="160" height="42">
</rect>
<rect id="Rectangle-285-Copy-4" x="603" y="33" sketch:type="MSShapeGroup" class="st3" width="107" height="42">
</rect>
<rect id="Rectangle-285-Copy-2" x="304" y="33" sketch:type="MSShapeGroup" class="st4" width="145" height="42">
</rect>
<text transform="matrix(1 0 0 1 24 61.9995)" class="st1 st5">BMW</text>
<text transform="matrix(1 0 0 1 302 156.9995)" class="st1 st5">Bobber</text>
<text transform="matrix(1 0 0 1 300 263.9995)" class="st1 st5">Bali</text>
<text transform="matrix(1 0 0 1 419 156.9995)" class="st1 st5">Cafe Racer</text>
<text transform="matrix(1 0 0 1 379 263.9995)" class="st1 st5">Japan</text>
<text transform="matrix(1 0 0 1 572 156.9995)" class="st1 st5">Classic</text>
<text transform="matrix(1 0 0 1 481 263.9995)" class="st1 st5">Los Angles</text>
<text transform="matrix(1 0 0 1 687 156.9995)" class="st1 st5">Hardtail</text>
<text transform="matrix(1 0 0 1 623 263.9995)" class="st1 st5">Milan</text>
<text transform="matrix(1 0 0 1 712 263.9995)" class="st1 st5">Sydney</text>
<text transform="matrix(1 0 0 1 141 61.9995)" class="st1 st5">H-D Sportster</text>
<text transform="matrix(1 0 0 1 483 61.9995)" class="st1 st5">Kawasaki</text>
<text transform="matrix(1 0 0 1 744 61.9995)" class="st1 st5">Triumph Twins</text>
<text transform="matrix(1 0 0 1 927 61.9995)" class="st1 st5">Yamaha SR</text>
<text transform="matrix(1 0 0 1 627 61.9995)" class="st1 st5">Other</text>
<text transform="matrix(1 0 0 1 328 61.9995)" class="st1 st5">Honda CB</text>
</svg>
