<?xml version="1.0" encoding="UTF-8" standalone="no"?>
<svg width="51px" height="50px" viewBox="0 0 51 50" version="1.1" xmlns="http://www.w3.org/2000/svg" xmlns:xlink="http://www.w3.org/1999/xlink" xmlns:sketch="http://www.bohemiancoding.com/sketch/ns">
    <!-- Generator: Sketch 3.4.4 (17249) - http://www.bohemiancoding.com/sketch -->
    <title>Instagram</title>
    <desc>Created with Sketch.</desc>
    <defs></defs>
    <g id="Page-1" stroke="none" stroke-width="1" fill="none" fill-rule="evenodd" sketch:type="MSPage">
        <g id="home-page" sketch:type="MSArtboardGroup" transform="translate(-1182.000000, -3369.000000)">
            <g id="footer" sketch:type="MSLayerGroup" transform="translate(0.000000, 3267.000000)">
                <g id="Instagram" transform="translate(1182.000000, 102.000000)" sketch:type="MSShapeGroup">
                    <path d="M0.660912558,24.8671875 C0.660912558,11.1334184 11.7852774,0 25.5078783,0 C39.2304793,0 50.3548441,11.1334184 50.3548441,24.8671875 C50.3548441,38.6009566 39.2304793,49.734375 25.5078783,49.734375 C11.7852774,49.734375 0.660912558,38.6009566 0.660912558,24.8671875 Z" fill="#B5B5B5"></path>
                    <path d="M36.0097764,37.4431805 C37.0416204,37.224006 37.8847739,36.3624734 38.0864525,35.3236514 C38.1080996,35.2113561 38.1239741,35.0972554 38.1423741,34.984599 L38.1423741,14.749776 C38.1246957,14.638925 38.1095427,14.5277129 38.0878957,14.417223 C37.8667347,13.2837985 36.9326634,12.404212 35.7857292,12.247143 C35.7381057,12.2410046 35.6915644,12.2305334 35.6446624,12.2222286 L15.3710942,12.2222286 C15.2487883,12.2442543 15.1257607,12.2608639 15.0052587,12.2883059 C13.8857441,12.5435882 13.0573827,13.4459226 12.8979159,14.5811525 C12.8914218,14.6284538 12.8816806,14.6753939 12.8733825,14.7226952 L12.8733825,35.0127631 C12.8964728,35.1413069 12.9148728,35.270934 12.9437355,35.3987557 C13.1912338,36.494267 14.1256658,37.3435229 15.2372431,37.4865099 C15.2910001,37.4930093 15.3451177,37.5034805 15.3988746,37.5121464 L35.616882,37.5121464 C35.7482076,37.4897596 35.879894,37.4713446 36.0097764,37.4431805 Z M15.6070473,22.5447325 C15.6070473,26.2873081 15.6066866,30.0298838 15.6074081,33.7724594 C15.6074081,34.310827 16.073181,34.7737293 16.6111108,34.7737293 C22.5409663,34.7740904 28.470461,34.7740904 34.4003164,34.7737293 C34.9432972,34.7737293 35.4065446,34.3115492 35.4065446,33.7692097 C35.4069054,30.030967 35.4065446,26.2930854 35.4065446,22.5552037 L35.4065446,22.4775719 L32.9943389,22.4775719 C33.3349195,23.5669449 33.4395471,24.6750939 33.3060568,25.8045465 C33.1718449,26.9343603 32.808174,27.98582 32.2157657,28.9567593 C31.6229967,29.9287819 30.8545255,30.7339863 29.9135993,31.3749001 C27.4746955,33.0373042 24.2637127,33.1835408 21.6758049,31.72984 C20.3676,30.995768 19.3404462,29.9721112 18.6242888,28.6530925 C17.5560057,26.6848552 17.3853546,24.6191268 18.0120374,22.4757665 C17.2118172,22.4764887 16.414844,22.4764887 15.6070473,22.4764887 L15.6070473,22.5447325 Z M20.3878039,24.7895557 C20.347396,27.6568778 22.6409036,29.9298651 25.390443,29.9890819 C28.2514647,30.0504652 30.565537,27.7626737 30.6257881,24.980205 C30.6874822,22.1107164 28.374853,19.7405991 25.5080587,19.7424045 C22.7054841,19.7405991 20.4271294,21.9973379 20.3878039,24.7895557 Z M34.4353125,18.7082765 C34.9703561,18.6949166 35.4061838,18.2359862 35.4061838,17.699785 C35.4065446,16.9014411 35.4065446,16.1027361 35.4061838,15.3043922 C35.4061838,14.7317221 34.9533992,14.2760414 34.3819164,14.2756804 C33.5863864,14.2753193 32.7908564,14.2749582 31.9949656,14.2756804 C31.4249259,14.2764025 30.9706981,14.7331664 30.9703374,15.3058365 C30.9699766,16.0973199 30.9678119,16.8888034 30.9732236,17.6806479 C30.9739452,17.7987205 30.9963138,17.921487 31.0338354,18.0334213 C31.1767061,18.4547996 31.5623849,18.7133316 32.0346519,18.715498 C32.4185267,18.7162202 32.8024015,18.715137 33.1866371,18.715137 C33.6022609,18.7104429 34.0193279,18.7183867 34.4353125,18.7082765 Z" id="Path" fill="#FFFFFF"></path>
                </g>
            </g>
        </g>
    </g>
</svg>