<?xml version="1.0" encoding="utf-8"?>
<!-- Generator: Adobe Illustrator 19.0.0, SVG Export Plug-In . SVG Version: 6.00 Build 0)  -->
<svg version="1.1" id="Layer_1" xmlns:sketch="http://www.bohemiancoding.com/sketch/ns"
	 xmlns="http://www.w3.org/2000/svg" xmlns:xlink="http://www.w3.org/1999/xlink" x="0px" y="0px" viewBox="28 -4 86 39"
	 style="enable-background:new 28 -4 86 39;" xml:space="preserve">
<style type="text/css">
	.st0{fill:none;stroke:#000000;stroke-width:2;}
	.st1{fill:none;stroke:#000000;stroke-width:2;stroke-linecap:square;}
	.st2{fill:none;stroke:#141414;stroke-miterlimit:10;}
	.st3{fill:#141414;}
</style>
<title>Search icon + Line + Oval 8 + Rectangle 64</title>
<desc>Created with Sketch.</desc>
<g id="Page-1" sketch:type="MSPage">
	<g id="home-page-scroll" transform="translate(-1108.000000, -94.000000)" sketch:type="MSArtboardGroup">
		<g id="Group" transform="translate(30.000000, 48.000000)" sketch:type="MSLayerGroup">
			
				<g id="Search-icon-_x2B_-Line-_x2B_-Oval-8-_x2B_-Rectangle-64" transform="translate(1073.000000, 46.000000)" sketch:type="MSShapeGroup">
				
					<g id="Search-icon" transform="translate(17.982756, 18.970563) rotate(-315.000000) translate(-17.982756, -18.970563) translate(8.482756, 3.470563)">
					<circle id="Oval-1" class="st0" cx="27" cy="-12.3" r="9.3"/>
					<path id="Line" class="st1" d="M26.2-2.6V8.3"/>
				</g>
				<path id="Line_1_" class="st2" d="M74.6-3V34"/>
				<g id="Oval-8-_x2B_-Rectangle-64" transform="translate(68.000000, 3.000000)">
					<ellipse id="Oval-8" class="st0" cx="39.6" cy="6" rx="5.5" ry="9.5"/>
					<path id="Rectangle-64" class="st3" d="M30.1,3.5h19c1.1,0,2,0.9,2,2v17c0,1.1-0.9,2-2,2h-19c-1.1,0-2-0.9-2-2v-17
						C28.1,4.4,29,3.5,30.1,3.5z"/>
				</g>
			</g>
		</g>
	</g>
</g>
</svg>
