<?xml version="1.0" encoding="UTF-8" standalone="no"?>
<svg width="132px" height="132px" viewBox="0 0 132 132" version="1.1" xmlns="http://www.w3.org/2000/svg" xmlns:xlink="http://www.w3.org/1999/xlink" xmlns:sketch="http://www.bohemiancoding.com/sketch/ns">
    <!-- Generator: Sketch 3.4.4 (17249) - http://www.bohemiancoding.com/sketch -->
    <title>Page 1</title>
    <desc>Created with Sketch.</desc>
    <defs>
        <path id="path-1" d="M0,0.0642857143 L131.935714,0.0642857143 L131.935714,132 L0,132 L0,0.0642857143 Z"></path>
    </defs>
    <g id="Page-1" stroke="none" stroke-width="1" fill="none" fill-rule="evenodd" sketch:type="MSPage">
        <g id="Bike-detail-page-Copy-4" sketch:type="MSArtboardGroup" transform="translate(-717.000000, -1084.000000)">
            <g id="Page-1" sketch:type="MSLayerGroup" transform="translate(717.000000, 1084.000000)">
                <path d="M53.6368169,78 L52,78 L52,82 L53.4036433,82 C55.0849473,82 56,81.4408 56,79.9824 C56,78.5416 55.1677852,78 53.6368169,78" id="Fill-1" fill="#FFFFFF" sketch:type="MSShapeGroup"></path>
                <path d="M22.576886,57.3125 C22.1416168,57.15 21.6893691,57 21.018715,57 L20,57 L20,62 L21.2039359,62 C21.8059039,62 22.2079877,61.9466667 22.5930928,61.7833333 C23.4474243,61.4583333 24,60.57 24,59.5391667 C24,58.5083333 23.4636311,57.6383333 22.576886,57.3125" id="Fill-3" fill="#FFFFFF" sketch:type="MSShapeGroup"></path>
                <path d="M44,57 L44,62 L45.1252654,62 C46.9868365,62 48,61.0008333 48,59.4816667 C48,57.9808333 47.0785563,57 45.3834395,57 L44,57 Z" id="Fill-5" fill="#FFFFFF" sketch:type="MSShapeGroup"></path>
                <path d="M43.8047614,85.507437 C44.5327469,84.7052704 45,83.3614479 45,82.0932852 C45,80.4330668 44.551678,79.2207893 43.5801702,78.2879374 C42.7592504,77.484911 41.6199445,77 40.5185008,77 C37.923224,77 36,79.1270742 36,81.9995701 C36,84.8918408 37.9051535,87 40.4814992,87 C41.7326704,87 42.9640501,86.4583441 43.8047614,85.507437" id="Fill-7" fill="#FFFFFF" sketch:type="MSShapeGroup"></path>
                <path d="M64.7825969,78 L63,78 L63,87 L63.7237734,87 C65.7178097,87 66.5643806,86.8077273 67.4117647,86.1335455 C68.4705882,85.2818182 69,84.1085455 69,82.3510909 C69,79.4923636 67.4825156,78 64.7825969,78" id="Fill-9" fill="#FFFFFF" sketch:type="MSShapeGroup"></path>
                <path d="M81,64 L86,64 L83.5394908,58 L81,64 Z" id="Fill-11" fill="#FFFFFF" sketch:type="MSShapeGroup"></path>
                <path d="M87.56587,78 L86,78 L86,82 L87.3256962,82 C89.0574758,82 90,81.4408 90,79.9824 C90,78.5416 89.1428007,78 87.56587,78" id="Fill-13" fill="#FFFFFF" sketch:type="MSShapeGroup"></path>
                <path d="M56.3179327,33.0018711 C56.2075176,32.9888711 56.101018,33.0478711 56,33.0478711 L56.3938919,33.0478711 L57,33.0478711 C56.8794049,33.0478711 56.7689898,33.0408711 56.6679718,33.0158711 C56.5465936,33.0158711 56.4291308,33.0158711 56.3179327,33.0018711" id="Fill-15" fill="#FFFFFF" sketch:type="MSShapeGroup"></path>
                <g id="Group-19">
                    <mask id="mask-2" sketch:name="Clip 18" fill="white">
                        <use xlink:href="#path-1"></use>
                    </mask>
                    <g id="Clip-18"></g>
                    <path d="M108.522686,57.2659714 L103.379829,57.2659714 L103.379829,61.5516857 L108.522686,61.5516857 L108.522686,63.2659714 L103.379829,63.2659714 L103.379829,67.5516857 L108.522686,67.5516857 L108.522686,68.4088286 L101.665543,68.4088286 L101.665543,56.4088286 L108.522686,56.4088286 L108.522686,57.2659714 Z M99.0615429,42.4262571 L99.8029714,38.2194 L97.3284,40.6939714 L96.9238286,40.2885429 L100.159543,37.0519714 L100.531543,37.4239714 L99.8141143,41.5776857 L102.250114,39.1416857 L102.654686,39.5471143 L99.4181143,42.7836857 L99.0615429,42.4262571 Z M94.9061143,68.7148286 C93.3264,68.7148286 92.3526857,68.1576857 91.7012571,67.0416857 C91.4046857,66.5394 91.3798286,66.0182571 91.3798286,65.4234 L91.3798286,64.9802571 L92.6561143,64.9802571 C92.7306857,66.6945429 93.4935429,67.2285429 94.8512571,67.2285429 C96.2458286,67.2285429 97.2315429,66.4194 97.2315429,65.1731143 C97.2315429,64.0948286 96.6735429,63.6148286 94.7201143,62.9642571 C93.2518286,62.4619714 92.7675429,62.2314 92.2104,61.7291143 C91.5769714,61.1531143 91.2426857,60.3405429 91.2426857,59.3916857 C91.2426857,57.2908286 92.7495429,56.0719714 94.9438286,56.0719714 C97.1389714,56.0719714 98.5704,57.2659714 98.6261143,59.8374 L97.0644,59.8374 C97.0446857,58.9802571 96.9709714,58.6974 96.7661143,58.3434 C96.4129714,57.8042571 95.7246857,57.3645429 94.9249714,57.3645429 C93.6975429,57.3645429 92.8241143,58.1479714 92.8241143,59.3385429 C92.8241143,59.9334 93.0838286,60.4279714 93.5304,60.7442571 C93.9212571,61.0236857 94.2555429,61.1591143 95.5206857,61.6056857 C96.8406857,62.0702571 97.4724,62.3985429 97.9746857,62.9376857 C98.5146857,63.5145429 98.8121143,64.2919714 98.8121143,65.1294 C98.8121143,67.2679714 97.2315429,68.7148286 94.9061143,68.7148286 L94.9061143,68.7148286 Z M93.8321143,97.7728286 L93.8192571,97.8105429 C93.7326857,97.8971143 93.6589714,97.9879714 93.5946857,98.0805429 C93.5338286,98.1756857 93.4601143,98.2656857 93.3735429,98.3514 C93.3272571,98.3942571 93.2844,98.4354 93.2415429,98.4791143 C93.1986857,98.5219714 93.1678286,98.5699714 93.1498286,98.6196857 C93.1069714,98.6634 93.0581143,98.7114 93.0109714,98.7679714 C92.9629714,98.8236857 92.9175429,98.8734 92.8755429,98.9145429 C92.8566857,98.9668286 92.8275429,99.0002571 92.7941143,99.0165429 C92.7589714,99.0354 92.7212571,99.0636857 92.6775429,99.1074 C92.6346857,99.1502571 92.5584,99.2385429 92.4538286,99.3756857 L92.0595429,99.7596857 L92.0458286,99.7991143 C91.9944,99.8668286 91.9378286,99.9268286 91.8744,99.9774 C91.8144,100.028829 91.7586857,100.088829 91.7064,100.1574 C91.5486857,100.2774 91.4424,100.369114 91.3901143,100.437686 C91.2521143,100.592829 91.0978286,100.741971 90.9306857,100.886829 C90.8621143,100.921971 90.8089714,100.9734 90.7669714,101.0454 C90.7266857,101.119971 90.6726857,101.173114 90.6049714,101.206543 C90.5706857,101.224543 90.5458286,101.244257 90.5372571,101.269114 C90.5029714,101.287114 90.4815429,101.308543 90.4721143,101.335114 C90.4635429,101.359971 90.4284,101.377971 90.3692571,101.385686 L90.3564,101.4234 C90.3015429,101.491114 90.2466857,101.545971 90.1918286,101.583686 C90.1361143,101.622257 90.0786857,101.6754 90.0272571,101.743114 L89.9886857,101.730257 C89.9278286,101.8254 89.8558286,101.900829 89.7786857,101.960829 C89.7015429,102.020829 89.6158286,102.093686 89.5301143,102.178543 C89.4958286,102.196543 89.4744,102.217114 89.4658286,102.241971 C89.3938286,102.2754 89.3441143,102.316543 89.3141143,102.364543 C89.2832571,102.411686 89.2344,102.451114 89.1624,102.484543 C89.0758286,102.571114 88.9961143,102.630257 88.9275429,102.662829 C88.8846857,102.705686 88.8435429,102.7434 88.8024,102.770829 C88.7629714,102.801686 88.7226857,102.838543 88.6798286,102.880543 C88.6361143,102.9234 88.5941143,102.9534 88.5606857,102.969686 C88.5255429,102.987686 88.4878286,103.016829 88.4441143,103.059686 C88.3644,103.118829 88.2949714,103.173686 88.2349714,103.225114 C88.1715429,103.275686 88.1029714,103.3314 88.0258286,103.3914 C87.8844,103.544829 87.7224,103.675971 87.5389714,103.786543 C87.4532571,103.8714 87.2955429,103.9914 87.0692571,104.144829 C87.0006857,104.179114 86.9381143,104.227971 86.8858286,104.296543 C86.8335429,104.365971 86.7735429,104.4174 86.7024,104.449114 C86.5472571,104.570829 86.4332571,104.6454 86.3646857,104.679686 C86.3561143,104.7054 86.3449714,104.7174 86.3286857,104.7114 C86.3166857,104.707114 86.3055429,104.7174 86.2969714,104.743114 L86.2326857,104.8074 C86.1726857,104.815971 86.0964,104.862257 86.0106857,104.947114 C85.9678286,104.990829 85.9266857,105.027686 85.8855429,105.055114 C85.8461143,105.085971 85.7929714,105.118543 85.7218286,105.150257 L85.7081143,105.189686 C85.6995429,105.2154 85.7149714,105.220543 85.7492571,105.204257 C85.8246857,105.229971 85.9498286,105.2454 86.1221143,105.247114 C86.1761143,105.265971 86.2181143,105.265971 86.2524,105.247971 C86.3312571,105.2754 86.3861143,105.280543 86.4204,105.262543 C86.5078286,105.264257 86.5892571,105.264257 86.6612571,105.259114 C86.7332571,105.255686 86.8146857,105.255686 86.8995429,105.255686 C87.0744,105.259971 87.2166857,105.265114 87.3272571,105.273686 C87.3898286,105.266829 87.4549714,105.260829 87.5304,105.2574 C87.6024,105.253971 87.6709714,105.249686 87.7301143,105.240257 L87.8064,105.266829 C87.9281143,105.250543 88.0995429,105.253971 88.3258286,105.273686 L88.4046857,105.301114 C88.4638286,105.2934 88.5186857,105.296829 88.5726857,105.315686 C88.6232571,105.332829 88.6806857,105.338829 88.7398286,105.331114 C88.8152571,105.357686 88.8726857,105.405686 88.9052571,105.475114 C88.9155429,105.536829 88.9018286,105.618257 88.8658286,105.720257 C88.7946857,105.753686 88.7338286,105.805114 88.6824,105.873686 C88.6301143,105.942257 88.5624,106.005686 88.4844,106.066543 C88.4415429,106.110257 88.4029714,106.138543 88.3661143,106.153971 C88.3318286,106.171971 88.3061143,106.2054 88.2881143,106.257686 C88.2015429,106.344257 88.1081143,106.419686 88.0138286,106.4874 C87.9161143,106.555971 87.8261143,106.632257 87.7369714,106.717971 C87.6684,106.752257 87.6298286,106.7814 87.6212571,106.806257 C87.4969714,106.909971 87.3838286,106.992257 87.2741143,107.054829 C87.1635429,107.119114 87.0624,107.205686 86.9672571,107.317114 C86.8875429,107.376257 86.8181143,107.432829 86.7581143,107.482543 C86.6946857,107.533114 86.6304,107.575971 86.5618286,107.611114 C86.4906857,107.644543 86.4238286,107.6934 86.3595429,107.757686 C86.2918286,107.820257 86.2249714,107.869971 86.1572571,107.904257 C86.0766857,107.962543 86.0012571,108.016543 85.9258286,108.061971 C85.8529714,108.109114 85.7775429,108.163114 85.6978286,108.2214 C85.6292571,108.255686 85.5735429,108.295114 85.5272571,108.3354 C85.4844,108.378257 85.4235429,108.429686 85.3464,108.489686 L85.1355429,108.590829 C85.0146857,108.693686 84.8964,108.781971 84.7841143,108.859114 C84.6701143,108.934543 84.5415429,109.020257 84.3924,109.113686 C84.2775429,109.189971 84.1626857,109.257686 84.0401143,109.315971 C83.9175429,109.375114 83.7975429,109.455686 83.6741143,109.557686 C83.5875429,109.644257 83.4384,109.736829 83.2309714,109.837971 C83.1589714,109.8714 83.0946857,109.914257 83.0346857,109.965686 C82.9712571,110.016257 82.9078286,110.0574 82.8392571,110.091686 C82.7586857,110.150829 82.6515429,110.215971 82.5118286,110.281971 C82.4432571,110.316257 82.3935429,110.350543 82.3678286,110.383971 C82.3412571,110.419114 82.2941143,110.4534 82.2229714,110.485114 C82.0858286,110.554543 81.9761143,110.617114 81.8989714,110.676257 L81.7935429,110.725971 L81.6906857,110.7774 C81.6812571,110.803971 81.6392571,110.833971 81.5715429,110.866543 L81.5201143,110.893114 C81.4772571,110.935971 81.4275429,110.968543 81.3752571,110.994257 C81.3246857,111.019114 81.2612571,111.048257 81.1935429,111.082543 L81.1421143,111.1074 L81.1284,111.146829 L81.1661143,111.159686 C81.2449714,111.187114 81.3289714,111.2094 81.4249714,111.228257 C81.5209714,111.247971 81.6178286,111.272829 81.7215429,111.308829 C81.8346857,111.319114 81.9426857,111.343114 82.0438286,111.378257 C82.1475429,111.414257 82.2564,111.4374 82.3695429,111.446829 C82.4286857,111.439114 82.5118286,111.453686 82.6121143,111.488829 C82.7501143,111.508543 82.8846857,111.538543 83.0132571,111.583971 C83.1426857,111.628543 83.2764,111.661114 83.4144,111.679971 L83.5309714,111.721114 C83.5652571,111.703114 83.6355429,111.7134 83.7366857,111.747686 C83.7281143,111.7734 83.7384,111.793114 83.7641143,111.801686 C83.8232571,111.792257 83.8609714,111.805114 83.8806857,111.841971 C83.9124,111.9114 83.9201143,111.970543 83.9021143,112.022829 L83.8892571,112.060543 C83.8369714,112.130829 83.8061143,112.1994 83.7958286,112.267971 C83.7864,112.3374 83.7469714,112.388829 83.6792571,112.4214 C83.6346857,112.550829 83.5738286,112.653686 83.5052571,112.729971 C83.4358286,112.807971 83.3706857,112.893686 83.3072571,112.986257 C83.2635429,113.029114 83.2352571,113.070257 83.2224,113.107971 C83.2086857,113.1474 83.1804,113.1894 83.1375429,113.230543 L82.9404,113.4234 C82.8444,113.534829 82.7441143,113.652257 82.6446857,113.776543 C82.5418286,113.899114 82.4449714,114.0174 82.3489714,114.128829 C82.2092571,114.196543 82.1235429,114.282257 82.0875429,114.385971 C81.9735429,114.460543 81.8278286,114.584829 81.6529714,114.753686 C81.5141143,114.908829 81.3478286,115.053686 81.1558286,115.189971 C81.0692571,115.274829 80.9878286,115.347686 80.9072571,115.407686 C80.8301143,115.466829 80.7452571,115.538829 80.6586857,115.624543 C80.5901143,115.659686 80.5232571,115.701686 80.4632571,115.7514 C80.4032571,115.802829 80.3312571,115.856829 80.2541143,115.916829 C80.1761143,115.977686 80.0878286,116.041114 79.9935429,116.108829 C79.8958286,116.1774 79.8101143,116.240829 79.7295429,116.299971 C79.5032571,116.452543 79.3206857,116.562257 79.1809714,116.629971 C79.1124,116.664257 79.0592571,116.695114 79.0206857,116.725971 C78.9786857,116.754257 78.9255429,116.786829 78.8569714,116.821114 C78.7678286,116.905114 78.6735429,116.974543 78.5672571,117.024257 C78.4652571,117.074829 78.3726857,117.129686 78.2946857,117.188829 C78.1215429,117.273686 77.9621143,117.355971 77.8172571,117.436543 C77.6766857,117.516257 77.5301143,117.602829 77.3818286,117.696257 L76.7544,117.998829 C76.5461143,118.099971 76.3935429,118.1634 76.3001143,118.189114 C76.2315429,118.2234 76.1604,118.255114 76.0918286,118.290257 C76.0206857,118.323686 75.9521143,118.357971 75.8844,118.390543 C75.6478286,118.483114 75.4292571,118.573971 75.2252571,118.6614 C75.0221143,118.749686 74.8172571,118.831114 74.6184,118.906543 C74.5498286,118.940829 74.4684,118.962257 74.3792571,118.975114 C74.2866857,118.987114 74.2086857,119.0094 74.1366857,119.042829 C74.0681143,119.077114 73.9935429,119.109686 73.9104,119.137114 C73.8289714,119.167114 73.7509714,119.198829 73.6824,119.233114 C73.6489714,119.2494 73.6172571,119.259686 73.5838286,119.263971 C73.5538286,119.268257 73.5221143,119.277686 73.4886857,119.294829 C73.3918286,119.318829 73.3129714,119.342829 73.2461143,119.362543 C73.1818286,119.383971 73.1004,119.407114 73.0069714,119.431114 C72.9469714,119.440543 72.8458286,119.4774 72.7069714,119.5434 C72.5166857,119.593971 72.4026857,119.6274 72.3684,119.643686 C72.2749714,119.6694 72.1866857,119.689971 72.1104,119.7054 C72.0306857,119.722543 71.9424,119.743114 71.8489714,119.767114 C71.7529714,119.791971 71.6672571,119.8134 71.5884,119.827971 C71.5112571,119.845971 71.4229714,119.866543 71.3304,119.890543 L71.2755429,119.9154 C71.2069714,119.949686 71.1221143,119.970257 71.0175429,119.977971 C70.9129714,119.983971 70.8281143,120.0054 70.7561143,120.038829 C70.6875429,120.073114 70.6266857,120.087686 70.5684,120.081686 C70.5135429,120.078257 70.4518286,120.091971 70.3806857,120.1254 C70.3121143,120.159686 70.2538286,120.175114 70.2118286,120.174257 C70.1689714,120.175971 70.1106857,120.190543 70.0421143,120.225686 C70.0172571,120.216257 69.9872571,120.220543 69.9504,120.235971 C69.8998286,120.217971 69.8569714,120.219686 69.8235429,120.235971 C69.8141143,120.260829 69.7978286,120.2694 69.7695429,120.259114 C69.6221143,120.266829 69.4189714,120.313114 69.1609714,120.396257 C69.0984,120.402257 69.0324,120.409971 68.9578286,120.411686 C68.8849714,120.416829 68.8164,120.421114 68.7572571,120.428829 C68.7478286,120.4554 68.7315429,120.463971 68.7058286,120.4554 L68.5892571,120.415114 L68.5104,120.387686 C68.4452571,120.250543 68.4486857,120.1494 68.5292571,120.090257 C68.5378286,120.0654 68.5592571,120.043114 68.5935429,120.025971 C68.6621143,119.991686 68.7486857,119.956543 68.8464,119.917971 C68.9475429,119.881114 69.0298286,119.845971 69.1026857,119.810829 L69.4669714,119.634257 C69.6315429,119.576829 69.7755429,119.518543 69.8955429,119.457686 C70.0181143,119.400257 70.1492571,119.335971 70.2855429,119.269114 C70.4595429,119.184257 70.6378286,119.0874 70.8212571,118.975971 C71.0038286,118.867114 71.1821143,118.7694 71.3561143,118.6854 C71.4615429,118.635686 71.5661143,118.578257 71.6766857,118.513971 C71.7838286,118.450543 71.8909714,118.394829 71.9972571,118.344257 C72.0306857,118.327971 72.0589714,118.308257 72.0812571,118.285971 C72.1018286,118.264543 72.1301143,118.245686 72.1644,118.227686 C72.2698286,118.177971 72.3778286,118.122257 72.4841143,118.058829 C72.5946857,117.994543 72.7035429,117.924257 72.8184,117.847971 L73.3292571,117.504257 C73.4492571,117.403114 73.5684,117.313971 73.6798286,117.235971 C73.7946857,117.1614 73.9215429,117.088543 74.0578286,117.021686 L74.0715429,116.982257 C74.1178286,116.940257 74.1735429,116.902543 74.2421143,116.868257 L74.2935429,116.841686 C74.3115429,116.790257 74.3381143,116.763686 74.3672571,116.760257 C74.3972571,116.755971 74.4341143,116.731971 74.4769714,116.688257 C74.5661143,116.605114 74.6561143,116.528829 74.7538286,116.460257 C74.8481143,116.392543 74.9415429,116.3154 75.0281143,116.230543 C75.0709714,116.186829 75.1438286,116.139686 75.2492571,116.089971 C75.3392571,116.005114 75.4138286,115.930543 75.4789714,115.866257 C75.5432571,115.801971 75.6178286,115.7394 75.6949714,115.680257 C75.7755429,115.621114 75.8441143,115.566257 75.9041143,115.514829 C75.9649714,115.462543 76.0284,115.3914 76.0892571,115.296257 L76.1406857,115.2714 C76.2118286,115.237971 76.2504,115.208829 76.2598286,115.182257 C76.3112571,115.113686 76.3806857,115.0374 76.4698286,114.951686 C76.5564,114.866829 76.6164,114.8154 76.6506857,114.7974 C76.6875429,114.781971 76.7569714,114.703971 76.8615429,114.566829 C76.9044,114.523971 76.9481143,114.489686 76.9866857,114.458829 C77.0261143,114.427971 77.0664,114.392829 77.1092571,114.349971 C77.1186857,114.324257 77.1315429,114.307971 77.1521143,114.2994 C77.1684,114.290829 77.1812571,114.273686 77.1906857,114.247114 C77.2181143,114.169971 77.2481143,114.123686 77.2824,114.105686 C77.3072571,114.115114 77.3244,114.106543 77.3338286,114.079971 C77.4315429,113.971114 77.5249714,113.865686 77.6158286,113.766257 C77.7092571,113.668543 77.8018286,113.564829 77.9004,113.452543 L77.9406857,113.337686 C77.9835429,113.293971 77.9672571,113.260543 77.8884,113.233114 C77.7666857,113.248543 77.6655429,113.234829 77.5789714,113.1894 C77.4924,113.144829 77.3964,113.104543 77.2961143,113.0694 L76.7132571,112.867114 C76.5838286,112.822543 76.4424,112.773686 76.2881143,112.719686 C76.1338286,112.666543 75.9872571,112.6314 75.8492571,112.611686 L75.1146857,112.357114 C74.9321143,112.293686 74.7984,112.261971 74.7144,112.260257 C74.6604,112.242257 74.6192571,112.220829 74.5858286,112.194257 C74.5489714,112.167686 74.5069714,112.146257 74.4564,112.129114 C74.3269714,112.083686 74.2318286,112.064829 74.1726857,112.072543 C74.0689714,112.036543 73.9944,111.996257 73.9524,111.954257 C73.9112571,111.9114 73.8924,111.853971 73.9018286,111.784543 C73.9112571,111.715971 73.9506857,111.663686 74.0226857,111.630257 C74.1675429,111.535971 74.3081143,111.447686 74.4392571,111.363686 C74.5712571,111.278829 74.7084,111.188829 74.8575429,111.096257 C74.9346857,111.036257 75.0186857,110.986543 75.1044,110.943686 C75.1926857,110.901686 75.2741143,110.850257 75.3546857,110.791971 C75.5801143,110.6394 75.7464,110.538257 75.8484,110.486829 C75.9204,110.4534 75.9761143,110.414829 76.0189714,110.371114 C76.0618286,110.329971 76.1209714,110.292257 76.1895429,110.257114 C76.2829714,110.2314 76.4098286,110.161114 76.5675429,110.041114 C76.6352571,110.008543 76.6944,109.970829 76.7381143,109.927114 C76.7809714,109.884257 76.8366857,109.846543 76.9078286,109.813114 C76.9335429,109.821686 76.9498286,109.813971 76.9592571,109.7874 L77.0106857,109.762543 C77.1932571,109.651114 77.3698286,109.539686 77.5404,109.425686 C77.7109714,109.309971 77.8866857,109.198543 78.0701143,109.088829 C78.1378286,109.054543 78.1918286,109.021971 78.2304,108.992829 C78.2724,108.962829 78.3255429,108.931971 78.3941143,108.897686 C78.4652571,108.864257 78.5321143,108.8154 78.5964,108.751114 C78.6641143,108.687686 78.7309714,108.638829 78.7986857,108.604543 C78.8612571,108.597686 78.9041143,108.5754 78.9298286,108.541971 C78.9564,108.506829 78.9864,108.481971 79.0241143,108.464829 L79.5315429,108.120257 C79.6892571,108.001971 79.8204,107.917114 79.9232571,107.866543 C80.0286857,107.816829 80.1272571,107.756829 80.2249714,107.689114 C80.3192571,107.620543 80.4118286,107.545971 80.4984,107.4594 C80.6038286,107.408829 80.7324,107.323114 80.8901143,107.204829 C81.0049714,107.128543 81.1464,107.004257 81.3221143,106.834543 C81.3478286,106.843114 81.3641143,106.834543 81.3735429,106.807971 L81.2981143,106.7814 C81.1438286,106.728257 81.0101143,106.6974 80.8969714,106.687114 C80.7178286,106.624543 80.5712571,106.587686 80.4589714,106.5774 L79.9172571,106.388829 C79.8289714,106.388829 79.6824,106.351971 79.4775429,106.280829 L79.1278286,106.159971 C78.9666857,106.045114 78.9615429,105.928543 79.1192571,105.808543 C79.2084,105.7254 79.2855429,105.6654 79.3541143,105.631114 C79.4758286,105.614829 79.6069714,105.531686 79.7458286,105.376543 L79.9026857,105.300257 L79.9164,105.261686 C79.9875429,105.229114 80.0432571,105.190543 80.0861143,105.147686 C80.1298286,105.103971 80.1846857,105.067114 80.2566857,105.033686 C80.2652571,105.007971 80.2875429,104.985686 80.3209714,104.9694 C80.3466857,104.977971 80.3886857,104.948829 80.4401143,104.880257 C80.5086857,104.845971 80.5498286,104.809114 80.5626857,104.770543 C80.5764,104.731114 80.6158286,104.709686 80.6758286,104.700257 C80.7178286,104.659114 80.7615429,104.6154 80.8044,104.572543 C80.8506857,104.532257 80.8935429,104.488543 80.9372571,104.445686 C81.0049714,104.410543 81.0512571,104.370257 81.0692571,104.317971 C81.1558286,104.232257 81.2398286,104.1534 81.3246857,104.080543 C81.4061143,104.008543 81.4935429,103.930543 81.5792571,103.843971 C81.7284,103.7514 81.8406857,103.6314 81.9195429,103.485686 C82.0266857,103.348543 82.1175429,103.250829 82.1946857,103.189114 L82.3275429,103.062257 C82.3361143,103.0374 82.3832571,102.981686 82.4732571,102.895971 C82.5066857,102.879686 82.5281143,102.859114 82.5375429,102.831686 C82.5461143,102.806829 82.5726857,102.771686 82.6164,102.728829 C82.6515429,102.625971 82.7038286,102.5574 82.7749714,102.523971 C82.8272571,102.456257 82.8786857,102.387686 82.9318286,102.3174 C82.9866857,102.249686 83.0389714,102.181971 83.0904,102.1134 C83.1084,102.061114 83.1512571,102.019971 83.2198286,101.984829 C83.2378286,101.9334 83.2609714,101.8974 83.2824,101.875971 C83.3038286,101.8554 83.3235429,101.818543 83.3415429,101.766257 C83.3586857,101.715686 83.4024,101.672829 83.4709714,101.637686 L83.4975429,101.560543 C83.5524,101.493686 83.6055429,101.4234 83.6569714,101.354829 C83.7092571,101.286257 83.7606857,101.218543 83.8129714,101.149971 C83.8309714,101.097686 83.8669714,101.044543 83.9149714,100.988829 C83.9621143,100.934829 83.9946857,100.880829 84.0126857,100.828543 C84.0555429,100.785686 84.0864,100.737686 84.1044,100.686257 C84.1506857,100.645114 84.1806857,100.597971 84.1986857,100.545686 C84.2166857,100.494257 84.2466857,100.447971 84.2904,100.405114 C84.3949714,100.266257 84.5201143,100.078543 84.6589714,99.8394 C84.7121143,99.7691143 84.7489714,99.7031143 84.7712571,99.6379714 C84.7935429,99.5754 84.8338286,99.5085429 84.8861143,99.4399714 C84.9898286,99.3028286 85.0601143,99.1828286 85.0961143,99.0782571 L85.1089714,99.0405429 C85.1895429,98.9822571 85.2349714,98.9111143 85.2504,98.8279714 C85.2641143,98.7465429 85.2975429,98.6719714 85.3489714,98.6034 C85.3926857,98.5596857 85.4252571,98.5065429 85.4475429,98.4414 C85.4698286,98.3788286 85.5024,98.3248286 85.5452571,98.2811143 L85.6129714,98.0874 C85.6592571,98.0454 85.6986857,97.9725429 85.7346857,97.8688286 C85.7775429,97.8268286 85.8126857,97.7668286 85.8392571,97.6896857 C85.8572571,97.6374 85.8941143,97.5919714 85.9498286,97.5534 C86.0081143,97.5174 86.0621143,97.5054 86.1118286,97.5234 C86.2952571,97.5868286 86.4324,97.6065429 86.5266857,97.5808286 C86.6055429,97.6082571 86.6818286,97.6202571 86.7546857,97.6151143 C86.8258286,97.6116857 86.9072571,97.6116857 86.9921143,97.6116857 C87.0452571,97.6296857 87.0795429,97.6348286 87.0966857,97.6262571 C87.1129714,97.6185429 87.1498286,97.6236857 87.2004,97.6416857 C87.3221143,97.6254 87.4952571,97.6271143 87.7172571,97.6459714 C87.8389714,97.6322571 87.9486857,97.6322571 88.0438286,97.6519714 C88.1364,97.6699714 88.2332571,97.6656857 88.3266857,97.6399714 C88.4484,97.6262571 88.5512571,97.6245429 88.6309714,97.6382571 C88.7141143,97.6528286 88.8041143,97.6485429 88.8975429,97.6228286 L88.9352571,97.6365429 C89.0141143,97.6631143 89.0895429,97.6596857 89.1581143,97.6254 C89.2172571,97.6176857 89.2626857,97.6194 89.2875429,97.6279714 C89.3124,97.6365429 89.3552571,97.6374 89.4178286,97.6288286 C89.5018286,97.6296857 89.5892571,97.6322571 89.6741143,97.6314 C89.7615429,97.6339714 89.8626857,97.6382571 89.9724,97.6485429 C90.0941143,97.6322571 90.1815429,97.6348286 90.2321143,97.6519714 C90.3032571,97.6185429 90.3838286,97.6108286 90.4798286,97.6288286 C90.5724,97.6468286 90.6564,97.6399714 90.7241143,97.6056857 C90.8466857,97.5894 90.9341143,97.5919714 90.9846857,97.6091143 C91.0352571,97.6271143 91.0969714,97.6202571 91.1655429,97.5859714 C91.1904,97.5945429 91.2152571,97.5962571 91.2324,97.5859714 C91.2495429,97.5774 91.2709714,97.5782571 91.2958286,97.5868286 C91.3464,97.6039714 91.4081143,97.5979714 91.4766857,97.5628286 C91.5109714,97.5465429 91.5821143,97.5551143 91.6858286,97.5919714 C91.7449714,97.5834 91.8041143,97.5765429 91.8666857,97.5679714 C91.9258286,97.5602571 91.9884,97.5534 92.0484,97.5439714 C92.0732571,97.5534 92.1478286,97.5508286 92.2669714,97.5336857 L92.9304,97.5028286 C92.9989714,97.4702571 93.0606857,97.4539714 93.1181143,97.4599714 C93.1729714,97.4651143 93.2329714,97.4651143 93.2929714,97.4556857 C93.3521143,97.4479714 93.4086857,97.4376857 93.4549714,97.4256857 C93.5021143,97.4136857 93.5586857,97.4025429 93.6178286,97.3948286 L93.7721143,97.4488286 C93.8578286,97.5371143 93.8766857,97.6442571 93.8321143,97.7728286 L93.8321143,97.7728286 Z M64.7509714,88.9802571 L61.3798286,88.9802571 L61.3798286,76.1231143 L65.0295429,76.1231143 C68.7675429,76.1231143 71.0175429,78.4528286 71.0175429,82.1908286 C71.0175429,84.2925429 70.3292571,86.2185429 69.0649714,87.3525429 C67.9866857,88.3194 66.5544,88.9802571 64.7509714,88.9802571 L64.7509714,88.9802571 Z M65.2464,120.903686 L65.1675429,120.931114 L65.0509714,120.9714 C65.0261143,120.979971 65.0089714,120.972257 64.9995429,120.944829 C64.9404,120.937114 64.8718286,120.932829 64.7998286,120.927686 C64.7252571,120.925971 64.6592571,120.918257 64.5966857,120.912257 C64.3386857,120.828257 64.1355429,120.782829 63.9881143,120.775114 C63.9598286,120.7854 63.9426857,120.776829 63.9341143,120.751971 C63.8998286,120.735686 63.8578286,120.733971 63.8072571,120.751971 C63.7695429,120.736543 63.7404,120.732257 63.7155429,120.741686 C63.6469714,120.706543 63.5886857,120.691971 63.5458286,120.690257 C63.5038286,120.691114 63.4455429,120.675686 63.3769714,120.6414 C63.3058286,120.607971 63.2441143,120.594257 63.1884,120.597686 C63.1309714,120.603686 63.0692571,120.589114 63.0006857,120.554829 C62.9295429,120.5214 62.8446857,120.499971 62.7401143,120.493971 C62.6346857,120.486257 62.5506857,120.465686 62.4821143,120.4314 L62.4272571,120.406543 C62.3338286,120.382543 62.2455429,120.361971 62.1692571,120.343971 C62.0895429,120.3294 62.0046857,120.307971 61.9078286,120.283114 C61.8152571,120.259114 61.7269714,120.238543 61.6464,120.2214 C61.5709714,120.205971 61.4826857,120.1854 61.3884,120.159686 C61.3549714,120.1434 61.2409714,120.109971 61.0506857,120.060257 C60.9109714,119.9934 60.8098286,119.956543 60.7506857,119.947114 C60.6572571,119.923114 60.5749714,119.899971 60.5115429,119.878543 C60.4446857,119.858829 60.3658286,119.834829 60.2689714,119.810829 C60.2346857,119.793686 60.2029714,119.784257 60.1738286,119.779971 C60.1404,119.775686 60.1086857,119.7654 60.0744,119.749114 C60.0058286,119.714829 59.9286857,119.683114 59.8472571,119.653114 C59.7632571,119.625686 59.6886857,119.593114 59.6201143,119.558829 C59.5489714,119.5254 59.4709714,119.503114 59.3784,119.491114 C59.2892571,119.478257 59.2078286,119.456829 59.1392571,119.422543 C58.9395429,119.347114 58.7355429,119.265686 58.5315429,119.1774 C58.3284,119.089971 58.1098286,118.999114 57.8732571,118.906543 C57.8055429,118.873971 57.7369714,118.839686 57.6649714,118.806257 C57.5964,118.771971 57.5261143,118.7394 57.4575429,118.705114 C57.3641143,118.6794 57.2106857,118.615971 57.0032571,118.514829 L56.3758286,118.212257 C56.2266857,118.118829 56.0801143,118.032257 55.9395429,117.952543 C55.7955429,117.871971 55.6361143,117.789686 55.4621143,117.704829 C55.3849714,117.645686 55.2924,117.590829 55.1895429,117.540257 C55.0841143,117.490543 54.9898286,117.421114 54.9006857,117.337114 C54.8321143,117.302829 54.7781143,117.270257 54.7369714,117.241971 C54.6984,117.211114 54.6452571,117.180257 54.5766857,117.145971 C54.4361143,117.078257 54.2535429,116.968543 54.0281143,116.815971 C53.9475429,116.756829 53.8618286,116.6934 53.7641143,116.624829 C53.6698286,116.557114 53.5806857,116.493686 53.5035429,116.432829 C53.4264,116.372829 53.3544,116.318829 53.2944,116.2674 C53.2344,116.217686 53.1666857,116.175686 53.0989714,116.140543 C53.0124,116.054829 52.9275429,115.982829 52.8504,115.923686 C52.7689714,115.863686 52.6875429,115.790829 52.6018286,115.705971 C52.4098286,115.569686 52.2426857,115.424829 52.1046857,115.269686 C51.9298286,115.100829 51.7841143,114.976543 51.6701143,114.901971 C51.6341143,114.798257 51.5475429,114.7134 51.4078286,114.644829 C51.3126857,114.5334 51.2149714,114.415114 51.1129714,114.292543 C51.0126857,114.168257 50.9124,114.050829 50.8172571,113.9394 L50.6201143,113.746543 C50.5772571,113.7054 50.5489714,113.6634 50.5352571,113.624829 C50.5215429,113.586257 50.4932571,113.545114 50.4504,113.502257 C50.3861143,113.409686 50.3218286,113.323971 50.2524,113.245971 C50.1829714,113.169686 50.1229714,113.066829 50.0784,112.9374 C50.0098286,112.904829 49.9712571,112.8534 49.9609714,112.783971 C49.9515429,112.7154 49.9206857,112.646829 49.8684,112.576543 L49.8546857,112.538829 C49.8366857,112.486543 49.8444,112.4274 49.8769714,112.357971 C49.8958286,112.321114 49.9335429,112.308257 49.9935429,112.317686 C50.0184,112.309114 50.0295429,112.2894 50.0209714,112.263686 C50.1212571,112.2294 50.1924,112.219114 50.2266857,112.237114 L50.3432571,112.195971 C50.4812571,112.177114 50.6149714,112.144543 50.7435429,112.099971 C50.8729714,112.054543 51.0066857,112.024543 51.1446857,112.004829 C51.2458286,111.969686 51.3289714,111.955114 51.3881143,111.962829 C51.5012571,111.9534 51.6092571,111.930257 51.7138286,111.894257 C51.8141143,111.859114 51.9229714,111.835114 52.0352571,111.824829 C52.1389714,111.788829 52.2366857,111.763971 52.3326857,111.744257 C52.4278286,111.7254 52.5118286,111.703114 52.5906857,111.675686 L52.6284,111.662829 L52.6146857,111.6234 L52.5641143,111.598543 C52.4955429,111.564257 52.4329714,111.535114 52.3815429,111.510257 C52.3301143,111.484543 52.2804,111.451971 52.2366857,111.409114 L52.1852571,111.382543 C52.1175429,111.349971 52.0755429,111.319971 52.0661143,111.2934 L51.9641143,111.241971 L51.8586857,111.192257 C51.7815429,111.133114 51.6709714,111.070543 51.5346857,111.001114 C51.4635429,110.9694 51.4164,110.935114 51.3898286,110.899971 C51.3641143,110.866543 51.3135429,110.833114 51.2449714,110.797971 C51.1061143,110.731971 50.9981143,110.666829 50.9184,110.608543 C50.8498286,110.5734 50.7855429,110.532257 50.7221143,110.481686 C50.6621143,110.430257 50.5978286,110.3874 50.5266857,110.353971 C50.3184,110.252829 50.1701143,110.160257 50.0835429,110.073686 C49.9601143,109.971686 49.8401143,109.891114 49.7166857,109.831971 C49.5949714,109.773686 49.4792571,109.705971 49.3644,109.629686 C49.2161143,109.536257 49.0875429,109.450543 48.9726857,109.375114 C48.8612571,109.297971 48.7429714,109.209686 48.6221143,109.106829 L48.4104,109.005686 C48.3332571,108.945686 48.2732571,108.894257 48.2295429,108.8514 C48.1841143,108.811114 48.1284,108.771686 48.0598286,108.7374 C47.9792571,108.679114 47.9046857,108.625114 47.8318286,108.577971 C47.7555429,108.532543 47.6809714,108.478543 47.6004,108.420257 C47.5318286,108.385971 47.4658286,108.336257 47.3981143,108.273686 C47.3329714,108.2094 47.2669714,108.160543 47.1949714,108.127114 C47.1264,108.091971 47.0621143,108.049114 46.9986857,107.998543 C46.9395429,107.948829 46.8701143,107.892257 46.7895429,107.833114 C46.6944,107.721686 46.5941143,107.635114 46.4835429,107.570829 C46.3738286,107.508257 46.2598286,107.425971 46.1364,107.322257 C46.1278286,107.2974 46.0892571,107.268257 46.0206857,107.233971 C45.9306857,107.148257 45.8406857,107.071971 45.7429714,107.0034 C45.6486857,106.935686 45.5561143,106.860257 45.4695429,106.773686 C45.4515429,106.7214 45.4258286,106.687971 45.3906857,106.669971 C45.3538286,106.654543 45.3161143,106.626257 45.2724,106.582543 C45.1944,106.521686 45.1266857,106.458257 45.0752571,106.389686 C45.0229714,106.321971 44.9629714,106.269686 44.8909714,106.236257 C44.8558286,106.134257 44.8412571,106.052829 44.8515429,105.991114 C44.8841143,105.921686 44.9415429,105.873686 45.0169714,105.847114 C45.0761143,105.854829 45.1344,105.848829 45.1849714,105.831686 C45.2381143,105.812829 45.2938286,105.8094 45.3529714,105.817114 L45.4318286,105.789686 C45.6572571,105.769971 45.8295429,105.766543 45.9512571,105.782829 L46.0266857,105.756257 C46.0866857,105.765686 46.1552571,105.769971 46.2272571,105.7734 C46.3026857,105.776829 46.3678286,105.782829 46.4304,105.789686 C46.5401143,105.781114 46.6832571,105.775971 46.8581143,105.771686 C46.9429714,105.771686 47.0244,105.771686 47.0955429,105.775114 C47.1684,105.780257 47.2498286,105.780257 47.3372571,105.778543 C47.3715429,105.796543 47.4264,105.7914 47.5052571,105.763971 C47.5395429,105.781971 47.5815429,105.781971 47.6355429,105.763114 C47.8078286,105.7614 47.9329714,105.745971 48.0084,105.720257 C48.0426857,105.736543 48.0581143,105.7314 48.0495429,105.705686 L48.0358286,105.666257 C47.9646857,105.634543 47.9106857,105.601971 47.8721143,105.571114 C47.8309714,105.543686 47.7898286,105.506829 47.7461143,105.463114 C47.6604,105.378257 47.5849714,105.332829 47.5249714,105.3234 L47.4606857,105.259114 C47.4512571,105.234257 47.4409714,105.223114 47.4281143,105.2274 C47.4126857,105.2334 47.4015429,105.2214 47.3929714,105.195686 C47.3244,105.1614 47.2095429,105.086829 47.0552571,104.965971 C46.9841143,104.9334 46.9241143,104.881971 46.8709714,104.812543 C46.8195429,104.743971 46.7561143,104.695114 46.6875429,104.660829 C46.4621143,104.5074 46.3044,104.388257 46.2178286,104.302543 C46.0344,104.191971 45.8732571,104.060829 45.7309714,103.9074 C45.6538286,103.8474 45.5852571,103.791686 45.5218286,103.741114 C45.4618286,103.689686 45.3932571,103.633971 45.3126857,103.575686 C45.2698286,103.532829 45.2312571,103.503686 45.1969714,103.485686 C45.1626857,103.4694 45.1206857,103.4394 45.0778286,103.396543 C45.0349714,103.354543 44.9938286,103.317686 44.9552571,103.286829 C44.9132571,103.2594 44.8729714,103.221686 44.8292571,103.178829 C44.7615429,103.146257 44.6809714,103.087114 44.5944,103.000543 C44.5232571,102.967114 44.4744,102.927686 44.4435429,102.880543 C44.4126857,102.832543 44.3629714,102.7914 44.2918286,102.757971 C44.2832571,102.733114 44.2618286,102.712543 44.2275429,102.694543 C44.1409714,102.609686 44.0561143,102.536829 43.9789714,102.476829 C43.9018286,102.416829 43.8298286,102.3414 43.7681143,102.246257 L43.7304,102.259114 C43.6781143,102.1914 43.6215429,102.138257 43.5658286,102.099686 C43.5101143,102.061971 43.4561143,102.007114 43.4004,101.9394 L43.3875429,101.901686 C43.3284,101.893971 43.2941143,101.875971 43.2855429,101.851114 C43.2761143,101.824543 43.2546857,101.803114 43.2204,101.785114 C43.2118286,101.760257 43.1869714,101.740543 43.1526857,101.722543 C43.0849714,101.689114 43.0309714,101.635971 42.9906857,101.5614 C42.9478286,101.4894 42.8946857,101.437971 42.8261143,101.402829 C42.6598286,101.257971 42.5055429,101.108829 42.3666857,100.953686 C42.3152571,100.885114 42.2089714,100.7934 42.0512571,100.6734 C41.9989714,100.604829 41.9432571,100.544829 41.8824,100.4934 C41.8189714,100.442829 41.7632571,100.382829 41.7109714,100.315114 L41.6972571,100.275686 L41.3029714,99.8916857 C41.1992571,99.7545429 41.1229714,99.6662571 41.0792571,99.6234 C41.0364,99.5796857 40.9978286,99.5514 40.9635429,99.5334 C40.9292571,99.5162571 40.9001143,99.4828286 40.8821143,99.4305429 C40.8392571,99.3885429 40.7938286,99.3396857 40.7466857,99.2839714 C40.6986857,99.2274 40.6506857,99.1794 40.6069714,99.1356857 C40.5898286,99.0859714 40.5589714,99.0379714 40.5161143,98.9951143 C40.4724,98.9514 40.4295429,98.9102571 40.3832571,98.8674 C40.2966857,98.7816857 40.2238286,98.6916857 40.1621143,98.5965429 C40.0986857,98.5039714 40.0249714,98.4131143 39.9384,98.3274 L39.9246857,98.2888286 C39.8801143,98.1602571 39.8998286,98.0531143 39.9855429,97.9648286 L40.1398286,97.9108286 C40.1989714,97.9185429 40.2555429,97.9288286 40.3018286,97.9416857 C40.3489714,97.9536857 40.4055429,97.9639714 40.4646857,97.9716857 C40.5238286,97.9811143 40.5838286,97.9811143 40.6386857,97.9759714 C40.6969714,97.9699714 40.7586857,97.9862571 40.8264,98.0188286 L41.4898286,98.0496857 C41.6089714,98.0668286 41.6835429,98.0694 41.7092571,98.0599714 C41.7692571,98.0694 41.8309714,98.0762571 41.8901143,98.0839714 C41.9535429,98.0916857 42.0126857,98.1002571 42.0718286,98.1071143 C42.1755429,98.0711143 42.2466857,98.0625429 42.2801143,98.0788286 C42.3486857,98.1139714 42.4112571,98.1199714 42.4618286,98.1028286 C42.4866857,98.0942571 42.5081143,98.0942571 42.5244,98.1019714 C42.5424,98.1122571 42.5664,98.1105429 42.5921143,98.1019714 C42.6598286,98.1362571 42.7224,98.1431143 42.7729714,98.1251143 C42.8235429,98.1079714 42.9109714,98.1054 43.0326857,98.1216857 C43.1012571,98.1559714 43.1844,98.1628286 43.2769714,98.1448286 C43.3738286,98.1268286 43.4535429,98.1345429 43.5255429,98.1679714 C43.5752571,98.1508286 43.6635429,98.1482571 43.7852571,98.1645429 C43.8949714,98.1542571 43.9952571,98.1499714 44.0826857,98.1474 C44.1675429,98.1482571 44.2549714,98.1456857 44.3398286,98.1448286 C44.4024,98.1534 44.4444,98.1525429 44.4701143,98.1439714 C44.4949714,98.1354 44.5404,98.1336857 44.5995429,98.1414 C44.6681143,98.1756857 44.7435429,98.1791143 44.8224,98.1525429 L44.8601143,98.1388286 C44.9535429,98.1645429 45.0435429,98.1688286 45.1266857,98.1542571 C45.2064,98.1405429 45.3092571,98.1422571 45.4309714,98.1568286 C45.5244,98.1825429 45.6204,98.1859714 45.7129714,98.1679714 C45.8089714,98.1482571 45.9178286,98.1474 46.0395429,98.1619714 C46.2624,98.1431143 46.4346857,98.1414 46.5564,98.1576857 C46.6069714,98.1396857 46.6438286,98.1345429 46.6609714,98.1422571 C46.6781143,98.1508286 46.7115429,98.1456857 46.7655429,98.1276857 C46.8504,98.1276857 46.9309714,98.1285429 47.0029714,98.1311143 C47.0749714,98.1362571 47.1521143,98.1242571 47.2309714,98.0968286 C47.3244,98.1225429 47.4624,98.1028286 47.6449714,98.0394 C47.6955429,98.0222571 47.7486857,98.0334 47.8078286,98.0694 C47.8635429,98.1079714 47.9004,98.1534 47.9184,98.2056857 C47.9449714,98.2828286 47.9801143,98.3428286 48.0229714,98.3848286 C48.0589714,98.4885429 48.0984,98.5614 48.1446857,98.6034 L48.2115429,98.7971143 C48.2552571,98.8408286 48.2878286,98.8948286 48.3092571,98.9574 C48.3324,99.0225429 48.3649714,99.0765429 48.4078286,99.1194 C48.4601143,99.1879714 48.4926857,99.2625429 48.5072571,99.3439714 C48.5218286,99.4271143 48.5672571,99.4982571 48.6478286,99.5565429 L48.6606857,99.5942571 C48.6975429,99.6988286 48.7669714,99.8188286 48.8706857,99.9559714 C48.9229714,100.024543 48.9641143,100.0914 48.9855429,100.153971 C49.0078286,100.219114 49.0455429,100.285114 49.0978286,100.3554 C49.2375429,100.594543 49.3626857,100.782257 49.4672571,100.921114 C49.5101143,100.963971 49.5401143,101.010257 49.5581143,101.061686 C49.5761143,101.113971 49.6069714,101.161971 49.6532571,101.202257 C49.6712571,101.254543 49.7012571,101.301686 49.7449714,101.344543 C49.7629714,101.396829 49.7955429,101.450829 49.8426857,101.504829 C49.8906857,101.560543 49.9258286,101.613686 49.9446857,101.665971 C49.9961143,101.734543 50.0484,101.802257 50.0998286,101.870829 C50.1521143,101.9394 50.2044,102.009686 50.2601143,102.076543 L50.2866857,102.153686 C50.3552571,102.188829 50.3981143,102.231686 50.4161143,102.282257 C50.4341143,102.334543 50.4538286,102.3714 50.4752571,102.391971 C50.4966857,102.4134 50.5198286,102.4494 50.5378286,102.500829 C50.6055429,102.535971 50.6484,102.577114 50.6664,102.6294 C50.7186857,102.697971 50.7709714,102.765686 50.8258286,102.8334 C50.8781143,102.903686 50.9304,102.972257 50.9818286,103.039971 C51.0538286,103.0734 51.1061143,103.141971 51.1412571,103.244829 C51.1841143,103.287686 51.2106857,103.322829 51.2192571,103.347686 C51.2286857,103.375114 51.2501143,103.395686 51.2844,103.411971 C51.3735429,103.497686 51.4215429,103.5534 51.4301143,103.578257 L51.5621143,103.705114 C51.6401143,103.766829 51.7301143,103.864543 51.8381143,104.001686 C51.9169714,104.1474 52.0292571,104.2674 52.1775429,104.359971 C52.2641143,104.446543 52.3506857,104.524543 52.4329714,104.596543 C52.5178286,104.6694 52.6018286,104.748257 52.6884,104.833971 C52.7064,104.886257 52.7518286,104.926543 52.8204,104.961686 C52.8632571,105.004543 52.9069714,105.048257 52.9524,105.088543 C52.9961143,105.1314 53.0389714,105.175114 53.0818286,105.216257 C53.1418286,105.225686 53.1804,105.247971 53.1941143,105.286543 C53.2078286,105.325114 53.2489714,105.361971 53.3166857,105.396257 C53.3689714,105.464829 53.4109714,105.493971 53.4358286,105.4854 C53.4701143,105.501686 53.4924,105.523971 53.5009714,105.549686 C53.5721143,105.583114 53.6278286,105.619971 53.6706857,105.663686 C53.7144,105.706543 53.7701143,105.745114 53.8412571,105.777686 L53.8549714,105.817114 L54.0118286,105.892543 C54.1498286,106.047686 54.2809714,106.130829 54.4035429,106.147114 C54.4721143,106.1814 54.5492571,106.2414 54.6384,106.324543 C54.7961143,106.444543 54.7909714,106.561114 54.6289714,106.675971 L54.2792571,106.796829 C54.0744,106.867971 53.9286857,106.904829 53.8404,106.904829 L53.2986857,107.0934 C53.1855429,107.103686 53.0398286,107.140543 52.8598286,107.203114 C52.7475429,107.2134 52.6138286,107.244257 52.4586857,107.2974 L52.3832571,107.323971 C52.3926857,107.350543 52.4098286,107.359114 52.4346857,107.350543 C52.6104,107.520257 52.7518286,107.644543 52.8666857,107.720829 C53.0244,107.839114 53.1529714,107.924829 53.2584,107.9754 C53.3449714,108.061971 53.4384,108.136543 53.5326857,108.205114 C53.6304,108.272829 53.7289714,108.332829 53.8344,108.382543 C53.9364,108.433114 54.0684,108.517971 54.2261143,108.636257 L54.7335429,108.980829 C54.7712571,108.997971 54.8012571,109.022829 54.8269714,109.057971 C54.8526857,109.0914 54.8955429,109.113686 54.9581143,109.120543 C55.0266857,109.154829 55.0935429,109.203686 55.1612571,109.267114 C55.2255429,109.3314 55.2924,109.380257 55.3635429,109.413686 C55.4321143,109.447971 55.4852571,109.478829 55.5272571,109.508829 C55.5658286,109.537971 55.6189714,109.570543 55.6875429,109.604829 C55.8701143,109.714543 56.0466857,109.825971 56.2172571,109.941686 C56.3869714,110.055686 56.5635429,110.167114 56.7469714,110.278543 L56.7975429,110.3034 C56.8069714,110.329971 56.8241143,110.338543 56.8489714,110.329114 C56.9209714,110.362543 56.9758286,110.400257 57.0195429,110.443114 C57.0624,110.486829 57.1215429,110.524543 57.1892571,110.557114 C57.3478286,110.677114 57.4746857,110.748257 57.5681143,110.773971 C57.6366857,110.808257 57.6958286,110.845971 57.7386857,110.887114 C57.7815429,110.930829 57.8372571,110.9694 57.9092571,111.002829 C58.0112571,111.054257 58.1766857,111.1554 58.4029714,111.307971 C58.4835429,111.366257 58.5649714,111.417686 58.6532571,111.459686 C58.7389714,111.502543 58.8229714,111.552257 58.9001143,111.612257 C59.0492571,111.704829 59.1864,111.794829 59.3175429,111.879686 C59.4486857,111.963686 59.5892571,112.051971 59.7349714,112.146257 C59.8061143,112.179686 59.8455429,112.231971 59.8558286,112.300543 C59.8652571,112.369971 59.8464,112.4274 59.8044,112.470257 C59.7632571,112.512257 59.6886857,112.552543 59.5849714,112.588543 C59.5258286,112.580829 59.4298286,112.599686 59.3004,112.645114 C59.2506857,112.662257 59.2086857,112.683686 59.1718286,112.710257 C59.1384,112.736829 59.0964,112.758257 59.0432571,112.776257 C58.9584,112.777971 58.8246857,112.809686 58.6421143,112.873114 L57.9084,113.127686 C57.7704,113.1474 57.6238286,113.182543 57.4695429,113.235686 C57.3152571,113.289686 57.1729714,113.338543 57.0444,113.383114 L56.4615429,113.5854 C56.3604,113.620543 56.2652571,113.660829 56.1778286,113.7054 C56.0912571,113.750829 55.9909714,113.764543 55.8684,113.749114 C55.7895429,113.776543 55.7732571,113.809971 55.8169714,113.853686 L55.8564,113.968543 C55.9558286,114.080829 56.0475429,114.184543 56.1418286,114.282257 C56.2326857,114.381686 56.3261143,114.487114 56.4238286,114.595971 C56.4332571,114.622543 56.4495429,114.631114 56.4752571,114.621686 C56.5095429,114.639686 56.5395429,114.685971 56.5661143,114.763114 C56.5755429,114.789686 56.5884,114.806829 56.6055429,114.8154 C56.6261143,114.823971 56.6389714,114.840257 56.6475429,114.865971 C56.6912571,114.908829 56.7315429,114.943971 56.7701143,114.974829 C56.8095429,115.005686 56.8532571,115.039971 56.8961143,115.082829 C56.9998286,115.219971 57.0692571,115.297971 57.1069714,115.3134 C57.1412571,115.3314 57.2012571,115.382829 57.2869714,115.467686 C57.3769714,115.5534 57.4455429,115.629686 57.4978286,115.698257 C57.5072571,115.724829 57.5449714,115.753971 57.6169714,115.7874 L57.6675429,115.812257 C57.7292571,115.9074 57.7926857,115.9794 57.8526857,116.030829 C57.9135429,116.082257 57.9821143,116.137114 58.0618286,116.196257 C58.1389714,116.2554 58.2135429,116.317971 58.2786857,116.382257 C58.3429714,116.446543 58.4184,116.521114 58.5075429,116.605971 C58.6138286,116.655686 58.6858286,116.702829 58.7295429,116.746543 C58.8152571,116.8314 58.9086857,116.908543 59.0029714,116.976257 C59.1006857,117.044829 59.1915429,117.121114 59.2798286,117.205114 C59.3235429,117.247971 59.3604,117.271971 59.3895429,117.276257 C59.4195429,117.279686 59.4461143,117.306257 59.4641143,117.357686 L59.5155429,117.384257 C59.5841143,117.418543 59.6389714,117.456257 59.6852571,117.498257 L59.6989714,117.537686 C59.8352571,117.6054 59.9629714,117.6774 60.0769714,117.751971 C60.1892571,117.829971 60.3084,117.919114 60.4275429,118.020257 L60.9384,118.363971 C61.0532571,118.440257 61.1629714,118.510543 61.2726857,118.574829 C61.3798286,118.638257 61.4878286,118.693971 61.5932571,118.743686 C61.6275429,118.761686 61.6549714,118.780543 61.6764,118.801971 C61.6986857,118.824257 61.7261143,118.843971 61.7604,118.860257 C61.8658286,118.910829 61.9738286,118.966543 62.0801143,119.029971 C62.1906857,119.094257 62.2952571,119.151686 62.4006857,119.2014 C62.5746857,119.2854 62.7529714,119.383114 62.9364,119.491971 C63.1189714,119.6034 63.2972571,119.700257 63.4712571,119.785114 C63.6075429,119.851971 63.7395429,119.916257 63.8621143,119.973686 C63.9821143,120.034543 64.1252571,120.092829 64.2898286,120.150257 L64.6549714,120.326829 C64.7269714,120.361971 64.8101143,120.397114 64.9112571,120.433971 C65.0089714,120.472543 65.0955429,120.507686 65.1641143,120.542829 C65.1975429,120.559114 65.2198286,120.5814 65.2284,120.606257 C65.3089714,120.6654 65.3115429,120.766543 65.2464,120.903686 L65.2464,120.903686 Z M36.0598286,86.5485429 C35.2044,85.4694 34.7578286,84.0739714 34.7578286,82.5122571 C34.7578286,78.8111143 37.3798286,76.0211143 40.8958286,76.0211143 C42.6246857,76.0211143 44.2806857,76.8019714 45.4704,78.1596857 C46.4741143,79.3322571 46.9215429,80.7079714 46.9215429,82.5679714 C46.9215429,84.5016857 46.1775429,86.2314 44.8198286,87.3851143 C43.7038286,88.3519714 42.2904,88.8731143 40.8581143,88.8731143 C39.0169714,88.8731143 37.2135429,87.9988286 36.0598286,86.5485429 L36.0598286,86.5485429 Z M29.9501143,67.1531143 C29.1872571,66.2788286 28.8084,65.3676857 28.8084,63.4331143 L28.8084,56.4088286 L30.5226857,56.4088286 L30.5226857,63.4708286 C30.5226857,65.0514 30.8081143,65.8511143 31.4029714,66.4459714 C31.9241143,66.9482571 32.8472571,67.2834 33.6281143,67.2834 C34.4098286,67.2834 35.2155429,66.9294 35.7546857,66.3722571 C36.4241143,65.7208286 36.5226857,65.0882571 36.5226857,63.4331143 L36.5226857,56.4088286 L38.2369714,56.4088286 L38.2369714,63.4331143 C38.2369714,65.2931143 37.9661143,66.3534 37.1664,67.2465429 C36.3289714,68.1945429 35.0269714,68.7148286 33.6144,68.7148286 C32.1641143,68.7148286 30.7875429,68.1576857 29.9501143,67.1531143 L29.9501143,67.1531143 Z M24.9392571,63.0808286 C24.2149714,63.6576857 23.2472571,64.1231143 21.8706857,64.1231143 L20.2369714,64.1231143 L20.2369714,68.4088286 L18.5226857,68.4088286 L18.5226857,56.4088286 L21.7035429,56.4088286 C24.6426857,56.4088286 26.2601143,57.6808286 26.2601143,60.1356857 C26.2601143,61.3631143 25.7766857,62.3925429 24.9392571,63.0808286 L24.9392571,63.0808286 Z M26.4426857,42.3851143 C27.4121143,41.4148286 28.5881143,41.4234 29.5635429,42.3988286 C30.1121143,42.9465429 30.3846857,43.5765429 30.3529714,44.2005429 C30.3255429,44.7328286 30.0752571,45.2256857 29.6072571,45.6945429 L28.8255429,46.4762571 L25.5881143,43.2396857 L26.4426857,42.3851143 Z M32.8566857,35.9719714 L33.2055429,36.3208286 L31.9361143,37.5902571 L33.0178286,38.6728286 L34.2881143,37.4034 L34.6369714,37.7522571 L33.3675429,39.0216857 L34.4732571,40.1282571 L35.7435429,38.8588286 L36.0924,39.2085429 L34.4175429,40.8825429 L31.1818286,37.6459714 L32.8566857,35.9719714 Z M36.4104,32.4182571 L38.3372571,34.3442571 C38.7495429,34.7565429 39.0161143,34.9074 39.3264,34.9082571 C39.5921143,34.9039714 39.9109714,34.7599714 40.1132571,34.5568286 C40.3164,34.3545429 40.4509714,34.0348286 40.4449714,33.7494 C40.4492571,33.4065429 40.3275429,33.1974 39.8964,32.7662571 L37.9789714,30.8496857 L38.3946857,30.4339714 L40.3112571,32.3514 C40.7955429,32.8365429 40.9952571,33.1905429 41.0209714,33.6302571 C41.0509714,34.0948286 40.8632571,34.5542571 40.4972571,34.9211143 C40.1201143,35.2974 39.6324,35.4945429 39.1524,35.4499714 C38.7264,35.4199714 38.4264,35.2451143 37.9224,34.7402571 L36.0049714,32.8228286 L36.4104,32.4182571 Z M42.4446857,26.2665429 C43.0146857,25.6965429 43.7509714,25.6896857 44.3269714,26.2374 L43.9224,26.6428286 C43.7526857,26.4825429 43.6549714,26.4251143 43.5101143,26.3856857 C43.2778286,26.3368286 43.0112571,26.4276857 42.8038286,26.6351143 C42.4858286,26.9539714 42.4772571,27.3988286 42.7884,27.7099714 C42.9426857,27.8651143 43.1466857,27.9328286 43.3446857,27.8994 C43.5186857,27.8711143 43.6446857,27.8231143 44.0895429,27.6114 C44.5532571,27.3902571 44.8044,27.3131143 45.0761143,27.3234 C45.3658286,27.3345429 45.6478286,27.4605429 45.8655429,27.6791143 C46.4235429,28.2371143 46.3918286,29.0256857 45.7892571,29.6291143 C45.3778286,30.0388286 44.9526857,30.1734 44.4932571,30.0516857 C44.2849714,29.9976857 44.1144,29.8956857 43.9601143,29.7405429 L43.8915429,29.6728286 L44.2781143,29.2862571 C44.6655429,29.6359714 45.0581143,29.6316857 45.4095429,29.2794 C45.7721143,28.9176857 45.8046857,28.4385429 45.4789714,28.1136857 C45.1978286,27.8325429 44.9226857,27.8462571 44.2455429,28.1831143 C43.7329714,28.4334 43.5444,28.4959714 43.2692571,28.5096857 C42.9546857,28.5225429 42.6538286,28.3965429 42.4061143,28.1488286 C41.8584,27.6002571 41.8755429,26.8365429 42.4446857,26.2665429 L42.4446857,26.2665429 Z M49.8735429,59.8562571 C49.8735429,61.2508286 49.2409714,62.2862571 48.0881143,62.8999714 C47.4932571,63.2162571 46.9344,63.2642571 45.8004,63.3388286 L50.6175429,68.4088286 L48.6272571,68.4088286 L44.2369714,63.2848286 L44.2369714,68.4088286 L42.5226857,68.4088286 L42.5226857,56.4088286 L45.6332571,56.4088286 C48.2741143,56.4088286 49.8735429,57.6054 49.8735429,59.8562571 L49.8735429,59.8562571 Z M52.3095429,16.5182571 L52.6584,16.8679714 L51.3898286,18.1365429 L52.4706857,19.2191143 L53.7409714,17.9496857 L54.0898286,18.2994 L52.8212571,19.5679714 L53.9269714,20.6745429 L55.1964,19.4051143 L55.5452571,19.7548286 L53.8704,21.4288286 L50.6346857,18.1931143 L52.3095429,16.5182571 Z M56.0458286,12.7639714 L57.9846857,13.4625429 L57.8175429,11.4036857 L58.3481143,10.9965429 L58.5529714,13.6648286 L61.1629714,14.5999714 L60.6375429,15.0036857 L58.6018286,14.2674 L58.7912571,16.4222571 L58.2392571,16.8456857 L58.0284,14.0685429 L55.4998286,13.1839714 L56.0458286,12.7639714 Z M61.9712571,27.2659714 L62.7015429,27.2659714 C62.7666857,27.2659714 62.8284,27.1082571 62.8824,27.1296857 C62.9389714,27.1528286 62.9981143,27.0688286 63.0658286,27.0456857 C63.1764,27.0456857 63.2706857,26.9994 63.3461143,26.9874 C63.4241143,26.9762571 63.5081143,26.9608286 63.5964,26.9822571 C63.7506857,26.9822571 63.8929714,27.1202571 64.0249714,27.1082571 C64.1604,27.0971143 64.2924,27.2659714 64.4244,27.2659714 L64.8881143,27.2659714 L64.9206857,27.2659714 L65.3518286,27.2659714 L66.1464,27.2659714 C66.1901143,27.2659714 66.2406857,27.1099714 66.2946857,27.0971143 C66.3486857,27.0868286 66.4112571,27.0054 66.4781143,27.0054 C66.5432571,26.9839714 66.6161143,26.9385429 66.6941143,26.9505429 C66.7695429,26.9616857 66.8424,26.9265429 66.9066857,26.8819714 C66.9958286,26.8819714 67.0635429,26.8614 67.1064,26.8391143 C67.2838286,26.7945429 67.3489714,26.8571143 67.3061143,27.0336857 C67.3061143,27.2548286 67.2058286,27.4271143 67.0069714,27.5608286 C66.9418286,27.6268286 66.8801143,27.6919714 66.8261143,27.7579714 C66.7695429,27.8239714 66.7104,27.8908286 66.6426857,27.9568286 L66.3461143,28.3536857 C66.2569714,28.4642571 66.1626857,28.5799714 66.0632571,28.7016857 C65.9638286,28.8225429 65.8584,28.9382571 65.7478286,29.0488286 C65.6586857,29.1594 65.5781143,29.2596857 65.5001143,29.3471143 C65.4212571,29.4354 65.3406857,29.5339714 65.2515429,29.6445429 C65.2301143,29.6891143 65.2035429,29.7225429 65.1684,29.7439714 C65.1358286,29.7662571 65.1092571,29.7996857 65.0878286,29.8442571 C64.7775429,30.1528286 64.4886857,30.4725429 64.2246857,30.8034 L64.0249714,31.0031143 C63.9392571,31.1136857 63.8501143,31.2174 63.7609714,31.3168286 C63.6726857,31.4171143 63.4652571,31.5216857 63.3795429,31.6322571 C63.2904,31.7642571 63.0941143,31.8645429 63.0941143,31.9305429 L63.0941143,31.9631143 C63.0941143,32.0068286 63.0855429,32.0676857 63.0315429,32.1456857 C62.9749714,32.2228286 62.9852571,32.2939714 62.9398286,32.3599714 L62.9046857,32.4259714 C62.7264,32.5151143 62.6201143,32.4825429 62.5549714,32.3282571 C62.4658286,32.1945429 62.3844,32.0856857 62.2952571,31.9965429 C62.2095429,31.8645429 62.1298286,31.7376857 62.0509714,31.6151143 C61.9729714,31.4934 61.8941143,31.3776857 61.8049714,31.2671143 C61.7166857,31.1565429 61.6412571,31.0476857 61.5744,30.9371143 C61.5066857,30.8265429 61.4321143,30.7159714 61.3429714,30.6054 C61.3001143,30.5608286 61.2649714,30.5111143 61.2435429,30.4562571 C61.2221143,30.4005429 61.1895429,30.3525429 61.1441143,30.3079714 C60.9229714,29.9316857 60.6906857,29.6111143 60.4481143,29.3471143 C60.3384,29.1919714 60.2329714,29.0436857 60.1361143,28.8996857 C60.0358286,28.7565429 59.9312571,28.6065429 59.8206857,28.4522571 C59.7744,28.3862571 59.7204,28.3254 59.6535429,28.2696857 C59.5884,28.2148286 59.5318286,28.1539714 59.4889714,28.0879714 C59.3106857,27.8454 59.1255429,27.5694 58.9258286,27.2608286 C58.9044,27.2162571 58.8692571,27.1716857 58.8255429,27.1271143 C58.7372571,26.9951143 58.7724,26.9291143 58.9258286,26.9291143 C59.0149714,26.9076857 59.1144,26.9076857 59.2249714,26.9291143 C59.2464,26.9505429 59.2789714,26.9616857 59.3218286,26.9616857 C59.4324,26.9394 59.5266857,27.0868286 59.6046857,27.0971143 C59.6826857,27.1099714 59.7744,27.2659714 59.8849714,27.2659714 L59.9526857,27.2659714 C60.0632571,27.2659714 60.2278286,27.0816857 60.4489714,27.0816857 C60.4944,27.1031143 60.5321143,27.2016857 60.5646857,27.1896857 C60.5998286,27.1794 60.6375429,27.2659714 60.6804,27.2659714 L61.0438286,27.2659714 C61.2006857,27.2659714 61.3489714,27.2711143 61.4912571,27.2822571 C61.6369714,27.2942571 61.7964,27.2659714 61.9712571,27.2659714 L61.9712571,27.2659714 Z M67.4055429,27.4922571 C67.4055429,27.4691143 67.4269714,27.4374 67.4698286,27.3928286 C67.5804,27.2822571 67.6695429,27.2822571 67.7372571,27.3928286 C67.8229714,27.5694 67.9232571,27.7022571 68.0338286,27.7905429 C68.1444,27.9011143 68.2326857,28.0005429 68.3004,28.0879714 C68.3646857,28.1771143 68.4435429,28.2645429 68.5318286,28.3536857 C68.6398286,28.5071143 68.7641143,28.6511143 68.8961143,28.7831143 C69.0281143,28.9151143 69.1498286,29.0599714 69.2595429,29.2151143 C69.3701143,29.3248286 69.4806857,29.4465429 69.5912571,29.5785429 C69.7018286,29.7105429 69.8124,29.8322571 69.9229714,29.9428286 L70.0198286,30.0422571 C70.1304,30.2402571 70.2572571,30.4288286 70.4029714,30.6054 C70.5452571,30.7819714 70.6935429,30.9585429 70.8504,31.1351143 C70.9609714,31.2671143 71.0578286,31.4008286 71.1469714,31.5328286 C71.2352571,31.6648286 71.3244,31.7968286 71.4135429,31.9305429 C71.4778286,32.0411143 71.5506857,32.1336857 71.6261143,32.2116857 C71.6921143,32.2759714 71.7504,32.3471143 71.8069714,32.4191143 C71.7966857,32.4156857 71.7881143,32.4088286 71.7778286,32.4088286 L71.1469714,32.4088286 C71.0364,32.4088286 70.9498286,32.5776857 70.8829714,32.5991143 C70.8152571,32.6222571 70.7286857,32.5048286 70.6181143,32.5048286 C70.4861143,32.5262571 70.3464,32.4088286 70.2032571,32.4088286 L69.7884,32.4088286 C69.6564,32.4088286 69.5295429,32.6119714 69.4078286,32.5999714 C69.2869714,32.5896857 69.1601143,32.6985429 69.0281143,32.7199714 C68.7641143,32.7431143 68.4915429,32.8005429 68.2164,32.7894 C67.9395429,32.7791143 67.6592571,32.7979714 67.3704,32.7979714 C67.1278286,32.7979714 66.8904,33.0216857 66.6589714,33.0328286 C66.4661143,33.0414 66.2689714,33.1905429 66.0692571,33.2428286 C66.1215429,33.2531143 66.1746857,33.2659714 66.2304,33.2659714 L66.6101143,33.2659714 L67.5701143,33.2659714 L68.1006857,33.2659714 C68.2764,33.2659714 68.4538286,33.1888286 68.6295429,33.2111143 C68.8069714,33.2325429 68.9826857,33.1939714 69.1601143,33.1836857 C69.3349714,33.1725429 69.5132571,33.1451143 69.6915429,33.1451143 C69.9092571,33.1451143 70.0764,33.2274 70.1869714,33.2059714 C70.2975429,33.1836857 70.4029714,33.2659714 70.5024,33.2659714 L70.8152571,33.2659714 C71.0364,33.2659714 71.2035429,33.2882571 71.3141143,33.2668286 C71.3355429,33.2454 71.3895429,33.2659714 71.4778286,33.2659714 L71.9415429,33.2659714 C72.0135429,33.2659714 72.2295429,33.1785429 72.3769714,33.1434 C72.4018286,33.0996857 72.4241143,33.0559714 72.4729714,33.0234 C72.5372571,32.9788286 72.6049714,32.9462571 72.6726857,32.9239714 C72.9152571,32.9016857 73.1466857,32.8862571 73.3678286,32.8734 C73.5864,32.8631143 73.8178286,32.8579714 74.0629714,32.8579714 C74.1949714,32.8579714 74.2815429,32.8468286 74.3269714,32.8236857 C74.4812571,32.8022571 74.6295429,32.7971143 74.7744,32.8074 C74.9175429,32.8202571 75.0658286,32.6548286 75.2218286,32.6334 C75.4866857,32.5888286 75.7506857,32.4088286 76.0172571,32.4088286 L75.7858286,32.4088286 L75.0898286,32.4088286 C74.8909714,32.4088286 74.6861143,32.5065429 74.4752571,32.5176857 C74.2652571,32.5279714 74.0629714,32.5751143 73.8641143,32.5965429 C73.7535429,32.6179714 73.6592571,32.6394 73.5804,32.6274 C73.5049714,32.6162571 73.4106857,32.6188286 73.3001143,32.6188286 C73.1895429,32.6625429 73.0789714,32.6668286 72.9692571,32.6222571 C72.9469714,32.6008286 72.9255429,32.5905429 72.9041143,32.5905429 C72.8364,32.5468286 72.8149714,32.4816857 72.8364,32.3934 C72.9041143,32.2168286 73.0121143,32.0299714 73.1681143,31.8302571 C73.2118286,31.7428286 73.2624,31.6596857 73.3164,31.5825429 C73.3704,31.5054 73.4321143,31.4222571 73.4998286,31.3331143 C73.6104,31.1351143 73.7312571,30.9371143 73.8641143,30.7374 C73.9961143,30.5394 74.1281143,30.3396857 74.2601143,30.1416857 C74.3269714,30.0311143 74.3869714,29.9265429 74.4435429,29.8262571 C74.4975429,29.7268286 74.5592571,29.6231143 74.6261143,29.5125429 C74.8018286,29.2914 74.9552571,29.0702571 75.0898286,28.8491143 C75.2218286,28.6296857 75.3546857,28.4085429 75.4866857,28.1874 C75.5972571,28.0108286 75.7018286,27.8291143 75.8021143,27.6405429 C75.9015429,27.4536857 76.0035429,27.2711143 76.1141143,27.0945429 C76.1818286,27.0285429 76.2358286,26.9839714 76.2812571,26.9616857 C76.3464,26.9394 76.3918286,26.9394 76.4132571,26.9616857 C76.4809714,27.0499714 76.5564,27.1271143 76.6455429,27.1931143 C76.7346857,27.2608286 76.8126857,27.3371143 76.8769714,27.4245429 C76.9661143,27.5368286 77.0552571,27.6294 77.1409714,27.7065429 C77.2301143,27.7845429 77.3304,27.8668286 77.4401143,27.9559714 C77.6612571,28.1325429 77.8258286,28.3091143 77.9364,28.4856857 C77.9578286,28.5071143 77.9766857,28.5302571 77.9878286,28.5516857 C77.9981143,28.5748286 78.0255429,28.5962571 78.0684,28.6176857 L78.4001143,28.9494 C78.5106857,29.0599714 78.6212571,29.1705429 78.7318286,29.2811143 C78.7986857,29.3471143 78.8586857,29.4182571 78.9152571,29.4954 C78.9692571,29.5734 79.0309714,29.6565429 79.0952571,29.7439714 C79.2058286,29.8545429 79.3061143,29.9651143 79.3944,30.0756857 C79.4835429,30.1862571 79.5804,30.2968286 79.6935429,30.4065429 L79.7586857,30.4725429 C79.9361143,30.5839714 80.0904,30.7271143 80.2224,30.9036857 L80.3895429,31.0691143 C80.5001143,31.1796857 80.5969714,31.2851143 80.6861143,31.3828286 C80.7744,31.4831143 80.8635429,31.5876857 80.9526857,31.6982571 C81.0846857,31.8748286 81.1952571,31.9965429 81.2818286,32.0625429 C81.3272571,32.0856857 81.3546857,32.1122571 81.3649714,32.1456857 C81.3761143,32.1782571 81.4026857,32.2176857 81.4489714,32.2622571 C81.4918286,32.3059714 81.4806857,32.3522571 81.4164,32.3522571 C81.3701143,32.3736857 81.3032571,32.4088286 81.2166857,32.4088286 L80.3218286,32.4088286 C80.0124,32.4088286 79.7158286,32.3916857 79.4269714,32.4019714 C79.1415429,32.4131143 78.8424,32.4062571 78.5321143,32.4062571 C78.5149714,32.4062571 78.4969714,32.4088286 78.4798286,32.4088286 L78.7155429,32.4088286 L79.3626857,32.4088286 L79.6104,32.4088286 L79.8264,32.4088286 L80.2892571,32.4088286 C80.4649714,32.4088286 80.6321143,32.5288286 80.7855429,32.5176857 C80.9389714,32.5074 81.0958286,32.5459714 81.2492571,32.5459714 C81.3169714,32.5459714 81.3701143,32.5922571 81.4164,32.6351143 C81.4806857,32.7028286 81.4918286,32.7799714 81.4489714,32.8459714 C81.3812571,32.9351143 81.3221143,33.0336857 81.2655429,33.1339714 C81.2115429,33.2334 81.1498286,33.3294 81.0846857,33.4176857 C81.0392571,33.4622571 81.0015429,33.5068286 80.9689714,33.5514 C80.9338286,33.5959714 80.9072571,33.6628286 80.8849714,33.7502571 C80.7966857,33.7734 80.7315429,33.8505429 80.6861143,33.9842571 C80.6424,34.0288286 80.6021143,34.0768286 80.5695429,34.1325429 C80.5378286,34.1874 80.5001143,34.2379714 80.4538286,34.2816857 C80.4109714,34.3699714 80.3544,34.4479714 80.2892571,34.5139714 C80.2224,34.5799714 80.1684,34.6571143 80.1221143,34.7454 C80.0124,34.8774 79.9069714,35.0102571 79.8101143,35.1431143 C79.7098286,35.2751143 79.6052571,35.3968286 79.4946857,35.5074 L79.3944,35.7054 C79.3489714,35.7731143 79.3061143,35.8391143 79.2624,35.9051143 C79.2169714,35.9711143 79.1741143,36.0259714 79.1304,36.0705429 C79.0198286,36.1811143 78.9315429,36.2968286 78.8638286,36.4185429 C78.7986857,36.5394 78.7104,36.6551143 78.5998286,36.7656857 C78.5321143,36.8316857 78.4678286,36.9036857 78.4001143,36.9816857 C78.3358286,37.0588286 78.2681143,37.1419714 78.2029714,37.2294 C78.1575429,37.2739714 78.1035429,37.3296857 78.0358286,37.3956857 C77.9715429,37.4616857 77.9149714,37.5276857 77.8721143,37.5936857 C77.8044,37.6828286 77.7452571,37.7711143 77.6886857,37.8594 C77.6346857,37.9476857 77.5729714,38.0359714 77.5078286,38.1242571 C77.4624,38.1688286 77.3946857,38.2562571 77.3081143,38.3882571 C77.2626857,38.4328286 77.2361143,38.4671143 77.2249714,38.4885429 C77.2138286,38.5099714 77.1872571,38.5434 77.1409714,38.5879714 C77.0312571,38.7199714 76.9395429,38.8519714 76.8606857,38.9839714 C76.7826857,39.1176857 76.6884,39.2394 76.5804,39.3499714 L75.4866857,40.8396857 C75.4189714,40.9279714 75.3598286,41.0111143 75.3032571,41.0882571 C75.2492571,41.1662571 75.1978286,41.2374 75.1549714,41.3034 C75.0898286,41.3916857 75.0229714,41.4696857 74.9552571,41.5356857 C74.8909714,41.6016857 74.8232571,41.6796857 74.7589714,41.7671143 C74.7341143,41.7885429 74.7126857,41.8116857 74.6912571,41.8331143 C74.6698286,41.8562571 74.6484,41.8888286 74.6261143,41.9334 C74.5806857,41.9779714 74.5481143,41.9994 74.5266857,41.9994 L74.3981143,42.0654 C74.3981143,42.1314 74.2369714,42.1759714 74.2369714,42.1974 L74.2369714,42.2308286 C74.2369714,42.3859714 74.0775429,42.5291143 73.9669714,42.6611143 C73.8564,42.7939714 73.7766857,42.9371143 73.6661143,43.0922571 C73.6009714,43.1814 73.5495429,43.2688286 73.4844,43.3579714 C73.4175429,43.4454 73.3464,43.5345429 73.2606857,43.6219714 C73.2144,43.6879714 73.3644,43.7539714 73.3215429,43.8216857 C73.2752571,43.8876857 73.3798286,43.9639714 73.3798286,44.0531143 L73.3798286,44.0856857 C73.3798286,44.0856857 73.2366857,44.0976857 73.1904,44.1191143 C73.1475429,44.1191143 73.0309714,44.1302571 73.0309714,44.1516857 C73.0309714,44.1739714 72.9726857,44.1962571 72.9512571,44.2176857 C72.8844,44.3728286 72.7712571,44.5056857 72.6606857,44.6154 L72.6169714,44.6488286 C72.5706857,44.7594 72.5055429,44.8588286 72.4275429,44.9462571 C72.3521143,45.0354 72.2766857,45.1228286 72.2089714,45.2119714 C72.0984,45.3439714 72.0109714,45.4888286 71.9432571,45.6422571 C71.7684,45.9294 71.5789714,46.1719714 71.3792571,46.3708286 C71.3578286,46.3931143 71.3415429,46.4154 71.3304,46.4368286 C71.3192571,46.4599714 71.3004,46.4814 71.2789714,46.5028286 C71.1255429,46.7685429 70.9712571,47.0111143 70.8152571,47.2322571 C70.7724,47.2982571 70.7286857,47.3642571 70.6832571,47.4302571 C70.6404,47.4979714 70.5941143,47.5528286 70.5512571,47.5965429 L70.4861143,47.6625429 C70.4192571,47.7739714 70.3515429,47.8725429 70.2872571,47.9616857 C70.2195429,48.0491143 70.1415429,48.1382571 70.0549714,48.2256857 C69.9444,48.3808286 69.8338286,48.5299714 69.7232571,48.6731143 C69.6126857,48.8171143 69.5021143,48.9654 69.3924,49.1205429 C69.3461143,49.1651143 69.3135429,49.2079714 69.2921143,49.2525429 C69.2706857,49.2971143 69.2492571,49.3416857 69.2278286,49.3845429 C69.1601143,49.4522571 69.0984,49.5234 69.0444,49.6005429 C68.9878286,49.6785429 68.9175429,49.7496857 68.8284,49.8156857 C68.7641143,49.8816857 68.6861143,50.0034 68.5969714,50.1799714 C68.5318286,50.2459714 68.4701143,50.3188286 68.4161143,50.3951143 C68.3612571,50.4722571 68.3029714,50.5296857 68.2369714,50.5734 L68.2369714,50.2134 C68.2369714,50.0796857 68.1066857,49.9605429 68.1529714,49.8482571 C68.1744,49.7394 68.1204,49.6339714 68.1418286,49.5345429 C68.1658286,49.4342571 68.1495429,49.3305429 68.1709714,49.2191143 C68.2146857,49.0211143 68.2412571,48.8171143 68.2841143,48.6071143 C68.3304,48.3971143 68.3741143,48.1931143 68.4418286,47.9934 C68.5069714,47.7739714 68.5584,47.5588286 68.6012571,47.3479714 C68.6449714,47.1379714 68.7101143,46.9236857 68.7984,46.7025429 C68.8421143,46.5474 68.8729714,46.4599714 68.8969714,46.4368286 C68.9406857,46.2602571 68.9826857,46.0836857 69.0289714,45.9071143 C69.0718286,45.7314 69.1146857,45.5548286 69.1601143,45.3782571 C69.2038286,45.2891143 69.2304,45.2016857 69.2441143,45.1125429 C69.2544,45.0251143 69.2818286,44.9248286 69.3246857,44.8142571 C69.3701143,44.6822571 69.4026857,44.5545429 69.4241143,44.4328286 C69.4455429,44.3119714 69.4806857,44.1851143 69.5244,44.0531143 C69.5672571,43.9425429 69.5972571,43.8371143 69.6075429,43.7376857 C69.6186857,43.6382571 69.6349714,43.5345429 69.6564,43.4239714 C69.7018286,43.2688286 69.7395429,43.1205429 69.7721143,42.9765429 C69.8072571,42.8334 69.8449714,42.6834 69.8878286,42.5291143 C69.9092571,42.3971143 69.9392571,42.2642571 69.9718286,42.1314 C70.0035429,41.9994 70.0335429,41.8674 70.0549714,41.7336857 C70.0764,41.6462571 70.0978286,41.5639714 70.1201143,41.4859714 C70.1415429,41.4088286 70.1655429,41.3256857 70.1869714,41.2374 C70.2306857,41.1268286 70.2572571,41.0274 70.2709714,40.9382571 C70.2812571,40.8508286 70.3086857,40.7514 70.3515429,40.6408286 C70.3978286,40.3982571 70.4569714,40.1496857 70.5349714,39.8951143 C70.6129714,39.6422571 70.6721143,39.3936857 70.7184,39.1502571 C70.7826857,38.7756857 70.8718286,38.3779714 70.9824,37.9588286 C71.0466857,37.7376857 71.1032571,37.5216857 71.1469714,37.3116857 C71.1924,37.1025429 71.2575429,36.8976857 71.3458286,36.6996857 C71.3895429,36.5891143 71.4246857,36.4682571 71.4461143,36.3345429 C71.4675429,36.2025429 71.5001143,36.0816857 71.5455429,35.9711143 C71.5884,35.7945429 71.6261143,35.6231143 71.6612571,35.4576857 C71.6938286,35.2914 71.7426857,35.1216857 71.8095429,34.9442571 C71.8532571,34.8114 71.8986857,34.6794 71.9415429,34.5465429 C71.9878286,34.4145429 72.0306857,34.2825429 72.0744,34.1488286 C72.1412571,33.9954 72.1901143,33.8402571 72.2252571,33.6851143 C72.2526857,33.5514 72.2878286,33.4048286 72.3255429,33.2531143 C71.7812571,33.3534 72.2424,33.4528286 72.2321143,33.5531143 C72.2218286,33.6636857 72.0915429,33.7742571 72.0452571,33.8848286 C71.9809714,34.0614 71.8669714,34.2319714 71.8129714,34.3982571 C71.7564,34.5636857 71.6578286,34.7351143 71.5712571,34.9116857 C71.5472571,34.9562571 71.6329714,35.0102571 71.6329714,35.0771143 C71.6329714,35.1431143 71.6655429,35.1988286 71.6655429,35.2416857 L71.6655429,35.3411143 C71.6655429,35.5408286 71.4615429,35.7448286 71.4075429,35.9548286 C71.3509714,36.1648286 71.2472571,36.3688286 71.2018286,36.5668286 C71.1589714,36.6551143 71.0964,36.7442571 71.0741143,36.8316857 C71.0526857,36.9208286 71.0064,37.0082571 70.9635429,37.0974 C70.9181143,37.3399714 70.8512571,37.5876857 70.7732571,37.8431143 C70.6952571,38.0959714 70.6326857,38.3445429 70.5872571,38.5879714 C70.5435429,38.8091143 70.4904,39.0234 70.4372571,39.2334 C70.3832571,39.4442571 70.3309714,39.6705429 70.2881143,39.9131143 C70.1989714,40.2002571 70.1201143,40.4874 70.0558286,40.7736857 C69.9881143,41.0608286 69.9101143,41.3479714 69.8235429,41.6351143 C69.7772571,41.8331143 69.7344,42.0276857 69.6915429,42.2145429 C69.6452571,42.4022571 69.6024,42.5951143 69.5561143,42.7939714 C69.4455429,43.1916857 69.3461143,43.5842571 69.2595429,43.9691143 C69.1712571,44.3565429 69.0709714,44.7482571 68.9604,45.1459714 C68.9175429,45.2565429 68.8909714,45.3722571 68.8798286,45.4939714 C68.8661143,45.6148286 68.8395429,45.7314 68.7966857,45.8411143 C68.7744,45.8856857 68.7641143,45.9182571 68.7641143,45.9396857 C68.7641143,45.9628286 68.7504,45.9962571 68.7289714,46.0399714 C68.6861143,46.1282571 68.6638286,46.1839714 68.6638286,46.2054 C68.6398286,46.2945429 68.6184,46.3819714 68.5969714,46.4711143 C68.5755429,46.5585429 68.5541143,46.6476857 68.5318286,46.7351143 C68.4864,46.8902571 68.4435429,47.0454 68.3972571,47.1988286 C68.3544,47.3539714 68.3115429,47.5082571 68.2652571,47.6625429 C68.2224,47.8399714 68.1709714,48.0276857 68.1169714,48.2256857 C68.0604,48.4254 68.0115429,48.6122571 67.9686857,48.7888286 C67.9232571,48.9654 67.8795429,49.0991143 67.8341143,49.1865429 C67.8126857,49.2971143 67.7964,49.3914 67.7852571,49.4685429 C67.7749714,49.5448286 67.7689714,49.6288286 67.7689714,49.7162571 C67.7689714,49.8054 67.7638286,49.8816857 67.7535429,49.9476857 C67.7424,50.0136857 67.7235429,50.0925429 67.7021143,50.1799714 C67.7021143,50.2245429 67.6806857,50.2459714 67.6369714,50.2459714 C67.5701143,50.2905429 67.5375429,50.2691143 67.5375429,50.1799714 C67.4921143,50.0034 67.4484,49.8439714 67.4055429,49.6999714 C67.3592571,49.5559714 67.3275429,49.3965429 67.3061143,49.2191143 C67.2838286,49.1094 67.2598286,49.0099714 67.2384,48.9208286 C67.2169714,48.8334 67.1844,48.7339714 67.1389714,48.6234 C67.0738286,48.4468286 67.0172571,48.2805429 66.9744,48.1262571 C66.9281143,47.9719714 66.8852571,47.8065429 66.8424,47.6299714 C66.7746857,47.3874 66.7104,47.1551143 66.6426857,46.9348286 C66.5784,46.7136857 66.5209714,46.4814 66.4781143,46.2388286 C66.3675429,45.8634 66.2681143,45.5042571 66.1789714,45.1622571 C66.0898286,44.8202571 65.9904,44.4722571 65.8798286,44.1191143 C65.8369714,43.8765429 65.7829714,43.6451143 65.7152571,43.4239714 C65.6484,43.2028286 65.5832571,42.9705429 65.5164,42.7279714 C65.4272571,42.4185429 65.3406857,42.1202571 65.2515429,41.8331143 C65.1632571,41.5459714 65.0741143,41.2485429 64.9875429,40.9382571 C64.9206857,40.7634 64.8581143,40.5799714 64.8041143,40.3931143 C64.7501143,40.2054 64.6995429,40.0116857 64.6558286,39.8128286 C64.5889714,39.5042571 64.5075429,39.1888286 64.4081143,38.8682571 C64.3086857,38.5494 64.2144,38.2228286 64.1252571,37.8911143 C64.0824,37.7822571 64.0549714,37.6768286 64.0412571,37.5774 C64.0309714,37.4779714 64.0035429,37.3734 63.9606857,37.2636857 C63.9152571,37.0871143 63.8664,36.9036857 63.8098286,36.7159714 C63.7558286,36.5291143 63.6941143,36.3465429 63.6289714,36.1699714 C63.5835429,36.0371143 63.5458286,35.8991143 63.5132571,35.7551143 C63.4806857,35.6119714 63.4404,35.4739714 63.3975429,35.3411143 C63.3084,35.0985429 63.2304,34.8114 63.1652571,34.4805429 C63.1198286,34.3262571 63.0769714,34.1771143 63.0332571,34.0331143 C62.9878286,33.8899714 62.9449714,33.7399714 62.9012571,33.5865429 L62.8661143,33.5196857 C62.8446857,33.4314 62.8772571,33.3988286 62.9664,33.3774 C63.0769714,33.3328286 63.2406857,33.2659714 63.4618286,33.2659714 L63.9092571,33.2659714 L64.3918286,33.2659714 L65.2515429,33.2659714 C64.8984,32.4088286 64.5564,33.0405429 64.2246857,33.0619714 C63.8929714,33.0834 63.5509714,32.9814 63.1978286,32.9599714 C63.1086857,32.9599714 63.0546857,32.8871143 63.0332571,32.8425429 C63.0332571,32.7765429 63.0444,32.6959714 63.0658286,32.6514 C63.1764,32.5408286 63.2706857,32.4174 63.3461143,32.3068286 C63.4241143,32.1962571 63.5081143,32.0805429 63.5964,31.9691143 C63.6829714,31.8156857 63.7935429,31.6682571 63.9255429,31.5362571 C64.0146857,31.4488286 64.0824,31.3682571 64.1252571,31.3022571 C64.1252571,31.2808286 64.1466857,31.2465429 64.1921143,31.2019714 C64.3026857,31.0914 64.4132571,30.9482571 64.5238286,30.7716857 C64.5675429,30.7271143 64.6052571,30.6825429 64.6395429,30.6379714 C64.6721143,30.5951143 64.7098286,30.5505429 64.7561143,30.5059714 C64.8418286,30.3954 64.9258286,30.3019714 65.0038286,30.2239714 C65.0792571,30.1476857 65.1632571,30.0636857 65.2515429,29.9762571 C65.3621143,29.8656857 65.4564,29.7602571 65.5318286,29.6608286 C65.6106857,29.5622571 65.7049714,29.4576857 65.8155429,29.3471143 C65.9038286,29.2365429 65.9852571,29.1311143 66.0632571,29.0316857 C66.1412571,28.9331143 66.2329714,28.8276857 66.3461143,28.7171143 C66.4541143,28.6065429 66.5484,28.4959714 66.6264,28.3862571 C66.7044,28.2756857 66.7858286,28.1659714 66.8741143,28.0545429 C66.9418286,27.9885429 67.0009714,27.9165429 67.0575429,27.8402571 C67.1115429,27.7622571 67.1844,27.7022571 67.2735429,27.6568286 C67.2949714,27.6139714 67.3164,27.5865429 67.3378286,27.5745429 C67.3592571,27.5634 67.3815429,27.5368286 67.4055429,27.4922571 L67.4055429,27.4922571 Z M71.9115429,32.4979714 C71.9106857,32.4996857 71.9106857,32.4979714 71.9098286,32.4996857 C71.9098286,32.5194 71.8986857,32.5022571 71.8815429,32.4782571 C71.8841143,32.4876857 71.8909714,32.4936857 71.9098286,32.4936857 C71.9106857,32.4971143 71.9106857,32.4954 71.9115429,32.4979714 L71.9115429,32.4979714 Z M67.9335429,27.0285429 C67.9798286,26.9839714 68.0226857,26.9394 68.0655429,26.8956857 C68.1118286,26.8519714 68.1761143,26.6351143 68.2652571,26.6351143 C68.3758286,26.6136857 68.4975429,26.4088286 68.6295429,26.4088286 L68.9955429,26.4088286 L69.7232571,26.4088286 C69.8989714,26.4088286 70.0712571,26.5974 70.2358286,26.5854 C70.4029714,26.5742571 70.5726857,26.4722571 70.7501143,26.4722571 C70.9498286,26.4936857 71.1469714,26.4088286 71.3458286,26.4088286 L71.9415429,26.4088286 C72.3624,26.4088286 72.7746857,26.5691143 73.1844,26.5691143 C73.5915429,26.5691143 74.0064,26.6556857 74.4272571,26.6325429 C74.6021143,26.6325429 74.7804,26.6771143 74.9552571,26.6651143 C75.1335429,26.6539714 75.3084,26.6625429 75.4866857,26.6394 C75.6186857,26.5965429 75.7721143,26.6085429 75.9504,26.6514 C76.0601143,26.6959714 76.0824,26.7679714 76.0172571,26.8571143 C75.9718286,26.9016857 75.9281143,26.9702571 75.8826857,27.0576857 C75.8175429,27.1682571 75.7506857,27.2754 75.6855429,27.3748286 C75.6186857,27.4734 75.5535429,27.5788286 75.4866857,27.6894 C75.3761143,27.8891143 75.2595429,28.0879714 75.1386857,28.2859714 C75.0169714,28.4848286 74.8909714,28.6836857 74.7589714,28.8834 C74.6484,29.0591143 74.5378286,29.2305429 74.4272571,29.3968286 C74.3166857,29.5622571 74.2061143,29.7336857 74.0955429,29.9102571 C74.0741143,29.9548286 74.0492571,29.9976857 74.0278286,30.0422571 C74.0064,30.0868286 73.9738286,30.1314 73.9284,30.1742571 C73.7964,30.4185429 73.6592571,30.6448286 73.5161143,30.8531143 C73.3704,31.0639714 73.2332571,31.2902571 73.1012571,31.5328286 C72.9906857,31.6879714 72.8904,31.8431143 72.8046857,31.9965429 C72.7155429,32.1516857 72.6161143,32.3059714 72.5055429,32.4602571 C72.4618286,32.5494 72.4164,32.6042571 72.3735429,32.6256857 C72.3272571,32.6471143 72.2946857,32.6471143 72.2732571,32.6256857 C72.2064,32.5596857 72.1524,32.4825429 72.1086857,32.3942571 C72.0204,32.2836857 71.9312571,32.1782571 71.8421143,32.0788286 C71.7529714,31.9802571 71.6775429,31.8748286 71.6106857,31.7642571 C71.5215429,31.6322571 71.4298286,31.5062571 71.3304,31.3828286 C71.2301143,31.2619714 71.1255429,31.1351143 71.0149714,31.0031143 L70.6181143,30.5059714 C70.5726857,30.4399714 70.5298286,30.2436857 70.4861143,30.1888286 C70.4406857,30.1331143 70.3978286,29.8374 70.3515429,29.8374 L70.3189714,29.8374 C70.2084,29.8374 70.0875429,29.6411143 69.9555429,29.5091143 C69.8235429,29.3771143 69.7018286,29.3008286 69.5912571,29.1474 C69.4806857,29.0136857 69.3701143,28.9151143 69.2595429,28.7831143 C69.1498286,28.6502571 69.0392571,28.5456857 68.9286857,28.4351143 C68.7966857,28.3031143 68.6749714,28.1685429 68.5644,28.0134 C68.4538286,27.8582571 68.3218286,27.7202571 68.1658286,27.5865429 C68.1006857,27.5436857 68.0492571,27.4845429 68.0175429,27.4065429 C67.9849714,27.3302571 67.9446857,27.2591143 67.9018286,27.1922571 C67.8795429,27.1262571 67.8906857,27.0731143 67.9335429,27.0285429 L67.9335429,27.0285429 Z M72.0006857,10.1179714 L72.4806857,10.4205429 L72.0769714,14.2185429 L75.3538286,12.2342571 L75.8269714,12.5334 L73.3849714,16.3974 L72.8989714,16.0914 L74.6861143,13.2636857 L71.4401143,15.2274 L71.8344,11.4551143 L70.0429714,14.2888286 L69.5578286,13.9819714 L72.0006857,10.1179714 Z M80.4838286,17.3762571 L80.9664,17.8588286 L78.9118286,22.2782571 L78.4584,21.8239714 L78.9401143,20.8116857 L77.4975429,19.3691143 L76.4552571,19.8216857 L76.0361143,19.4016857 L80.4838286,17.3762571 Z M83.2446857,23.3779714 C84.2149714,22.4076857 85.5752571,22.3511143 86.4632571,23.2391143 C86.7529714,23.5288286 86.9595429,23.8905429 87.0504,24.2634 C87.0984,24.4759714 87.1078286,24.6405429 87.0924,24.9748286 L86.5498286,24.9568286 C86.5618286,24.3174 86.4418286,23.9642571 86.0989714,23.6222571 C85.4424,22.9656857 84.4164,23.0359714 83.6595429,23.7928286 C82.9069714,24.5454 82.8469714,25.5808286 83.5121143,26.2468286 C83.8644,26.5991143 84.2758286,26.7294 84.8321143,26.6745429 L84.8304,27.2162571 C84.1241143,27.2762571 83.6021143,27.0842571 83.1058286,26.5871143 C82.6558286,26.1379714 82.4398286,25.5919714 82.4749714,25.0065429 C82.5109714,24.4296857 82.7929714,23.8296857 83.2446857,23.3779714 L83.2446857,23.3779714 Z M80.9235429,65.8374 L79.7895429,68.4088286 L78.1712571,68.4088286 L82.8392571,56.4088286 L84.6992571,56.4088286 L89.2549714,68.4088286 L87.5072571,68.4088286 L86.4846857,65.8374 L80.9235429,65.8374 Z M77.7049714,37.9588286 L77.7049714,37.9254 L77.7401143,37.9254 C77.7401143,37.9476857 77.7264,37.9588286 77.7049714,37.9588286 L77.7049714,37.9588286 Z M68.1529714,50.6436857 C68.1204,50.6436857 68.1752571,50.6316857 68.2104,50.6102571 C68.1924,50.6496857 68.2241143,50.6616857 68.1529714,50.6436857 L68.1529714,50.6436857 Z M66.5226857,56.4088286 L68.2369714,56.4088286 L68.2369714,61.5516857 L74.2369714,61.5516857 L74.2369714,56.4088286 L75.0941143,56.4088286 L75.0941143,68.4088286 L74.2369714,68.4088286 L74.2369714,63.2659714 L68.2369714,63.2659714 L68.2369714,68.4088286 L66.5226857,68.4088286 L66.5226857,56.4088286 Z M62.2061143,45.4099714 C62.0064,45.1674 61.8066857,44.9248286 61.6078286,44.6822571 C61.4106857,44.4388286 61.2109714,44.1851143 61.0121143,43.9194 C60.9229714,43.8105429 60.8312571,43.6999714 60.7318286,43.5894 C60.6315429,43.4788286 60.5269714,43.3682571 60.4164,43.2576857 L60.0204,42.7605429 C59.7744,42.4734 59.5378286,42.1862571 59.3055429,41.8991143 C59.0741143,41.6119714 58.8366857,41.3145429 58.5941143,41.0059714 C58.5049714,40.8954 58.4244,40.7899714 58.3464,40.6905429 C58.2684,40.5911143 58.1844,40.4874 58.0978286,40.3768286 C58.0309714,40.3108286 57.9658286,40.2431143 57.8989714,40.1771143 C57.8312571,40.1111143 57.7669714,40.0339714 57.6992571,39.9448286 C57.5886857,39.7682571 57.4729714,39.6028286 57.3512571,39.4494 C57.2304,39.2942571 57.1035429,39.1391143 56.9715429,38.9839714 C56.8181143,38.7645429 56.6612571,38.5545429 56.5078286,38.3565429 C56.3544,38.1568286 56.1975429,37.9476857 56.0441143,37.7265429 C55.9772571,37.6596857 55.9009714,37.5611143 55.8126857,37.4274 C55.7664,37.3845429 55.7346857,37.3399714 55.7124,37.2954 C55.4698286,36.9636857 55.2486857,36.6448286 55.0498286,36.3345429 L54.9495429,36.2359714 C54.8638286,36.1922571 54.7858286,36.0919714 54.7181143,35.9368286 C54.6315429,35.8494 54.5646857,35.7731143 54.5209714,35.7054 L54.0229714,35.1096857 C53.9578286,34.9991143 53.8849714,34.9065429 53.8095429,34.8276857 C53.7315429,34.7514 53.6372571,34.6571143 53.5266857,34.5465429 C53.3946857,34.4145429 53.3055429,34.3039714 53.2626857,34.2156857 C53.2164,34.1488286 53.1624,34.0879714 53.0955429,34.0331143 C53.0304,33.9791143 52.9738286,33.9165429 52.9309714,33.8505429 C52.7989714,33.7185429 52.7098286,33.6079714 52.6669714,33.5196857 C52.6429714,33.4974 52.6318286,33.4656857 52.6318286,33.4211143 C52.6104,33.3996857 52.6318286,33.3654 52.6995429,33.3208286 C52.7852571,33.3208286 52.8418286,33.3105429 52.8632571,33.2874 C52.9524,33.2702571 53.0286857,33.2591143 53.1032571,33.2488286 C53.0184,33.2119714 52.9429714,33.1194 52.8795429,33.1279714 C52.8041143,33.1382571 52.7098286,33.0671143 52.5992571,33.0671143 C52.5778286,33.0671143 52.5538286,33.0336857 52.5324,33.0456857 C52.5101143,33.0568286 52.4886857,33.0431143 52.4672571,33.0431143 C52.3781143,33.0645429 52.3215429,33.0439714 52.3001143,32.9994 C52.2358286,32.9565429 52.2461143,32.8794 52.3352571,32.7919714 C52.3781143,32.7474 52.4106857,32.7079714 52.4346857,32.6754 C52.4569714,32.6419714 52.4886857,32.6042571 52.5324,32.5596857 C52.6206857,32.4936857 52.7046857,32.4225429 52.7826857,32.3436857 C52.8581143,32.2674 52.9421143,32.1834 53.0304,32.0959714 L53.2275429,31.8971143 C53.3621143,31.7865429 53.4941143,31.6648286 53.6261143,31.5328286 C53.7581143,31.4008286 53.8798286,31.2791143 53.9904,31.1685429 C54.0581143,31.1248286 54.1172571,31.0691143 54.1738286,31.0031143 C54.2278286,30.9371143 54.2895429,30.8822571 54.3538286,30.8376857 C54.4429714,30.7716857 54.5209714,30.6996857 54.5861143,30.6216857 C54.6529714,30.5445429 54.7181143,30.4614 54.7858286,30.3739714 C54.9178286,30.2634 55.0498286,30.1416857 55.1818286,30.0088286 C55.3164,29.8768286 55.4484,29.7551143 55.5804,29.6445429 C55.7346857,29.5125429 55.8821143,29.3788286 56.0278286,29.2468286 C56.1709714,29.1148286 56.3081143,28.9708286 56.4401143,28.8174 L56.5078286,28.7514 C56.5755429,28.7068286 56.6398286,28.6511143 56.7075429,28.5851143 C56.7718286,28.5182571 56.8395429,28.4522571 56.9038286,28.3862571 C57.0144,28.2756857 57.1198286,28.1771143 57.2192571,28.0879714 C57.3195429,28.0005429 57.4241143,27.9011143 57.5346857,27.7905429 C57.6452571,27.6799714 57.7395429,27.5865429 57.8149714,27.5085429 C57.8929714,27.4314 57.9769714,27.3371143 58.0661143,27.2265429 C58.1089714,27.1819714 58.1466857,27.1502571 58.1818286,27.1271143 C58.2144,27.1056857 58.2521143,27.0731143 58.2975429,27.0285429 C58.4055429,26.9839714 58.4835429,27.0054 58.5289714,27.0945429 C58.5941143,27.2051143 58.6618286,27.3088286 58.7261143,27.4091143 C58.7938286,27.5085429 58.8581143,27.6139714 58.9258286,27.7245429 C59.0578286,27.9448286 59.2112571,28.1659714 59.3895429,28.3862571 C59.5669714,28.5628286 59.7204,28.7514 59.8532571,28.9494 C59.9852571,29.1474 60.1275429,29.3471143 60.2844,29.5451143 C60.3272571,29.5896857 60.3675429,29.6394 60.4001143,29.6942571 C60.4326857,29.7499714 60.4704,29.7996857 60.5158286,29.8442571 C60.6264,29.9548286 60.7181143,30.0756857 60.7961143,30.2076857 C60.8741143,30.3396857 60.9581143,30.4845429 61.0438286,30.6379714 C61.0901143,30.7494 61.1492571,30.8479714 61.2272571,30.9371143 C61.3061143,31.0245429 61.3755429,31.1248286 61.4432571,31.2345429 C61.5538286,31.3674 61.6592571,31.4934 61.7586857,31.6151143 C61.8555429,31.7376857 61.9498286,31.8645429 62.0389714,31.9965429 C62.0389714,32.0179714 62.0604,32.0514 62.1058286,32.0959714 C62.2164,32.2494 62.3244,32.5974 62.4375429,32.7971143 C62.5464,32.9239714 62.5284,33.1485429 62.3981143,33.2291143 C62.4341143,33.2565429 62.4589714,33.2976857 62.4701143,33.3551143 C62.5566857,33.6636857 62.6398286,33.9722571 62.7178286,34.2825429 C62.7966857,34.5911143 62.8772571,34.9005429 62.9664,35.2091143 C63.0092571,35.3411143 63.0495429,35.4739714 63.0821143,35.6068286 C63.1146857,35.7388286 63.1549714,35.8828286 63.1978286,36.0371143 C63.2406857,36.1254 63.2758286,36.2025429 63.2972571,36.2685429 C63.3649714,36.4236857 63.4189714,36.5788286 63.4618286,36.7322571 C63.5081143,36.8874 63.5509714,37.0425429 63.5964,37.1959714 C63.6615429,37.4402571 63.7292571,37.6665429 63.7935429,37.8748286 C63.8612571,38.0856857 63.9255429,38.3119714 63.9932571,38.5545429 C64.1038286,38.9308286 64.2084,39.3054 64.3086857,39.6808286 C64.4081143,40.0554 64.4998286,40.4316857 64.5889714,40.8062571 C64.6104,40.8508286 64.6241143,40.8842571 64.6241143,40.9065429 C64.6241143,40.9279714 64.6344,40.9614 64.6558286,41.0059714 C64.6995429,41.1594 64.7501143,41.3034 64.8041143,41.4354 C64.8581143,41.5682571 64.9095429,41.7122571 64.9524,41.8674 C64.9986857,42.0208286 65.0415429,42.1759714 65.0878286,42.3311143 C65.1306857,42.4845429 65.1735429,42.6396857 65.2198286,42.7939714 C65.2626857,42.9268286 65.3004,43.0648286 65.3355429,43.2079714 C65.3681143,43.3519714 65.4058286,43.4899714 65.4512571,43.6219714 C65.4941143,43.7111143 65.5215429,43.7985429 65.5318286,43.8876857 C65.5429714,43.9751143 65.5618286,44.0642571 65.5832571,44.1516857 L65.6826857,44.5494 C65.7264,44.6376857 65.7478286,44.7036857 65.7478286,44.7482571 C65.7692571,45.0122571 65.8369714,45.2445429 65.9475429,45.4442571 C65.9904,45.5985429 66.0306857,45.7468286 66.0632571,45.8916857 C66.0958286,46.0339714 66.1361143,46.1719714 66.1789714,46.3048286 C66.2681143,46.6134 66.3572571,46.9288286 66.4429714,47.2485429 C66.5321143,47.5691143 66.6212571,47.8836857 66.7104,48.1931143 C66.7746857,48.4356857 66.8475429,48.6834 66.9255429,48.9388286 C67.0009714,49.1916857 67.0635429,49.4402571 67.1064,49.6836857 C67.1492571,49.8156857 67.1895429,49.9476857 67.2221143,50.0796857 C67.2546857,50.2134 67.2949714,50.3574 67.3378286,50.5116857 C67.3815429,50.6436857 67.3944,50.7431143 67.3704,50.8091143 C67.3704,50.9411143 67.3164,50.9745429 67.2058286,50.9085429 C67.0952571,50.8425429 66.9906857,50.7714 66.8904,50.6934 C66.7909714,50.6162571 66.7206857,50.5219714 66.6752571,50.4114 C66.6538286,50.3899714 66.6315429,50.3736857 66.6101143,50.3616857 C66.5886857,50.3505429 66.5646857,50.3351143 66.5432571,50.3119714 C66.4541143,50.2245429 66.3675429,50.1362571 66.2784,50.0479714 C66.1901143,49.9605429 66.1009714,49.8602571 66.0144,49.7496857 C65.9252571,49.6391143 65.8421143,49.5448286 65.7641143,49.4685429 C65.6886857,49.3914 65.6046857,49.2971143 65.5164,49.1865429 C65.4272571,49.0759714 65.3355429,48.9654 65.2352571,48.8548286 C65.1358286,48.7442571 65.0304,48.6354 64.9206857,48.5231143 C64.8315429,48.4356857 64.7561143,48.3576857 64.6884,48.2916857 C64.6241143,48.2256857 64.5564,48.1485429 64.4886857,48.0602571 L64.3249714,47.8939714 C64.2358286,47.7851143 64.1466857,47.6848286 64.0601143,47.5965429 C63.9718286,47.5082571 63.8715429,47.4088286 63.7609714,47.2982571 C63.6941143,47.2108286 63.6186857,47.1328286 63.5295429,47.0668286 C63.4404,47.0008286 63.3649714,46.9125429 63.2972571,46.8011143 L62.2061143,45.4099714 Z M58.7646857,88.9802571 L56.7744,88.9802571 L51.9512571,83.4422571 L51.9512571,88.9802571 L50.2369714,88.9802571 L50.2369714,76.1231143 L53.7804,76.1231143 C56.4212571,76.1231143 58.0206857,77.5416857 58.0206857,79.7916857 C58.0206857,81.1871143 57.3881143,82.3331143 56.2352571,82.9468286 C55.6404,83.2631143 55.0815429,83.5734 53.9475429,83.6479714 L58.7646857,88.9802571 Z M58.7981143,67.2834 C60.1558286,67.2834 61.1972571,66.7442571 62.1641143,65.5716857 L63.2064,66.6139714 C61.9601143,68.0831143 60.5835429,68.7148286 58.6678286,68.7148286 C56.9381143,68.7148286 55.4689714,68.0831143 54.4086857,66.8925429 C53.3672571,65.7208286 52.7544,64.0288286 52.7544,62.2991143 C52.7544,58.5791143 55.2641143,55.8636857 58.6858286,55.8636857 C59.8026857,55.8636857 60.8989714,56.1611143 61.7921143,56.7011143 C62.2944,57.0165429 62.6295429,57.3148286 63.2432571,57.9842571 L62.1641143,58.9879714 C60.9555429,57.7425429 60.0435429,57.2959714 58.7235429,57.2959714 C56.1941143,57.2959714 54.3529714,59.3976857 54.3529714,62.2991143 C54.3529714,65.1816857 56.2318286,67.2834 58.7981143,67.2834 L58.7981143,67.2834 Z M81.0941143,82.1231143 L81.0941143,82.9802571 L75.9512571,82.9802571 L75.9512571,87.2659714 L81.0941143,87.2659714 L81.0941143,88.9802571 L74.2369714,88.9802571 L74.2369714,76.1231143 L81.0941143,76.1231143 L81.0941143,77.8374 L75.9512571,77.8374 L75.9512571,82.1231143 L81.0941143,82.1231143 Z M92.9209714,88.9802571 L90.9306857,88.9802571 L86.2369714,83.4422571 L86.2369714,88.9802571 L84.5226857,88.9802571 L84.5226857,76.1231143 L87.9358286,76.1231143 C90.5766857,76.1231143 92.1769714,77.5416857 92.1769714,79.7916857 C92.1769714,81.1871143 91.5435429,82.3331143 90.3915429,82.9468286 C89.7958286,83.2631143 89.2378286,83.5734 88.1038286,83.6479714 L92.9209714,88.9802571 Z M90.6384,27.5308286 L91.0429714,27.9362571 L89.5875429,29.3916857 L91.1561143,30.9602571 L92.6124,29.5048286 L93.0178286,29.9102571 L89.7812571,33.1468286 L89.3758286,32.7414 L90.8072571,31.3099714 L89.2386857,29.7414 L87.8072571,31.1728286 L87.4018286,30.7674 L90.6384,27.5308286 Z M96.3941143,33.2856857 L96.7986857,33.6919714 L93.5629714,36.9276857 L93.1575429,36.5222571 L96.3941143,33.2856857 Z M107.337257,44.2305429 L105.283543,48.6491143 L104.829257,48.1956857 L105.311829,47.1834 L103.8684,45.7399714 L102.826114,46.1934 L102.406971,45.7734 L106.855543,43.7479714 L107.337257,44.2305429 Z M128.935543,58.7591143 L73.2409714,3.06454286 C69.2406857,-0.935742857 62.6946857,-0.935742857 58.6944,3.06454286 L2.99982857,58.7591143 C-1.00045714,62.7594 -1.00045714,69.3054 2.99982857,73.3056857 L58.6944,129.000257 C62.6946857,132.999686 69.2406857,132.999686 73.2409714,129.000257 L128.935543,73.3056857 C132.935829,69.3054 132.935829,62.7594 128.935543,58.7591143 L128.935543,58.7591143 Z" id="Fill-17" fill="#FFFFFF" sketch:type="MSShapeGroup" mask="url(#mask-2)"></path>
                </g>
                <path d="M54.6160477,33.3537685 C54.7015915,33.3287685 54.7911141,33.3607685 54.8852785,33.3607685 L55,33.3607685 C54.8972149,33.3607685 54.7950928,33.1287685 54.6929708,33.1417685 C54.5908488,33.1557685 54.4973475,33.0427685 54.4118037,33.0427685 C54.3759947,33.0427685 54.3428382,32.9897685 54.3096817,33.0017685 C54.2738727,33.0147685 54.2407162,33.1717685 54.2049072,33.1717685 C54.1332891,33.1937685 54.0649867,33.3067685 54,33.3437685 C54.102122,33.3417685 54.2022546,33.3397685 54.2824934,33.3297685 C54.3846154,33.3147685 54.4973475,33.3537685 54.6160477,33.3537685" id="Fill-20" fill="#FFFFFF" sketch:type="MSShapeGroup"></path>
                <path d="M80,18 L78,18.9190863 L79.0713738,20 L80,18 Z" id="Fill-22" fill="#FFFFFF" sketch:type="MSShapeGroup"></path>
                <path d="M53.438,33.0385595 C53.456,33.0385595 53.475,33.0295595 53.494,33.0215595 C53.452,33.0225595 53.422,33.0255595 53.378,33.0255595 C53.274,33.0005595 53.174,32.9925595 53.07,33.0075595 C53.049,33.0095595 53.022,33.0155595 53,33.0185595 C53.023,33.0285595 53.046,33.0385595 53.07,33.0385595 L53.438,33.0385595 Z" id="Fill-24" fill="#FFFFFF" sketch:type="MSShapeGroup"></path>
                <path d="M62.289,33.012 C62.187,33.012 62.095,33.005 62,33 C62.064,33.066 62.133,33.141 62.21,33.141 L62.402,33.141 C62.448,33.141 62.48,33.118 62.514,33.098 C62.475,33.068 62.426,33.051 62.364,33.051 C62.339,33.026 62.314,33.012 62.289,33.012" id="Fill-26" fill="#FFFFFF" sketch:type="MSShapeGroup"></path>
                <path d="M61.5971521,32.623 C61.4096972,32.598 61.2312545,32.529 61.0591204,32.515 C60.8833814,32.502 60.7040375,32.471 60.5174838,32.471 C60.2624369,32.471 60.0073901,32.223 59.7523432,32.235 C59.4972963,32.249 59.2395458,32 58.9844989,32 L58.4113194,32 C58.2130497,32 58.0201875,32.474 57.8363374,32.5 C57.5587599,32.525 57.2784787,33 57,33 L57.2784787,33 C57.6975487,33 58.1139149,32.936 58.5338861,32.859 C58.601478,32.832 58.6780822,32.813 58.7600937,32.825 C58.8394016,32.84 58.9160058,32.839 58.9844989,32.839 C59.1710526,32.813 59.3386806,32.803 59.491889,32.816 C59.6414924,32.83 59.7974045,32.82 59.9623288,32.795 C60.2173756,32.795 60.4724225,32.801 60.7274694,32.813 C60.9825162,32.827 61.2375631,32.833 61.4926099,32.833 C61.6088681,32.833 61.7305335,32.839 61.8576063,32.852 C61.9026676,32.856 61.9531363,32.856 62,32.859 C61.9612473,32.814 61.9251983,32.772 61.8918529,32.762 C61.8125451,32.735 61.7134102,32.623 61.5971521,32.623" id="Fill-28" fill="#FFFFFF" sketch:type="MSShapeGroup"></path>
                <path d="M106,44 L104,44.9190863 L105.071374,46 L106,44 Z" id="Fill-30" fill="#FFFFFF" sketch:type="MSShapeGroup"></path>
                <path d="M72,33.1461603 C72.067,33.1341603 72.134,33.1211603 72.23,33.1091603 L72.23,33.0321603 C72.23,32.9871603 72.153,32.9961603 72.06,33.0181603 C72.049,33.0371603 72.024,33.0501603 72.017,33.0711603 C72.011,33.0981603 72.007,33.1201603 72,33.1461603" id="Fill-32" fill="#FFFFFF" sketch:type="MSShapeGroup"></path>
                <path d="M76.484,32.016 C76.588,32.016 76.688,32.028 76.784,32.038 C76.749,32.017 76.713,32 76.676,32 L76,32 C76.166,32 76.33,32.041 76.484,32.016" id="Fill-34" fill="#FFFFFF" sketch:type="MSShapeGroup"></path>
                <path d="M65.23,33 C65.154,33 65.076,33.084 65,33.084 L65.579,33.084 C65.627,33.084 65.674,33.069 65.721,33.057 C65.646,33.041 65.572,33.028 65.5,33.043 C65.4,33.068 65.309,33 65.23,33" id="Fill-36" fill="#FFFFFF" sketch:type="MSShapeGroup"></path>
                <path d="M77.512,32.092 C77.666,32.067 77.82,32 77.974,32 L77.82,32 C77.613,32 77.427,32.036 77.26,32.048 C77.179,32.055 77.092,32.047 77,32.037 C77.084,32.089 77.158,32.174 77.223,32.164 C77.311,32.151 77.408,32.092 77.512,32.092" id="Fill-38" fill="#FFFFFF" sketch:type="MSShapeGroup"></path>
                <path d="M28.3279335,45.8349478 C28.8009458,45.2138048 28.9509434,44.8827238 28.9925269,44.4090534 C29.0407935,43.813303 28.8551528,43.2400153 28.4385753,42.6921202 C27.7621008,41.8024011 27.0158255,41.7662655 26.3764792,42.6081292 L26,43.102309 L28.2024404,46 L28.3279335,45.8349478 Z" id="Fill-40" fill="#FFFFFF" sketch:type="MSShapeGroup"></path>
                <path d="M78,32.006 L78.008,32.006 L78.125,32.006 C78.111,32.004 78.096,32 78.084,32 C78.054,32.006 78.028,32.004 78,32.006" id="Fill-42" fill="#FFFFFF" sketch:type="MSShapeGroup"></path>
                <path d="M78.154,32.009 C78.209,32 78.266,32.001 78.322,32 L78,32 C78.045,32.008 78.094,32.02 78.154,32.009" id="Fill-44" fill="#FFFFFF" sketch:type="MSShapeGroup"></path>
            </g>
        </g>
    </g>
</svg>