<?xml version="1.0" encoding="UTF-8" standalone="no"?>
<svg width="51px" height="50px" viewBox="0 0 51 50" version="1.1" xmlns="http://www.w3.org/2000/svg" xmlns:xlink="http://www.w3.org/1999/xlink" xmlns:sketch="http://www.bohemiancoding.com/sketch/ns">
    <!-- Generator: Sketch 3.4.4 (17249) - http://www.bohemiancoding.com/sketch -->
    <title>Pinterest</title>
    <desc>Created with Sketch.</desc>
    <defs></defs>
    <g id="Page-1" stroke="none" stroke-width="1" fill="none" fill-rule="evenodd" sketch:type="MSPage">
        <g id="home-page" sketch:type="MSArtboardGroup" transform="translate(-1058.000000, -3369.000000)">
            <g id="footer" sketch:type="MSLayerGroup" transform="translate(0.000000, 3267.000000)">
                <g id="Pinterest" transform="translate(1058.000000, 102.000000)" sketch:type="MSShapeGroup">
                    <path d="M0.755328637,24.8671875 C0.755328637,11.1334184 11.8796935,0 25.6022944,0 C39.3248954,0 50.4492602,11.1334184 50.4492602,24.8671875 C50.4492602,38.6009566 39.3248954,49.734375 25.6022944,49.734375 C11.8796935,49.734375 0.755328637,38.6009566 0.755328637,24.8671875 Z" fill="#B5B5B5"></path>
                    <path d="M15.029866,21.2668244 C15.029866,24.0043473 16.0654494,26.4397634 18.2865754,27.3473213 C18.6507871,27.4963419 18.9770232,27.3524478 19.0826481,26.9488726 C19.1561263,26.6695696 19.3299306,25.9649483 19.4074713,25.6715034 C19.5139793,25.2723476 19.4726478,25.1323425 19.178735,24.7844512 C18.5382736,24.0283886 18.1290212,23.0495907 18.1290212,21.6631518 C18.1290212,17.6408351 21.1359753,14.0399478 25.9590422,14.0399478 C30.2297862,14.0399478 32.5761431,16.6516076 32.5761431,20.1395363 C32.5761431,24.7287674 30.5468376,28.6020635 27.5342312,28.6020635 C25.8705505,28.6020635 24.6251302,27.2249937 25.0243147,25.5360944 C25.5022763,23.5198097 26.4281723,21.3437211 26.4281723,19.8883404 C26.4281723,18.5855157 25.7294228,17.4988856 24.2833506,17.4988856 C22.5825775,17.4988856 21.2163421,19.2597319 21.2163421,21.6186048 C21.2163421,23.1210074 21.7236243,24.1371046 21.7236243,24.1371046 C21.7236243,24.1371046 19.9831094,31.5175979 19.6780689,32.8101697 C19.0704606,35.3843534 19.586751,38.539947 19.6303787,38.8586706 C19.6559901,39.0474653 19.8985035,39.0923659 20.0083675,38.9497092 C20.1652152,38.7448281 22.1908115,36.2420611 22.879493,33.7412387 C23.0743162,33.0330818 23.9980927,29.3662577 23.9980927,29.3662577 C24.5505922,30.4210685 26.1655231,31.3501929 27.8828994,31.3501929 C32.9952868,31.3501929 36.4637759,26.6856561 36.4637759,20.4419967 C36.4637759,15.7208922 32.468222,11.3239913 26.3954957,11.3239913 C18.8396048,11.3239913 15.029866,16.7456514 15.029866,21.2668244 Z" id="Path" fill="#FFFFFF"></path>
                </g>
            </g>
        </g>
    </g>
</svg>