<?xml version="1.0" encoding="utf-8"?>
<!-- Generator: Adobe Illustrator 19.2.1, SVG Export Plug-In . SVG Version: 6.00 Build 0)  -->
<svg version="1.1" id="Layer_1" xmlns:sketch="http://www.bohemiancoding.com/sketch/ns"
	 xmlns="http://www.w3.org/2000/svg" xmlns:xlink="http://www.w3.org/1999/xlink" x="0px" y="0px" viewBox="0 0 1300 228"
	 style="enable-background:new 0 0 1300 228;" xml:space="preserve">
<style type="text/css">
	.st0{opacity:0.1;}
	.st1{enable-background:new    ;}
	.st2{font-family:'Vincent-Regular';}
	.st3{font-size:90px;}
	.st4{letter-spacing:1;}
	.st5{letter-spacing:-2;}
	.st6{letter-spacing:-9;}
	.st7{opacity:0.2;}
	.st8{opacity:0.3;}
	.st9{fill:#FFFFFF;}
</style>
<title>what is going to mak</title>
<desc>Created with Sketch.</desc>
<g id="Page-1" sketch:type="MSPage">
	<g class="st0">
		<text transform="matrix(1 0 0 1 13.3384 77.5044)" class="st1"><tspan x="0" y="0" class="st2 st3 st4">what is going to </tspan><tspan x="666.6" y="0" class="st2 st3 st5">ma</tspan><tspan x="759.9" y="0" class="st2 st3 st4">ke this a good </tspan></text>
		<text transform="matrix(1 0 0 1 13.3384 153.5029)" class="st1"><tspan x="0" y="0" class="st2 st3 st4">motorbike. It needs to </tspan><tspan x="862" y="0" class="st2 st3 st5">h</tspan><tspan x="900.7" y="0" class="st2 st3 st6">a</tspan><tspan x="942.2" y="0" class="st2 st3 st4">ve range, </tspan></text>
		<text transform="matrix(1 0 0 1 13.3384 229.5029)" class="st2 st3 st4">stable, straight, and powerful.</text>
		<text transform="matrix(1 0 0 1 7.6689 74.6695)" class="st1"><tspan x="0" y="0" class="st2 st3 st4">what is going to </tspan><tspan x="666.6" y="0" class="st2 st3 st5">ma</tspan><tspan x="759.9" y="0" class="st2 st3 st4">ke this a good </tspan></text>
		<text transform="matrix(1 0 0 1 7.6689 150.6685)" class="st1"><tspan x="0" y="0" class="st2 st3 st4">motorbike. It needs to </tspan><tspan x="862" y="0" class="st2 st3 st5">h</tspan><tspan x="900.7" y="0" class="st2 st3 st6">a</tspan><tspan x="942.2" y="0" class="st2 st3 st4">ve range, </tspan></text>
		<text transform="matrix(1 0 0 1 7.6689 226.6685)" class="st2 st3 st4">stable, straight, and powerful.</text>
		<text transform="matrix(1 0 0 1 10.5039 74.6695)" class="st1"><tspan x="0" y="0" class="st2 st3 st4">what is going to </tspan><tspan x="666.6" y="0" class="st2 st3 st5">ma</tspan><tspan x="759.9" y="0" class="st2 st3 st4">ke this a good </tspan></text>
		<text transform="matrix(1 0 0 1 10.5039 150.6685)" class="st1"><tspan x="0" y="0" class="st2 st3 st4">motorbike. It needs to </tspan><tspan x="862" y="0" class="st2 st3 st5">h</tspan><tspan x="900.7" y="0" class="st2 st3 st6">a</tspan><tspan x="942.2" y="0" class="st2 st3 st4">ve range, </tspan></text>
		<text transform="matrix(1 0 0 1 10.5039 226.6685)" class="st2 st3 st4">stable, straight, and powerful.</text>
		<text transform="matrix(1 0 0 1 4.8345 71.8345)" class="st1"><tspan x="0" y="0" class="st2 st3 st4">what is going to </tspan><tspan x="666.6" y="0" class="st2 st3 st5">ma</tspan><tspan x="759.9" y="0" class="st2 st3 st4">ke this a good </tspan></text>
		<text transform="matrix(1 0 0 1 4.8345 147.834)" class="st1"><tspan x="0" y="0" class="st2 st3 st4">motorbike. It needs to </tspan><tspan x="862" y="0" class="st2 st3 st5">h</tspan><tspan x="900.7" y="0" class="st2 st3 st6">a</tspan><tspan x="942.2" y="0" class="st2 st3 st4">ve range, </tspan></text>
		<text transform="matrix(1 0 0 1 4.8345 223.834)" class="st2 st3 st4">stable, straight, and powerful.</text>
	</g>
	<g>
		<g>
			<g id="Bike-detail-page-Copy-3_10_" transform="translate(-74.000000, -146.000000)" sketch:type="MSArtboardGroup">
				<g class="st7">
					<text transform="matrix(1 0 0 1 84.5039 220.6694)" class="st1"><tspan x="0" y="0" class="st2 st3 st4">what is going to </tspan><tspan x="666.6" y="0" class="st2 st3 st5">ma</tspan><tspan x="759.9" y="0" class="st2 st3 st4">ke this a good </tspan></text>
					<text transform="matrix(1 0 0 1 84.5039 296.6685)" class="st1"><tspan x="0" y="0" class="st2 st3 st4">motorbike. It needs to </tspan><tspan x="862" y="0" class="st2 st3 st5">h</tspan><tspan x="900.7" y="0" class="st2 st3 st6">a</tspan><tspan x="942.2" y="0" class="st2 st3 st4">ve range, </tspan></text>
					<text transform="matrix(1 0 0 1 84.5039 372.6685)" class="st2 st3 st4">stable, straight, and powerful.</text>
					<text transform="matrix(1 0 0 1 78.8345 217.8345)" class="st1"><tspan x="0" y="0" class="st2 st3 st4">what is going to </tspan><tspan x="666.6" y="0" class="st2 st3 st5">ma</tspan><tspan x="759.9" y="0" class="st2 st3 st4">ke this a good </tspan></text>
					<text transform="matrix(1 0 0 1 78.8345 293.834)" class="st1"><tspan x="0" y="0" class="st2 st3 st4">motorbike. It needs to </tspan><tspan x="862" y="0" class="st2 st3 st5">h</tspan><tspan x="900.7" y="0" class="st2 st3 st6">a</tspan><tspan x="942.2" y="0" class="st2 st3 st4">ve range, </tspan></text>
					<text transform="matrix(1 0 0 1 78.8345 369.834)" class="st2 st3 st4">stable, straight, and powerful.</text>
				</g>
				<g>
					<g>
						<g class="st8">
							<text transform="matrix(1 0 0 1 81.6694 217.8345)" class="st1"><tspan x="0" y="0" class="st2 st3 st4">what is going to </tspan><tspan x="666.6" y="0" class="st2 st3 st5">ma</tspan><tspan x="759.9" y="0" class="st2 st3 st4">ke this a good </tspan></text>
							<text transform="matrix(1 0 0 1 81.6694 293.834)" class="st1"><tspan x="0" y="0" class="st2 st3 st4">motorbike. It needs to </tspan><tspan x="862" y="0" class="st2 st3 st5">h</tspan><tspan x="900.7" y="0" class="st2 st3 st6">a</tspan><tspan x="942.2" y="0" class="st2 st3 st4">ve range, </tspan></text>
							<text transform="matrix(1 0 0 1 81.6694 369.834)" class="st2 st3 st4">stable, straight, and powerful.</text>
						</g>
						<g>
							<g>
								<text transform="matrix(1 0 0 1 76 214.9995)" class="st1"><tspan x="0" y="0" class="st9 st2 st3 st4">what is going to </tspan><tspan x="666.6" y="0" class="st9 st2 st3 st5">ma</tspan><tspan x="759.9" y="0" class="st9 st2 st3 st4">ke this a good </tspan></text>
								<text transform="matrix(1 0 0 1 76 290.9995)" class="st1"><tspan x="0" y="0" class="st9 st2 st3 st4">motorbike. It needs to </tspan><tspan x="862" y="0" class="st9 st2 st3 st5">h</tspan><tspan x="900.7" y="0" class="st9 st2 st3 st6">a</tspan><tspan x="942.2" y="0" class="st9 st2 st3 st4">ve range, </tspan></text>
								<text transform="matrix(1 0 0 1 76 366.9995)" class="st9 st2 st3 st4">stable, straight, and powerful.</text>
							</g>
						</g>
					</g>
				</g>
			</g>
		</g>
	</g>
</g>
</svg>
