<?xml version="1.0" encoding="UTF-8" standalone="no"?>
<svg width="129px" height="30px" viewBox="0 0 129 30" version="1.1" xmlns="http://www.w3.org/2000/svg" xmlns:xlink="http://www.w3.org/1999/xlink" xmlns:sketch="http://www.bohemiancoding.com/sketch/ns">
    <!-- Generator: Sketch 3.4.4 (17249) - http://www.bohemiancoding.com/sketch -->
    <title>social icons</title>
    <desc>Created with Sketch.</desc>
    <defs></defs>
    <g id="Page-1" stroke="none" stroke-width="1" fill="none" fill-rule="evenodd" sketch:type="MSPage">
        <g id="magazine" sketch:type="MSArtboardGroup" transform="translate(-656.000000, -902.000000)">
            <g id="social-icons" sketch:type="MSLayerGroup" transform="translate(656.000000, 902.000000)">
                <g id="Twitter" sketch:type="MSShapeGroup">
                    <path d="M0,15 C0,6.71572834 6.72543315,0 15.0216763,0 C23.3179194,0 30.0433526,6.71572834 30.0433526,15 C30.0433526,23.2842717 23.3179194,30 15.0216763,30 C6.72543315,30 0,23.2842717 0,15 Z" fill="#4099FF"></path>
                    <path d="M14.6498837,11.9439888 L14.6813603,12.4630226 L14.1567508,12.3994675 C12.2471722,12.1558393 10.578914,11.3296222 9.16246839,9.94200113 L8.46998385,9.25348685 L8.29161663,9.76192817 C7.91389779,10.8953286 8.15521816,12.0922842 8.9421324,12.8973163 C9.36182,13.3422024 9.26739029,13.4057576 8.54342918,13.1409444 C8.29161663,13.0562042 8.07128064,12.992649 8.05029626,13.0244266 C7.97685093,13.0985743 8.22866349,14.0624943 8.42801509,14.4438253 C8.70081203,14.9734516 9.2568981,15.4924855 9.86544512,15.7996688 L10.3795624,16.0432969 L9.77101541,16.0538894 C9.18345277,16.0538894 9.16246839,16.0644819 9.22542153,16.286925 C9.43526533,16.9754393 10.2641483,17.7063237 11.187461,18.0240995 L11.8379768,18.2465426 L11.2713986,18.5855035 C10.4320234,19.0727597 9.44575752,19.3481654 8.45949166,19.3693505 C7.98734312,19.379943 7.59913209,19.4223131 7.59913209,19.4540907 C7.59913209,19.560016 8.87917926,20.1531975 9.62412475,20.3862331 C11.8589612,21.0747474 14.5134853,20.7781566 16.5070013,19.6023861 C17.923447,18.7655764 19.3398926,17.1025496 20.0009006,15.4924855 C20.3576351,14.6344908 20.7143695,13.0667967 20.7143695,12.3147273 C20.7143695,11.827471 20.7458461,11.7639158 21.3334087,11.1813268 C21.679651,10.842366 22.0049089,10.4716275 22.067862,10.3657022 C22.1727839,10.1644442 22.1622917,10.1644442 21.62719,10.3445172 C20.7353539,10.662293 20.6094476,10.6199229 21.0501196,10.1432592 C21.3753775,9.80429827 21.7635885,9.18993169 21.7635885,9.00985872 C21.7635885,8.97808114 21.6062057,9.03104378 21.4278384,9.12637652 C21.238979,9.2323018 20.8192914,9.39118971 20.5045257,9.48652245 L19.9379475,9.66659542 L19.4238302,9.31704202 C19.140541,9.12637652 18.7418378,8.91452598 18.531994,8.85097081 C17.9968923,8.70267543 17.1785015,8.72386048 16.6958608,8.89334092 C15.384337,9.37000465 14.555454,10.5987378 14.6498837,11.9439888 Z" id="Path" fill="#FFFFFF"></path>
                </g>
                <g id="Facebook" transform="translate(49.000000, 0.000000)" sketch:type="MSShapeGroup">
                    <path d="M0.0570809249,15 C0.0570809249,6.71572834 6.78251408,0 15.0787572,0 C23.3750004,0 30.1004335,6.71572834 30.1004335,15 C30.1004335,23.2842717 23.3750004,30 15.0787572,30 C6.78251408,30 0.0570809249,23.2842717 0.0570809249,15 Z" fill="#3B5998"></path>
                    <path d="M16.3348574,23.1598365 L16.3348574,14.9990445 L18.5875929,14.9990445 L18.886129,12.1867904 L16.3348574,12.1867904 L16.3386848,10.7792302 C16.3386848,10.045751 16.4083751,9.65273611 17.461863,9.65273611 L18.8701815,9.65273611 L18.8701815,6.84016353 L16.6171271,6.84016353 C13.9108464,6.84016353 12.9583058,8.20440933 12.9583058,10.4986418 L12.9583058,12.1871089 L11.2713855,12.1871089 L11.2713855,14.999363 L12.9583058,14.999363 L12.9583058,23.1598365 L16.3348574,23.1598365 Z" id="Path" fill="#FFFFFF"></path>
                </g>
                <g id="Pinterest" transform="translate(98.000000, 0.000000)" sketch:type="MSShapeGroup">
                    <path d="M0.456647399,15 C0.456647399,6.71572834 7.18208055,0 15.4783237,0 C23.7745668,0 30.5,6.71572834 30.5,15 C30.5,23.2842717 23.7745668,30 15.4783237,30 C7.18208055,30 0.456647399,23.2842717 0.456647399,15 Z" fill="#CB2027"></path>
                    <path d="M9.08657352,12.8282447 C9.08657352,14.4795309 9.71265396,15.9485849 11.0554753,16.496028 C11.2756659,16.5859178 11.4728978,16.4991202 11.5367553,16.2556819 C11.5811778,16.0872051 11.6862543,15.6621743 11.7331329,15.485167 C11.7975242,15.2443944 11.7725365,15.1599427 11.5948463,14.9500931 C11.2076439,14.4940327 10.9602231,13.9036174 10.9602231,13.0673112 C10.9602231,10.6410316 12.7781308,8.46896002 15.694002,8.46896002 C18.2759564,8.46896002 19.6944883,10.044325 19.6944883,12.1482594 C19.6944883,14.9165044 18.4676355,17.2528941 16.6463106,17.2528941 C15.6405027,17.2528941 14.8875617,16.4222394 15.1288958,15.4034877 C15.417856,14.1872556 15.9776229,12.8746291 15.9776229,11.9967369 C15.9776229,11.2108671 15.5551815,10.5554069 14.6809327,10.5554069 C13.6527,10.5554069 12.826718,11.6175574 12.826718,13.0404402 C12.826718,13.9466963 13.1334045,14.5596107 13.1334045,14.5596107 C13.1334045,14.5596107 12.0811452,19.0115576 11.8967275,19.7912428 C11.5293871,21.3440021 11.8415196,23.2474704 11.8678955,23.4397259 C11.8833794,23.5536077 12.0299952,23.5806919 12.0964154,23.4946408 C12.1912405,23.3710556 13.4158508,21.8613752 13.8322055,20.3528678 C13.9499894,19.9257044 14.5084749,17.7138595 14.5084749,17.7138595 C14.8424984,18.3501261 15.8188336,18.9105782 16.8571041,18.9105782 C19.9478891,18.9105782 22.044826,16.0969085 22.044826,12.3307049 C22.044826,9.4829133 19.6292426,6.83068279 15.9578677,6.83068279 C11.3898191,6.83068279 9.08657352,10.1010527 9.08657352,12.8282447 Z" id="Path" fill="#FFFFFF"></path>
                </g>
            </g>
        </g>
    </g>
</svg>