<?xml version="1.0" encoding="UTF-8" standalone="no"?>
<svg width="50px" height="50px" viewBox="0 0 50 50" version="1.1" xmlns="http://www.w3.org/2000/svg" xmlns:xlink="http://www.w3.org/1999/xlink" xmlns:sketch="http://www.bohemiancoding.com/sketch/ns">
    <!-- Generator: Sketch 3.4.4 (17249) - http://www.bohemiancoding.com/sketch -->
    <title>Twitter</title>
    <desc>Created with Sketch.</desc>
    <defs></defs>
    <g id="Page-1" stroke="none" stroke-width="1" fill="none" fill-rule="evenodd" sketch:type="MSPage">
        <g id="home-page" sketch:type="MSArtboardGroup" transform="translate(-938.000000, -3369.000000)">
            <g id="footer" sketch:type="MSLayerGroup" transform="translate(0.000000, 3267.000000)">
                <g id="Twitter" transform="translate(938.000000, 102.000000)" sketch:type="MSShapeGroup">
                    <path d="M0,24.8671875 C0,11.1334184 11.1243648,0 24.8469658,0 C38.5695667,0 49.6939316,11.1334184 49.6939316,24.8671875 C49.6939316,38.6009566 38.5695667,49.734375 24.8469658,49.734375 C11.1243648,49.734375 0,38.6009566 0,24.8671875 Z" fill="#B5B5B5"></path>
                    <path d="M24.2319933,19.8008939 L24.2840579,20.6613547 L23.4163149,20.5559922 C20.2577304,20.1521024 17.4983078,18.7823893 15.1554017,16.4819737 L14.009981,15.3405462 L13.7149483,16.1834465 C13.0901734,18.0624119 13.4893352,20.0467399 14.7909496,21.3813321 C15.485144,22.1188699 15.3289503,22.2242325 14.131465,21.7852219 C13.7149483,21.6447385 13.3504963,21.5393759 13.3157866,21.5920572 C13.1943026,21.7149802 13.6108192,23.3129788 13.9405615,23.9451541 C14.3917879,24.8231753 15.3115954,25.6836361 16.3181773,26.1928884 L17.1685654,26.5967781 L16.1619836,26.6143385 C15.1901114,26.6143385 15.1554017,26.631899 15.2595309,27.0006679 C15.6066281,28.1420955 16.977662,29.3537647 18.5048896,29.8805775 L19.5808909,30.2493464 L18.6437285,30.8112799 C17.2553397,31.6190595 15.6239829,32.0756305 13.9926261,32.1107513 C13.2116574,32.1283118 12.5695276,32.1985535 12.5695276,32.2512347 C12.5695276,32.426839 14.6868205,33.4102227 15.9190155,33.7965521 C19.6156006,34.9379796 24.0063801,34.4462878 27.3038035,32.4970807 C29.6467095,31.1098072 31.9896156,28.3528206 33.0829718,25.6836361 C33.673037,24.2612417 34.2631022,21.6622989 34.2631022,20.4155088 C34.2631022,19.6077293 34.3151668,19.5023667 35.2870389,18.5365434 C35.8597493,17.9746098 36.39775,17.359995 36.5018791,17.1843907 C36.6754277,16.8507427 36.6580728,16.8507427 35.772975,17.1492699 C34.2978119,17.6760826 34.0895536,17.6058409 34.8184577,16.8156218 C35.3564584,16.2536882 35.9985882,15.2351836 35.9985882,14.9366564 C35.9985882,14.8839751 35.7382653,14.9717773 35.4432327,15.1298211 C35.1308452,15.3054253 34.4366508,15.5688317 33.916005,15.7268755 L32.9788426,16.0254027 L32.1284545,15.4459087 C31.6598733,15.1298211 31.0003886,14.7786126 30.6532914,14.6732501 C29.7681936,14.4274041 28.4145145,14.462525 27.616191,14.7434917 C25.4468335,15.5337108 24.0757996,17.5707201 24.2319933,19.8008939 Z" id="Path" fill="#FFFFFF"></path>
                </g>
            </g>
        </g>
    </g>
</svg>