<?xml version="1.0" encoding="UTF-8" standalone="no"?>
<svg width="51px" height="50px" viewBox="0 0 51 50" version="1.1" xmlns="http://www.w3.org/2000/svg" xmlns:xlink="http://www.w3.org/1999/xlink" xmlns:sketch="http://www.bohemiancoding.com/sketch/ns">
    <!-- Generator: Sketch 3.4.4 (17249) - http://www.bohemiancoding.com/sketch -->
    <title>Vimeo</title>
    <desc>Created with Sketch.</desc>
    <defs></defs>
    <g id="Page-1" stroke="none" stroke-width="1" fill="none" fill-rule="evenodd" sketch:type="MSPage">
        <g id="home-page" sketch:type="MSArtboardGroup" transform="translate(-1119.000000, -3369.000000)">
            <g id="footer" sketch:type="MSLayerGroup" transform="translate(0.000000, 3267.000000)">
                <g id="Vimeo" transform="translate(1119.000000, 102.000000)" sketch:type="MSShapeGroup">
                    <path d="M0.472080398,24.8671875 C0.472080398,11.1334184 11.5964452,0 25.3190462,0 C39.0416471,0 50.166012,11.1334184 50.166012,24.8671875 C50.166012,38.6009566 39.0416471,49.734375 25.3190462,49.734375 C11.5964452,49.734375 0.472080398,38.6009566 0.472080398,24.8671875 Z" fill="#B5B5B5"></path>
                    <path d="M15.6381836,19.8904211 C16.4154917,20.8102459 19.3832272,31.9168814 20.3738682,33.9657379 C21.2385106,35.7625012 23.6235641,38.1379034 26.2390802,36.441553 C28.8530736,34.7451481 37.5457206,27.3177574 39.1017507,18.5465223 C40.6564212,9.77806287 28.641209,11.6148824 27.3684989,19.2543101 C30.5494585,17.3430381 32.247366,20.0308902 30.6196087,23.0740784 C28.9947879,26.1143276 27.5101589,28.097222 26.732742,28.097222 C25.9568478,28.097222 25.3599183,26.062679 24.4709136,22.5066508 C23.5518912,18.8302361 23.5575467,12.2079982 19.7366974,12.9587812 C16.1334225,13.666569 11.3977924,19.3259869 11.3977924,19.3259869 L12.5287338,20.8102459 C12.5287338,20.8102459 14.8608212,18.9704875 15.6381836,19.8904211 Z" id="Path" fill="#FFFFFF"></path>
                </g>
            </g>
        </g>
    </g>
</svg>